<?xml version="1.0" encoding="us-ascii" standalone="no"?><svg xmlns="http://www.w3.org/2000/svg" xmlns:xlink="http://www.w3.org/1999/xlink" contentStyleType="text/css" height="1821px" preserveAspectRatio="none" style="width:501px;height:1821px;background:#FFFFFF;" version="1.1" viewBox="0 0 501 1821" width="501px" zoomAndPan="magnify"><defs/><g><text fill="#000000" font-family="sans-serif" font-size="14" font-weight="bold" lengthAdjust="spacing" textLength="374" x="62" y="34.5332">Command Lifecycle (Based on Actual Implementation)</text><ellipse cx="272.75" cy="58.6094" fill="#222222" rx="10" ry="10" style="stroke:#222222;stroke-width:1.0;"/><rect fill="#F1F1F1" height="35.0938" rx="12.5" ry="12.5" style="stroke:#181818;stroke-width:0.5;" width="158" x="193.75" y="88.6094"/><text fill="#000000" font-family="sans-serif" font-size="12" lengthAdjust="spacing" textLength="138" x="203.75" y="111.0664">User taps ON/OFF button</text><rect fill="none" height="139.7969" style="stroke:#000000;stroke-width:1.5;" width="211" x="167.25" y="133.7031"/><path d="M305.25,133.7031 L305.25,144.3125 L295.25,154.3125 L167.25,154.3125 " fill="none" style="stroke:#000000;stroke-width:1.5;"/><text fill="#000000" font-family="sans-serif" font-size="14" lengthAdjust="spacing" textLength="128" x="170.25" y="149.2363">App - Send Request</text><rect fill="#F1F1F1" height="35.0938" rx="12.5" ry="12.5" style="stroke:#181818;stroke-width:0.5;" width="166" x="189.75" y="171.3125"/><text fill="#000000" font-family="sans-serif" font-size="12" lengthAdjust="spacing" textLength="146" x="199.75" y="193.7695">Create CommandRequest</text><rect fill="#F1F1F1" height="35.0938" rx="12.5" ry="12.5" style="stroke:#181818;stroke-width:0.5;" width="191" x="177.25" y="226.4063"/><text fill="#000000" font-family="sans-serif" font-size="12" lengthAdjust="spacing" textLength="171" x="187.25" y="248.8633">POST /api/devices/{id}/on or /off</text><rect fill="none" height="228.8906" style="stroke:#000000;stroke-width:1.5;" width="401" x="44.5" y="283.5"/><path d="M301.5,283.5 L301.5,294.1094 L291.5,304.1094 L44.5,304.1094 " fill="none" style="stroke:#000000;stroke-width:1.5;"/><text fill="#000000" font-family="sans-serif" font-size="14" lengthAdjust="spacing" textLength="247" x="47.5" y="299.0332">Backend - Validate &amp; Create Command</text><polygon fill="#F1F1F1" points="236.75,321.1094,308.75,321.1094,320.75,333.1094,308.75,345.1094,236.75,345.1094,224.75,333.1094,236.75,321.1094" style="stroke:#181818;stroke-width:0.5;"/><text fill="#000000" font-family="sans-serif" font-size="11" lengthAdjust="spacing" textLength="72" x="236.75" y="337.6104">DeviceId valid?</text><text fill="#000000" font-family="sans-serif" font-size="11" lengthAdjust="spacing" textLength="20" x="204.75" y="330.6924">Yes</text><text fill="#000000" font-family="sans-serif" font-size="11" lengthAdjust="spacing" textLength="13" x="320.75" y="330.6924">No</text><rect fill="#F1F1F1" height="35.0938" rx="12.5" ry="12.5" style="stroke:#181818;stroke-width:0.5;" width="226" x="64.5" y="355.1094"/><text fill="#000000" font-family="sans-serif" font-size="12" lengthAdjust="spacing" textLength="206" x="74.5" y="377.5664">Create Command (status=PENDING)</text><rect fill="#F1F1F1" height="35.0938" rx="12.5" ry="12.5" style="stroke:#181818;stroke-width:0.5;" width="101" x="127" y="410.2031"/><text fill="#000000" font-family="sans-serif" font-size="12" lengthAdjust="spacing" textLength="81" x="137" y="432.6602">Save to MySQL</text><rect fill="#F1F1F1" height="35.0938" rx="12.5" ry="12.5" style="stroke:#181818;stroke-width:0.5;" width="180" x="87.5" y="465.2969"/><text fill="#000000" font-family="sans-serif" font-size="12" lengthAdjust="spacing" textLength="160" x="97.5" y="487.7539">Call sendControlCommand()</text><rect fill="#F1F1F1" height="35.0938" rx="12.5" ry="12.5" style="stroke:#181818;stroke-width:0.5;" width="115" x="310.5" y="355.1094"/><text fill="#000000" font-family="sans-serif" font-size="12" lengthAdjust="spacing" textLength="95" x="320.5" y="377.5664">Return HTTP 400</text><ellipse cx="368" cy="421.2031" fill="none" rx="11" ry="11" style="stroke:#222222;stroke-width:1.0;"/><ellipse cx="368" cy="421.2031" fill="#222222" rx="6" ry="6" style="stroke:#222222;stroke-width:1.0;"/><rect fill="none" height="194.8906" style="stroke:#000000;stroke-width:1.5;" width="288" x="128.75" y="522.3906"/><path d="M296.75,522.3906 L296.75,533 L286.75,543 L128.75,543 " fill="none" style="stroke:#000000;stroke-width:1.5;"/><text fill="#000000" font-family="sans-serif" font-size="14" lengthAdjust="spacing" textLength="158" x="131.75" y="537.9238">Backend - Publish MQTT</text><rect fill="#F1F1F1" height="35.0938" rx="12.5" ry="12.5" style="stroke:#181818;stroke-width:0.5;" width="268" x="138.75" y="560"/><text fill="#000000" font-family="sans-serif" font-size="12" lengthAdjust="spacing" textLength="248" x="148.75" y="582.457">Build MQTT payload {commandId, command}</text><rect fill="#F1F1F1" height="35.0938" rx="12.5" ry="12.5" style="stroke:#181818;stroke-width:0.5;" width="142" x="201.75" y="615.0938"/><text fill="#000000" font-family="sans-serif" font-size="12" lengthAdjust="spacing" textLength="122" x="211.75" y="637.5508">Update status = SENT</text><rect fill="#F1F1F1" height="35.0938" rx="12.5" ry="12.5" style="stroke:#181818;stroke-width:0.5;" width="255" x="145.25" y="670.1875"/><text fill="#000000" font-family="sans-serif" font-size="12" lengthAdjust="spacing" textLength="235" x="155.25" y="692.6445">Publish to topic devices/{id}/control (QoS 1)</text><rect fill="none" height="448.1719" style="stroke:#000000;stroke-width:1.5;" width="479" x="11" y="727.2813"/><path d="M127,727.2813 L127,737.8906 L117,747.8906 L11,747.8906 " fill="none" style="stroke:#000000;stroke-width:1.5;"/><text fill="#000000" font-family="sans-serif" font-size="14" lengthAdjust="spacing" textLength="106" x="14" y="742.8145">Device - Execute</text><rect fill="#F1F1F1" height="35.0938" rx="12.5" ry="12.5" style="stroke:#181818;stroke-width:0.5;" width="160" x="192.75" y="764.8906"/><text fill="#000000" font-family="sans-serif" font-size="12" lengthAdjust="spacing" textLength="140" x="202.75" y="787.3477">Receive control message</text><rect fill="#F1F1F1" height="35.0938" rx="12.5" ry="12.5" style="stroke:#181818;stroke-width:0.5;" width="88" x="228.75" y="819.9844"/><text fill="#000000" font-family="sans-serif" font-size="12" lengthAdjust="spacing" textLength="68" x="238.75" y="842.4414">Parse JSON</text><polygon fill="#F1F1F1" points="243.75,875.0781,301.75,875.0781,313.75,887.0781,301.75,899.0781,243.75,899.0781,231.75,887.0781,243.75,875.0781" style="stroke:#181818;stroke-width:0.5;"/><text fill="#000000" font-family="sans-serif" font-size="11" lengthAdjust="spacing" textLength="58" x="243.75" y="891.5791">JSON valid?</text><text fill="#000000" font-family="sans-serif" font-size="11" lengthAdjust="spacing" textLength="20" x="211.75" y="884.6611">Yes</text><text fill="#000000" font-family="sans-serif" font-size="11" lengthAdjust="spacing" textLength="13" x="313.75" y="884.6611">No</text><polygon fill="#F1F1F1" points="113.375,909.0781,198.375,909.0781,210.375,921.0781,198.375,933.0781,113.375,933.0781,101.375,921.0781,113.375,909.0781" style="stroke:#181818;stroke-width:0.5;"/><text fill="#000000" font-family="sans-serif" font-size="11" lengthAdjust="spacing" textLength="85" x="113.375" y="925.5791">command == ON?</text><text fill="#000000" font-family="sans-serif" font-size="11" lengthAdjust="spacing" textLength="20" x="81.375" y="918.6611">Yes</text><text fill="#000000" font-family="sans-serif" font-size="11" lengthAdjust="spacing" textLength="13" x="210.375" y="918.6611">No</text><rect fill="#F1F1F1" height="35.0938" rx="12.5" ry="12.5" style="stroke:#181818;stroke-width:0.5;" width="114" x="32.625" y="943.0781"/><text fill="#000000" font-family="sans-serif" font-size="12" lengthAdjust="spacing" textLength="94" x="42.625" y="965.5352">digitalWrite HIGH</text><rect fill="#F1F1F1" height="35.0938" rx="12.5" ry="12.5" style="stroke:#181818;stroke-width:0.5;" width="111" x="166.625" y="943.0781"/><text fill="#000000" font-family="sans-serif" font-size="12" lengthAdjust="spacing" textLength="91" x="176.625" y="965.5352">digitalWrite LOW</text><polygon fill="#F1F1F1" points="155.875,984.1719,167.875,996.1719,155.875,1008.1719,143.875,996.1719,155.875,984.1719" style="stroke:#181818;stroke-width:0.5;"/><rect fill="#F1F1F1" height="35.0938" rx="12.5" ry="12.5" style="stroke:#181818;stroke-width:0.5;" width="182" x="64.875" y="1028.1719"/><text fill="#000000" font-family="sans-serif" font-size="12" lengthAdjust="spacing" textLength="162" x="74.875" y="1050.6289">Prepare SUCCESS response</text><rect fill="#F1F1F1" height="35.0938" rx="12.5" ry="12.5" style="stroke:#181818;stroke-width:0.5;" width="164" x="307.625" y="909.0781"/><text fill="#000000" font-family="sans-serif" font-size="12" lengthAdjust="spacing" textLength="144" x="317.625" y="931.5352">Prepare FAILED response</text><polygon fill="#F1F1F1" points="272.75,1069.2656,284.75,1081.2656,272.75,1093.2656,260.75,1081.2656,272.75,1069.2656" style="stroke:#181818;stroke-width:0.5;"/><rect fill="#F1F1F1" height="50.1875" rx="12.5" ry="12.5" style="stroke:#181818;stroke-width:0.5;" width="179" x="183.25" y="1113.2656"/><text fill="#000000" font-family="sans-serif" font-size="12" lengthAdjust="spacing" textLength="111" x="193.25" y="1135.7227">Publish response to</text><text fill="#000000" font-family="sans-serif" font-size="12" lengthAdjust="spacing" textLength="159" x="193.25" y="1150.8164">devices/{id}/control/response</text><rect fill="none" height="313.9844" style="stroke:#000000;stroke-width:1.5;" width="455" x="23" y="1185.4531"/><path d="M213,1185.4531 L213,1196.0625 L203,1206.0625 L23,1206.0625 " fill="none" style="stroke:#000000;stroke-width:1.5;"/><text fill="#000000" font-family="sans-serif" font-size="14" lengthAdjust="spacing" textLength="180" x="26" y="1200.9863">Backend - Handle Response</text><rect fill="#F1F1F1" height="35.0938" rx="12.5" ry="12.5" style="stroke:#181818;stroke-width:0.5;" width="155" x="195.25" y="1223.0625"/><text fill="#000000" font-family="sans-serif" font-size="12" lengthAdjust="spacing" textLength="135" x="205.25" y="1245.5195">Receive MQTT response</text><rect fill="#F1F1F1" height="35.0938" rx="12.5" ry="12.5" style="stroke:#181818;stroke-width:0.5;" width="99" x="223.25" y="1278.1563"/><text fill="#000000" font-family="sans-serif" font-size="12" lengthAdjust="spacing" textLength="79" x="233.25" y="1300.6133">Parse payload</text><polygon fill="#F1F1F1" points="230.25,1333.25,315.25,1333.25,327.25,1345.25,315.25,1357.25,230.25,1357.25,218.25,1345.25,230.25,1333.25" style="stroke:#181818;stroke-width:0.5;"/><text fill="#000000" font-family="sans-serif" font-size="11" lengthAdjust="spacing" textLength="85" x="230.25" y="1349.751">Command exists?</text><text fill="#000000" font-family="sans-serif" font-size="11" lengthAdjust="spacing" textLength="20" x="198.25" y="1342.833">Yes</text><text fill="#000000" font-family="sans-serif" font-size="11" lengthAdjust="spacing" textLength="13" x="327.25" y="1342.833">No</text><rect fill="#F1F1F1" height="35.0938" rx="12.5" ry="12.5" style="stroke:#181818;stroke-width:0.5;" width="242" x="43" y="1367.25"/><text fill="#000000" font-family="sans-serif" font-size="12" lengthAdjust="spacing" textLength="222" x="53" y="1389.707">Update status = COMPLETED or FAILED</text><rect fill="#F1F1F1" height="35.0938" rx="12.5" ry="12.5" style="stroke:#181818;stroke-width:0.5;" width="101" x="113.5" y="1422.3438"/><text fill="#000000" font-family="sans-serif" font-size="12" lengthAdjust="spacing" textLength="81" x="123.5" y="1444.8008">Save to MySQL</text><rect fill="#F1F1F1" height="35.0938" rx="12.5" ry="12.5" style="stroke:#181818;stroke-width:0.5;" width="153" x="305" y="1367.25"/><text fill="#000000" font-family="sans-serif" font-size="12" lengthAdjust="spacing" textLength="133" x="315" y="1389.707">Log orphaned response</text><polygon fill="#F1F1F1" points="272.75,1463.4375,284.75,1475.4375,272.75,1487.4375,260.75,1475.4375,272.75,1463.4375" style="stroke:#181818;stroke-width:0.5;"/><rect fill="none" height="203.7969" style="stroke:#000000;stroke-width:1.5;" width="370.5" x="87.75" y="1509.4375"/><path d="M196.75,1509.4375 L196.75,1520.0469 L186.75,1530.0469 L87.75,1530.0469 " fill="none" style="stroke:#000000;stroke-width:1.5;"/><text fill="#000000" font-family="sans-serif" font-size="14" lengthAdjust="spacing" textLength="99" x="90.75" y="1524.9707">App - UI Update</text><polygon fill="#F1F1F1" points="202.25,1547.0469,343.25,1547.0469,355.25,1559.0469,343.25,1571.0469,202.25,1571.0469,190.25,1559.0469,202.25,1547.0469" style="stroke:#181818;stroke-width:0.5;"/><text fill="#000000" font-family="sans-serif" font-size="11" lengthAdjust="spacing" textLength="141" x="202.25" y="1563.5479">User refreshes / re-renders?</text><text fill="#000000" font-family="sans-serif" font-size="11" lengthAdjust="spacing" textLength="20" x="170.25" y="1556.6299">Yes</text><text fill="#000000" font-family="sans-serif" font-size="11" lengthAdjust="spacing" textLength="13" x="355.25" y="1556.6299">No</text><rect fill="#F1F1F1" height="35.0938" rx="12.5" ry="12.5" style="stroke:#181818;stroke-width:0.5;" width="145" x="107.75" y="1581.0469"/><text fill="#000000" font-family="sans-serif" font-size="12" lengthAdjust="spacing" textLength="125" x="117.75" y="1603.5039">GET latest device state</text><rect fill="#F1F1F1" height="35.0938" rx="12.5" ry="12.5" style="stroke:#181818;stroke-width:0.5;" width="140" x="110.25" y="1636.1406"/><text fill="#000000" font-family="sans-serif" font-size="12" lengthAdjust="spacing" textLength="120" x="120.25" y="1658.5977">Update UI accordingly</text><rect fill="#F1F1F1" height="35.0938" rx="12.5" ry="12.5" style="stroke:#181818;stroke-width:0.5;" width="146" x="292.25" y="1581.0469"/><text fill="#000000" font-family="sans-serif" font-size="12" lengthAdjust="spacing" textLength="126" x="302.25" y="1603.5039">UI remains unchanged</text><polygon fill="#F1F1F1" points="272.75,1677.2344,284.75,1689.2344,272.75,1701.2344,260.75,1689.2344,272.75,1677.2344" style="stroke:#181818;stroke-width:0.5;"/><rect fill="#F1F1F1" height="35.0938" rx="12.5" ry="12.5" style="stroke:#181818;stroke-width:0.5;" width="179" x="183.25" y="1733.2344"/><text fill="#000000" font-family="sans-serif" font-size="12" lengthAdjust="spacing" textLength="159" x="193.25" y="1755.6914">Command lifecycle complete</text><ellipse cx="272.75" cy="1799.3281" fill="none" rx="11" ry="11" style="stroke:#222222;stroke-width:1.0;"/><ellipse cx="272.75" cy="1799.3281" fill="#222222" rx="6" ry="6" style="stroke:#222222;stroke-width:1.0;"/><line style="stroke:#181818;stroke-width:1.0;" x1="272.75" x2="272.75" y1="68.6094" y2="88.6094"/><polygon fill="#181818" points="268.75,78.6094,272.75,88.6094,276.75,78.6094,272.75,82.6094" style="stroke:#181818;stroke-width:1.0;"/><line style="stroke:#181818;stroke-width:1.0;" x1="272.75" x2="272.75" y1="206.4063" y2="226.4063"/><polygon fill="#181818" points="268.75,216.4063,272.75,226.4063,276.75,216.4063,272.75,220.4063" style="stroke:#181818;stroke-width:1.0;"/><line style="stroke:#181818;stroke-width:1.0;" x1="272.75" x2="272.75" y1="123.7031" y2="171.3125"/><polygon fill="#181818" points="268.75,161.3125,272.75,171.3125,276.75,161.3125,272.75,165.3125" style="stroke:#181818;stroke-width:1.0;"/><line style="stroke:#181818;stroke-width:1.0;" x1="177.5" x2="177.5" y1="390.2031" y2="410.2031"/><polygon fill="#181818" points="173.5,400.2031,177.5,410.2031,181.5,400.2031,177.5,404.2031" style="stroke:#181818;stroke-width:1.0;"/><line style="stroke:#181818;stroke-width:1.0;" x1="177.5" x2="177.5" y1="445.2969" y2="465.2969"/><polygon fill="#181818" points="173.5,455.2969,177.5,465.2969,181.5,455.2969,177.5,459.2969" style="stroke:#181818;stroke-width:1.0;"/><line style="stroke:#181818;stroke-width:1.0;" x1="368" x2="368" y1="390.2031" y2="410.2031"/><polygon fill="#181818" points="364,400.2031,368,410.2031,372,400.2031,368,404.2031" style="stroke:#181818;stroke-width:1.0;"/><line style="stroke:#181818;stroke-width:1.0;" x1="224.75" x2="177.5" y1="333.1094" y2="333.1094"/><line style="stroke:#181818;stroke-width:1.0;" x1="177.5" x2="177.5" y1="333.1094" y2="355.1094"/><polygon fill="#181818" points="173.5,345.1094,177.5,355.1094,181.5,345.1094,177.5,349.1094" style="stroke:#181818;stroke-width:1.0;"/><line style="stroke:#181818;stroke-width:1.0;" x1="320.75" x2="368" y1="333.1094" y2="333.1094"/><line style="stroke:#181818;stroke-width:1.0;" x1="368" x2="368" y1="333.1094" y2="355.1094"/><polygon fill="#181818" points="364,345.1094,368,355.1094,372,345.1094,368,349.1094" style="stroke:#181818;stroke-width:1.0;"/><line style="stroke:#181818;stroke-width:1.0;" x1="177.5" x2="177.5" y1="500.3906" y2="505.3906"/><line style="stroke:#181818;stroke-width:1.0;" x1="177.5" x2="272.75" y1="505.3906" y2="505.3906"/><line style="stroke:#181818;stroke-width:1.0;" x1="272.75" x2="272.75" y1="505.3906" y2="560"/><polygon fill="#181818" points="268.75,550,272.75,560,276.75,550,272.75,554" style="stroke:#181818;stroke-width:1.0;"/><line style="stroke:#181818;stroke-width:1.0;" x1="272.75" x2="272.75" y1="261.5" y2="321.1094"/><polygon fill="#181818" points="268.75,311.1094,272.75,321.1094,276.75,311.1094,272.75,315.1094" style="stroke:#181818;stroke-width:1.0;"/><line style="stroke:#181818;stroke-width:1.0;" x1="272.75" x2="272.75" y1="595.0938" y2="615.0938"/><polygon fill="#181818" points="268.75,605.0938,272.75,615.0938,276.75,605.0938,272.75,609.0938" style="stroke:#181818;stroke-width:1.0;"/><line style="stroke:#181818;stroke-width:1.0;" x1="272.75" x2="272.75" y1="650.1875" y2="670.1875"/><polygon fill="#181818" points="268.75,660.1875,272.75,670.1875,276.75,660.1875,272.75,664.1875" style="stroke:#181818;stroke-width:1.0;"/><line style="stroke:#181818;stroke-width:1.0;" x1="272.75" x2="272.75" y1="799.9844" y2="819.9844"/><polygon fill="#181818" points="268.75,809.9844,272.75,819.9844,276.75,809.9844,272.75,813.9844" style="stroke:#181818;stroke-width:1.0;"/><line style="stroke:#181818;stroke-width:1.0;" x1="101.375" x2="89.625" y1="921.0781" y2="921.0781"/><line style="stroke:#181818;stroke-width:1.0;" x1="89.625" x2="89.625" y1="921.0781" y2="943.0781"/><polygon fill="#181818" points="85.625,933.0781,89.625,943.0781,93.625,933.0781,89.625,937.0781" style="stroke:#181818;stroke-width:1.0;"/><line style="stroke:#181818;stroke-width:1.0;" x1="210.375" x2="222.125" y1="921.0781" y2="921.0781"/><line style="stroke:#181818;stroke-width:1.0;" x1="222.125" x2="222.125" y1="921.0781" y2="943.0781"/><polygon fill="#181818" points="218.125,933.0781,222.125,943.0781,226.125,933.0781,222.125,937.0781" style="stroke:#181818;stroke-width:1.0;"/><line style="stroke:#181818;stroke-width:1.0;" x1="89.625" x2="89.625" y1="978.1719" y2="996.1719"/><line style="stroke:#181818;stroke-width:1.0;" x1="89.625" x2="143.875" y1="996.1719" y2="996.1719"/><polygon fill="#181818" points="133.875,992.1719,143.875,996.1719,133.875,1000.1719,137.875,996.1719" style="stroke:#181818;stroke-width:1.0;"/><line style="stroke:#181818;stroke-width:1.0;" x1="222.125" x2="222.125" y1="978.1719" y2="996.1719"/><line style="stroke:#181818;stroke-width:1.0;" x1="222.125" x2="167.875" y1="996.1719" y2="996.1719"/><polygon fill="#181818" points="177.875,992.1719,167.875,996.1719,177.875,1000.1719,173.875,996.1719" style="stroke:#181818;stroke-width:1.0;"/><line style="stroke:#181818;stroke-width:1.0;" x1="155.875" x2="155.875" y1="1008.1719" y2="1028.1719"/><polygon fill="#181818" points="151.875,1018.1719,155.875,1028.1719,159.875,1018.1719,155.875,1022.1719" style="stroke:#181818;stroke-width:1.0;"/><line style="stroke:#181818;stroke-width:1.0;" x1="231.75" x2="155.875" y1="887.0781" y2="887.0781"/><line style="stroke:#181818;stroke-width:1.0;" x1="155.875" x2="155.875" y1="887.0781" y2="909.0781"/><polygon fill="#181818" points="151.875,899.0781,155.875,909.0781,159.875,899.0781,155.875,903.0781" style="stroke:#181818;stroke-width:1.0;"/><line style="stroke:#181818;stroke-width:1.0;" x1="313.75" x2="389.625" y1="887.0781" y2="887.0781"/><line style="stroke:#181818;stroke-width:1.0;" x1="389.625" x2="389.625" y1="887.0781" y2="909.0781"/><polygon fill="#181818" points="385.625,899.0781,389.625,909.0781,393.625,899.0781,389.625,903.0781" style="stroke:#181818;stroke-width:1.0;"/><line style="stroke:#181818;stroke-width:1.0;" x1="155.875" x2="155.875" y1="1063.2656" y2="1081.2656"/><line style="stroke:#181818;stroke-width:1.0;" x1="155.875" x2="260.75" y1="1081.2656" y2="1081.2656"/><polygon fill="#181818" points="250.75,1077.2656,260.75,1081.2656,250.75,1085.2656,254.75,1081.2656" style="stroke:#181818;stroke-width:1.0;"/><line style="stroke:#181818;stroke-width:1.0;" x1="389.625" x2="389.625" y1="944.1719" y2="1081.2656"/><line style="stroke:#181818;stroke-width:1.0;" x1="389.625" x2="284.75" y1="1081.2656" y2="1081.2656"/><polygon fill="#181818" points="294.75,1077.2656,284.75,1081.2656,294.75,1085.2656,290.75,1081.2656" style="stroke:#181818;stroke-width:1.0;"/><line style="stroke:#181818;stroke-width:1.0;" x1="272.75" x2="272.75" y1="855.0781" y2="875.0781"/><polygon fill="#181818" points="268.75,865.0781,272.75,875.0781,276.75,865.0781,272.75,869.0781" style="stroke:#181818;stroke-width:1.0;"/><line style="stroke:#181818;stroke-width:1.0;" x1="272.75" x2="272.75" y1="1093.2656" y2="1113.2656"/><polygon fill="#181818" points="268.75,1103.2656,272.75,1113.2656,276.75,1103.2656,272.75,1107.2656" style="stroke:#181818;stroke-width:1.0;"/><line style="stroke:#181818;stroke-width:1.0;" x1="272.75" x2="272.75" y1="705.2813" y2="764.8906"/><polygon fill="#181818" points="268.75,754.8906,272.75,764.8906,276.75,754.8906,272.75,758.8906" style="stroke:#181818;stroke-width:1.0;"/><line style="stroke:#181818;stroke-width:1.0;" x1="272.75" x2="272.75" y1="1258.1563" y2="1278.1563"/><polygon fill="#181818" points="268.75,1268.1563,272.75,1278.1563,276.75,1268.1563,272.75,1272.1563" style="stroke:#181818;stroke-width:1.0;"/><line style="stroke:#181818;stroke-width:1.0;" x1="164" x2="164" y1="1402.3438" y2="1422.3438"/><polygon fill="#181818" points="160,1412.3438,164,1422.3438,168,1412.3438,164,1416.3438" style="stroke:#181818;stroke-width:1.0;"/><line style="stroke:#181818;stroke-width:1.0;" x1="218.25" x2="164" y1="1345.25" y2="1345.25"/><line style="stroke:#181818;stroke-width:1.0;" x1="164" x2="164" y1="1345.25" y2="1367.25"/><polygon fill="#181818" points="160,1357.25,164,1367.25,168,1357.25,164,1361.25" style="stroke:#181818;stroke-width:1.0;"/><line style="stroke:#181818;stroke-width:1.0;" x1="327.25" x2="381.5" y1="1345.25" y2="1345.25"/><line style="stroke:#181818;stroke-width:1.0;" x1="381.5" x2="381.5" y1="1345.25" y2="1367.25"/><polygon fill="#181818" points="377.5,1357.25,381.5,1367.25,385.5,1357.25,381.5,1361.25" style="stroke:#181818;stroke-width:1.0;"/><line style="stroke:#181818;stroke-width:1.0;" x1="164" x2="164" y1="1457.4375" y2="1475.4375"/><line style="stroke:#181818;stroke-width:1.0;" x1="164" x2="260.75" y1="1475.4375" y2="1475.4375"/><polygon fill="#181818" points="250.75,1471.4375,260.75,1475.4375,250.75,1479.4375,254.75,1475.4375" style="stroke:#181818;stroke-width:1.0;"/><line style="stroke:#181818;stroke-width:1.0;" x1="381.5" x2="381.5" y1="1402.3438" y2="1475.4375"/><line style="stroke:#181818;stroke-width:1.0;" x1="381.5" x2="284.75" y1="1475.4375" y2="1475.4375"/><polygon fill="#181818" points="294.75,1471.4375,284.75,1475.4375,294.75,1479.4375,290.75,1475.4375" style="stroke:#181818;stroke-width:1.0;"/><line style="stroke:#181818;stroke-width:1.0;" x1="272.75" x2="272.75" y1="1313.25" y2="1333.25"/><polygon fill="#181818" points="268.75,1323.25,272.75,1333.25,276.75,1323.25,272.75,1327.25" style="stroke:#181818;stroke-width:1.0;"/><line style="stroke:#181818;stroke-width:1.0;" x1="272.75" x2="272.75" y1="1163.4531" y2="1223.0625"/><polygon fill="#181818" points="268.75,1213.0625,272.75,1223.0625,276.75,1213.0625,272.75,1217.0625" style="stroke:#181818;stroke-width:1.0;"/><line style="stroke:#181818;stroke-width:1.0;" x1="180.25" x2="180.25" y1="1616.1406" y2="1636.1406"/><polygon fill="#181818" points="176.25,1626.1406,180.25,1636.1406,184.25,1626.1406,180.25,1630.1406" style="stroke:#181818;stroke-width:1.0;"/><line style="stroke:#181818;stroke-width:1.0;" x1="190.25" x2="180.25" y1="1559.0469" y2="1559.0469"/><line style="stroke:#181818;stroke-width:1.0;" x1="180.25" x2="180.25" y1="1559.0469" y2="1581.0469"/><polygon fill="#181818" points="176.25,1571.0469,180.25,1581.0469,184.25,1571.0469,180.25,1575.0469" style="stroke:#181818;stroke-width:1.0;"/><line style="stroke:#181818;stroke-width:1.0;" x1="355.25" x2="365.25" y1="1559.0469" y2="1559.0469"/><line style="stroke:#181818;stroke-width:1.0;" x1="365.25" x2="365.25" y1="1559.0469" y2="1581.0469"/><polygon fill="#181818" points="361.25,1571.0469,365.25,1581.0469,369.25,1571.0469,365.25,1575.0469" style="stroke:#181818;stroke-width:1.0;"/><line style="stroke:#181818;stroke-width:1.0;" x1="180.25" x2="180.25" y1="1671.2344" y2="1689.2344"/><line style="stroke:#181818;stroke-width:1.0;" x1="180.25" x2="260.75" y1="1689.2344" y2="1689.2344"/><polygon fill="#181818" points="250.75,1685.2344,260.75,1689.2344,250.75,1693.2344,254.75,1689.2344" style="stroke:#181818;stroke-width:1.0;"/><line style="stroke:#181818;stroke-width:1.0;" x1="365.25" x2="365.25" y1="1616.1406" y2="1689.2344"/><line style="stroke:#181818;stroke-width:1.0;" x1="365.25" x2="284.75" y1="1689.2344" y2="1689.2344"/><polygon fill="#181818" points="294.75,1685.2344,284.75,1689.2344,294.75,1693.2344,290.75,1689.2344" style="stroke:#181818;stroke-width:1.0;"/><line style="stroke:#181818;stroke-width:1.0;" x1="272.75" x2="272.75" y1="1487.4375" y2="1547.0469"/><polygon fill="#181818" points="268.75,1537.0469,272.75,1547.0469,276.75,1537.0469,272.75,1541.0469" style="stroke:#181818;stroke-width:1.0;"/><line style="stroke:#181818;stroke-width:1.0;" x1="272.75" x2="272.75" y1="1701.2344" y2="1733.2344"/><polygon fill="#181818" points="268.75,1723.2344,272.75,1733.2344,276.75,1723.2344,272.75,1727.2344" style="stroke:#181818;stroke-width:1.0;"/><line style="stroke:#181818;stroke-width:1.0;" x1="272.75" x2="272.75" y1="1768.3281" y2="1788.3281"/><polygon fill="#181818" points="268.75,1778.3281,272.75,1788.3281,276.75,1778.3281,272.75,1782.3281" style="stroke:#181818;stroke-width:1.0;"/><!--SRC=[VLJBRjim4BphAnOv53RGG2dGKmoZI6GvLk7u4SaDUcIejKsK9bMI2c84_lUkNdxAzKacTsTtPfRhX9C8WTvic4fXB9R8jvnEEe_COWfQmGDtEPCGRJA96rIEEQ5Lr_EiOyPvzmkB1XpBB4md_dGuXBVSEQrwdfVHlIY2uUOXo-0MOgGIB_WtH-jkuDC3-jq71fdRTr3VzggxsJHEm6UPy5Dy5noj_odIdK-8se2lbykUjpkfyyZudwB8BVnYKgG5y1SuhL0KBj754Zg34ZPAuRq8_z45jqO5dTzeksLCIuVG8U8kj_rPE1b4awTkxn0PitS4f-5v6y_7H-S1an8iDHPevOoMDLIdpaLfIV29FghvWYut2aP9CeFlTtS7BEjqLYMfL2olqf_bRrBODJpFasGlzMCkP5eUGSQsKhCKFddLIfH-XVfpLuk_o4hzAhRGXpYS98qlDJfHfNO4XnDxU4KIEdCTmxVkkKULvjHZ-84yTxWtX4Xp5AHW0x11QzaAcwBCa4m_u-caTp2m-Djctbwl8gWc1lq-pMYxoMM5LAo4O_BL2E8zYfv61zalBRhC64zVZn9AUmw6pWoI1WZn8WZ2E0Q3DjFAOisbPGIQZE53D0u7Hmbdy7itcWZofBneCyK_m5mRdH59HGlWfGwyjASSeDDsQdFggJhoftaq-26iirSUsFca1TFdsJXCY3Gzyuh-_nzPYtfZlQBiRCqKRR4sxNOj2seHGTNBoP8eDvp19Q6iqO9FtxU6GD1S8_GK9Y09nhhQX98RzYueKq76kJQfK2kvlKg6mWnkc50MSiM9qmhJCoxtZT9oly9fx6bb5sNBfV4F]--></g></svg>