<?xml version="1.0" encoding="us-ascii" standalone="no"?><svg xmlns="http://www.w3.org/2000/svg" xmlns:xlink="http://www.w3.org/1999/xlink" contentStyleType="text/css" height="1512px" preserveAspectRatio="none" style="width:735px;height:1512px;background:#FFFFFF;" version="1.1" viewBox="0 0 735 1512" width="735px" zoomAndPan="magnify"><defs/><g><text fill="#000000" font-family="sans-serif" font-size="14" font-weight="bold" lengthAdjust="spacing" textLength="483" x="122" y="29.5332">Device Bootstrap &amp; MQTT Initialization (Based on Actual ESP32 Code)</text><rect fill="none" height="48.7031" style="stroke:#000000;stroke-width:1.5;" width="349" x="20" y="342.3281"/><rect fill="none" height="107.8906" style="stroke:#000000;stroke-width:1.5;" width="556" x="20" y="628.1406"/><rect fill="none" height="276.6484" style="stroke:#000000;stroke-width:1.5;" width="576" x="10" y="960.1406"/><rect fill="none" height="48.7031" style="stroke:#000000;stroke-width:1.5;" width="556" x="20" y="985.4922"/><rect fill="none" height="151.2422" style="stroke:#000000;stroke-width:1.5;" width="556" x="20" y="1078.5469"/><line style="stroke:#181818;stroke-width:0.5;stroke-dasharray:5.0,5.0;" x1="82" x2="82" y1="76.2188" y2="1475.8984"/><line style="stroke:#181818;stroke-width:0.5;stroke-dasharray:5.0,5.0;" x1="311" x2="311" y1="76.2188" y2="1475.8984"/><line style="stroke:#181818;stroke-width:0.5;stroke-dasharray:5.0,5.0;" x1="412" x2="412" y1="76.2188" y2="1475.8984"/><line style="stroke:#181818;stroke-width:0.5;stroke-dasharray:5.0,5.0;" x1="516" x2="516" y1="76.2188" y2="1475.8984"/><line style="stroke:#181818;stroke-width:0.5;stroke-dasharray:5.0,5.0;" x1="649" x2="649" y1="76.2188" y2="1475.8984"/><rect fill="#E2E2F0" height="31.6094" rx="2.5" ry="2.5" style="stroke:#181818;stroke-width:0.5;" width="104" x="30" y="43.6094"/><text fill="#000000" font-family="sans-serif" font-size="14" lengthAdjust="spacing" textLength="90" x="37" y="65.1426">ESP32 Device</text><rect fill="#E2E2F0" height="31.6094" rx="2.5" ry="2.5" style="stroke:#181818;stroke-width:0.5;" width="104" x="30" y="1474.8984"/><text fill="#000000" font-family="sans-serif" font-size="14" lengthAdjust="spacing" textLength="90" x="37" y="1496.4316">ESP32 Device</text><rect fill="#E2E2F0" height="31.6094" rx="2.5" ry="2.5" style="stroke:#181818;stroke-width:0.5;" width="96" x="263" y="43.6094"/><text fill="#000000" font-family="sans-serif" font-size="14" lengthAdjust="spacing" textLength="82" x="270" y="65.1426">WiFi Network</text><rect fill="#E2E2F0" height="31.6094" rx="2.5" ry="2.5" style="stroke:#181818;stroke-width:0.5;" width="96" x="263" y="1474.8984"/><text fill="#000000" font-family="sans-serif" font-size="14" lengthAdjust="spacing" textLength="82" x="270" y="1496.4316">WiFi Network</text><rect fill="#E2E2F0" height="31.6094" rx="2.5" ry="2.5" style="stroke:#181818;stroke-width:0.5;" width="87" x="369" y="43.6094"/><text fill="#000000" font-family="sans-serif" font-size="14" lengthAdjust="spacing" textLength="73" x="376" y="65.1426">NTP Server</text><rect fill="#E2E2F0" height="31.6094" rx="2.5" ry="2.5" style="stroke:#181818;stroke-width:0.5;" width="87" x="369" y="1474.8984"/><text fill="#000000" font-family="sans-serif" font-size="14" lengthAdjust="spacing" textLength="73" x="376" y="1496.4316">NTP Server</text><rect fill="#E2E2F0" height="31.6094" rx="2.5" ry="2.5" style="stroke:#181818;stroke-width:0.5;" width="100" x="466" y="43.6094"/><text fill="#000000" font-family="sans-serif" font-size="14" lengthAdjust="spacing" textLength="86" x="473" y="65.1426">MQTT Broker</text><rect fill="#E2E2F0" height="31.6094" rx="2.5" ry="2.5" style="stroke:#181818;stroke-width:0.5;" width="100" x="466" y="1474.8984"/><text fill="#000000" font-family="sans-serif" font-size="14" lengthAdjust="spacing" textLength="86" x="473" y="1496.4316">MQTT Broker</text><rect fill="#E2E2F0" height="31.6094" rx="2.5" ry="2.5" style="stroke:#181818;stroke-width:0.5;" width="147" x="576" y="43.6094"/><text fill="#000000" font-family="sans-serif" font-size="14" lengthAdjust="spacing" textLength="133" x="583" y="65.1426">Spring Boot Backend</text><rect fill="#E2E2F0" height="31.6094" rx="2.5" ry="2.5" style="stroke:#181818;stroke-width:0.5;" width="147" x="576" y="1474.8984"/><text fill="#000000" font-family="sans-serif" font-size="14" lengthAdjust="spacing" textLength="133" x="583" y="1496.4316">Spring Boot Backend</text><rect fill="#EEEEEE" height="3" style="stroke:#EEEEEE;stroke-width:1.0;" width="728" x="0" y="107.3945"/><line style="stroke:#000000;stroke-width:1.0;" x1="0" x2="728" y1="107.3945" y2="107.3945"/><line style="stroke:#000000;stroke-width:1.0;" x1="0" x2="728" y1="110.3945" y2="110.3945"/><rect fill="#EEEEEE" height="24.3516" style="stroke:#000000;stroke-width:2.0;" width="47" x="340.5" y="96.2188"/><text fill="#000000" font-family="sans-serif" font-size="13" font-weight="bold" lengthAdjust="spacing" textLength="29" x="346.5" y="113.7139">Boot</text><line style="stroke:#181818;stroke-width:1.0;" x1="82" x2="124" y1="152.9219" y2="152.9219"/><line style="stroke:#181818;stroke-width:1.0;" x1="124" x2="124" y1="152.9219" y2="165.9219"/><line style="stroke:#181818;stroke-width:1.0;" x1="83" x2="124" y1="165.9219" y2="165.9219"/><polygon fill="#181818" points="93,161.9219,83,165.9219,93,169.9219,89,165.9219" style="stroke:#181818;stroke-width:1.0;"/><text fill="#000000" font-family="sans-serif" font-size="13" font-weight="bold" lengthAdjust="spacing" textLength="7" x="89" y="148.0654">1</text><text fill="#000000" font-family="sans-serif" font-size="13" lengthAdjust="spacing" textLength="76" x="100" y="148.0654">Serial.begin()</text><line style="stroke:#181818;stroke-width:1.0;" x1="82" x2="124" y1="196.2734" y2="196.2734"/><line style="stroke:#181818;stroke-width:1.0;" x1="124" x2="124" y1="196.2734" y2="209.2734"/><line style="stroke:#181818;stroke-width:1.0;" x1="83" x2="124" y1="209.2734" y2="209.2734"/><polygon fill="#181818" points="93,205.2734,83,209.2734,93,213.2734,89,209.2734" style="stroke:#181818;stroke-width:1.0;"/><text fill="#000000" font-family="sans-serif" font-size="13" font-weight="bold" lengthAdjust="spacing" textLength="7" x="89" y="191.417">2</text><text fill="#000000" font-family="sans-serif" font-size="13" lengthAdjust="spacing" textLength="81" x="100" y="191.417">randomSeed()</text><line style="stroke:#181818;stroke-width:1.0;" x1="82" x2="124" y1="239.625" y2="239.625"/><line style="stroke:#181818;stroke-width:1.0;" x1="124" x2="124" y1="239.625" y2="252.625"/><line style="stroke:#181818;stroke-width:1.0;" x1="83" x2="124" y1="252.625" y2="252.625"/><polygon fill="#181818" points="93,248.625,83,252.625,93,256.625,89,252.625" style="stroke:#181818;stroke-width:1.0;"/><text fill="#000000" font-family="sans-serif" font-size="13" font-weight="bold" lengthAdjust="spacing" textLength="7" x="89" y="234.7686">3</text><text fill="#000000" font-family="sans-serif" font-size="13" lengthAdjust="spacing" textLength="126" x="100" y="234.7686">Load WiFi credentials</text><rect fill="#EEEEEE" height="3" style="stroke:#EEEEEE;stroke-width:1.0;" width="728" x="0" y="281.8008"/><line style="stroke:#000000;stroke-width:1.0;" x1="0" x2="728" y1="281.8008" y2="281.8008"/><line style="stroke:#000000;stroke-width:1.0;" x1="0" x2="728" y1="284.8008" y2="284.8008"/><rect fill="#EEEEEE" height="24.3516" style="stroke:#000000;stroke-width:2.0;" width="123" x="302.5" y="270.625"/><text fill="#000000" font-family="sans-serif" font-size="13" font-weight="bold" lengthAdjust="spacing" textLength="105" x="308.5" y="288.1201">WiFi Connection</text><polygon fill="#181818" points="299,323.3281,309,327.3281,299,331.3281,303,327.3281" style="stroke:#181818;stroke-width:1.0;"/><line style="stroke:#181818;stroke-width:1.0;" x1="82" x2="305" y1="327.3281" y2="327.3281"/><text fill="#000000" font-family="sans-serif" font-size="13" font-weight="bold" lengthAdjust="spacing" textLength="7" x="89" y="322.4717">4</text><text fill="#000000" font-family="sans-serif" font-size="13" lengthAdjust="spacing" textLength="157" x="100" y="322.4717">WiFi.begin(ssid, password)</text><path d="M20,342.3281 L93,342.3281 L93,350.6797 L83,360.6797 L20,360.6797 L20,342.3281 " fill="#EEEEEE" style="stroke:#000000;stroke-width:1.5;"/><rect fill="none" height="48.7031" style="stroke:#000000;stroke-width:1.5;" width="349" x="20" y="342.3281"/><text fill="#000000" font-family="sans-serif" font-size="13" font-weight="bold" lengthAdjust="spacing" textLength="28" x="35" y="356.8232">loop</text><text fill="#000000" font-family="sans-serif" font-size="11" font-weight="bold" lengthAdjust="spacing" textLength="122" x="108" y="355.7471">[Until WL_CONNECTED]</text><line style="stroke:#181818;stroke-width:1.0;" x1="83" x2="93" y1="383.0313" y2="379.0313"/><line style="stroke:#181818;stroke-width:1.0;" x1="83" x2="93" y1="383.0313" y2="387.0313"/><line style="stroke:#181818;stroke-width:1.0;stroke-dasharray:2.0,2.0;" x1="82" x2="310" y1="383.0313" y2="383.0313"/><text fill="#000000" font-family="sans-serif" font-size="13" font-weight="bold" lengthAdjust="spacing" textLength="7" x="99" y="378.1748">5</text><text fill="#000000" font-family="sans-serif" font-size="13" lengthAdjust="spacing" textLength="105" x="110" y="378.1748">Connection status</text><line style="stroke:#181818;stroke-width:1.0;" x1="82" x2="124" y1="420.3828" y2="420.3828"/><line style="stroke:#181818;stroke-width:1.0;" x1="124" x2="124" y1="420.3828" y2="433.3828"/><line style="stroke:#181818;stroke-width:1.0;" x1="83" x2="124" y1="433.3828" y2="433.3828"/><polygon fill="#181818" points="93,429.3828,83,433.3828,93,437.3828,89,433.3828" style="stroke:#181818;stroke-width:1.0;"/><text fill="#000000" font-family="sans-serif" font-size="13" font-weight="bold" lengthAdjust="spacing" textLength="7" x="89" y="415.5264">6</text><text fill="#000000" font-family="sans-serif" font-size="13" lengthAdjust="spacing" textLength="93" x="100" y="415.5264">Print IP address</text><rect fill="#EEEEEE" height="3" style="stroke:#EEEEEE;stroke-width:1.0;" width="728" x="0" y="462.5586"/><line style="stroke:#000000;stroke-width:1.0;" x1="0" x2="728" y1="462.5586" y2="462.5586"/><line style="stroke:#000000;stroke-width:1.0;" x1="0" x2="728" y1="465.5586" y2="465.5586"/><rect fill="#EEEEEE" height="24.3516" style="stroke:#000000;stroke-width:2.0;" width="85" x="321.5" y="451.3828"/><text fill="#000000" font-family="sans-serif" font-size="13" font-weight="bold" lengthAdjust="spacing" textLength="67" x="327.5" y="468.8779">NTP Setup</text><polygon fill="#181818" points="400.5,504.0859,410.5,508.0859,400.5,512.0859,404.5,508.0859" style="stroke:#181818;stroke-width:1.0;"/><line style="stroke:#181818;stroke-width:1.0;" x1="82" x2="406.5" y1="508.0859" y2="508.0859"/><text fill="#000000" font-family="sans-serif" font-size="13" font-weight="bold" lengthAdjust="spacing" textLength="7" x="89" y="503.2295">7</text><text fill="#000000" font-family="sans-serif" font-size="13" lengthAdjust="spacing" textLength="92" x="100" y="503.2295">Start NTP client</text><line style="stroke:#181818;stroke-width:1.0;" x1="83" x2="93" y1="538.4375" y2="534.4375"/><line style="stroke:#181818;stroke-width:1.0;" x1="83" x2="93" y1="538.4375" y2="542.4375"/><line style="stroke:#181818;stroke-width:1.0;stroke-dasharray:2.0,2.0;" x1="82" x2="411.5" y1="538.4375" y2="538.4375"/><text fill="#000000" font-family="sans-serif" font-size="13" font-weight="bold" lengthAdjust="spacing" textLength="7" x="99" y="533.5811">8</text><text fill="#000000" font-family="sans-serif" font-size="13" lengthAdjust="spacing" textLength="164" x="110" y="533.5811">Sync UTC time (on demand)</text><rect fill="#EEEEEE" height="3" style="stroke:#EEEEEE;stroke-width:1.0;" width="728" x="0" y="567.6133"/><line style="stroke:#000000;stroke-width:1.0;" x1="0" x2="728" y1="567.6133" y2="567.6133"/><line style="stroke:#000000;stroke-width:1.0;" x1="0" x2="728" y1="570.6133" y2="570.6133"/><rect fill="#EEEEEE" height="24.3516" style="stroke:#000000;stroke-width:2.0;" width="96" x="316" y="556.4375"/><text fill="#000000" font-family="sans-serif" font-size="13" font-weight="bold" lengthAdjust="spacing" textLength="78" x="322" y="573.9326">MQTT Setup</text><polygon fill="#181818" points="504,609.1406,514,613.1406,504,617.1406,508,613.1406" style="stroke:#181818;stroke-width:1.0;"/><line style="stroke:#181818;stroke-width:1.0;" x1="82" x2="510" y1="613.1406" y2="613.1406"/><text fill="#000000" font-family="sans-serif" font-size="13" font-weight="bold" lengthAdjust="spacing" textLength="7" x="89" y="608.2842">9</text><text fill="#000000" font-family="sans-serif" font-size="13" lengthAdjust="spacing" textLength="191" x="100" y="608.2842">CONNECT (client_id, user, pass)</text><path d="M20,628.1406 L81,628.1406 L81,636.4922 L71,646.4922 L20,646.4922 L20,628.1406 " fill="#EEEEEE" style="stroke:#000000;stroke-width:1.5;"/><rect fill="none" height="107.8906" style="stroke:#000000;stroke-width:1.5;" width="556" x="20" y="628.1406"/><text fill="#000000" font-family="sans-serif" font-size="13" font-weight="bold" lengthAdjust="spacing" textLength="16" x="35" y="642.6357">alt</text><text fill="#000000" font-family="sans-serif" font-size="11" font-weight="bold" lengthAdjust="spacing" textLength="68" x="96" y="641.5596">[Connected]</text><line style="stroke:#181818;stroke-width:1.0;" x1="83" x2="93" y1="668.8438" y2="664.8438"/><line style="stroke:#181818;stroke-width:1.0;" x1="83" x2="93" y1="668.8438" y2="672.8438"/><line style="stroke:#181818;stroke-width:1.0;stroke-dasharray:2.0,2.0;" x1="82" x2="515" y1="668.8438" y2="668.8438"/><text fill="#000000" font-family="sans-serif" font-size="13" font-weight="bold" lengthAdjust="spacing" textLength="14" x="99" y="663.9873">10</text><text fill="#000000" font-family="sans-serif" font-size="13" lengthAdjust="spacing" textLength="64" x="117" y="663.9873">CONNACK</text><line style="stroke:#000000;stroke-width:1.0;stroke-dasharray:2.0,2.0;" x1="20" x2="576" y1="677.8438" y2="677.8438"/><text fill="#000000" font-family="sans-serif" font-size="11" font-weight="bold" lengthAdjust="spacing" textLength="40" x="25" y="689.2627">[Failed]</text><line style="stroke:#181818;stroke-width:1.0;" x1="82" x2="124" y1="715.0313" y2="715.0313"/><line style="stroke:#181818;stroke-width:1.0;" x1="124" x2="124" y1="715.0313" y2="728.0313"/><line style="stroke:#181818;stroke-width:1.0;" x1="83" x2="124" y1="728.0313" y2="728.0313"/><polygon fill="#181818" points="93,724.0313,83,728.0313,93,732.0313,89,728.0313" style="stroke:#181818;stroke-width:1.0;"/><text fill="#000000" font-family="sans-serif" font-size="13" font-weight="bold" lengthAdjust="spacing" textLength="14" x="89" y="710.1748">11</text><text fill="#000000" font-family="sans-serif" font-size="13" lengthAdjust="spacing" textLength="197" x="107" y="710.1748">Wait 5s and retry (reconnect loop)</text><rect fill="#EEEEEE" height="3" style="stroke:#EEEEEE;stroke-width:1.0;" width="728" x="0" y="764.207"/><line style="stroke:#000000;stroke-width:1.0;" x1="0" x2="728" y1="764.207" y2="764.207"/><line style="stroke:#000000;stroke-width:1.0;" x1="0" x2="728" y1="767.207" y2="767.207"/><rect fill="#EEEEEE" height="24.3516" style="stroke:#000000;stroke-width:2.0;" width="136" x="296" y="753.0313"/><text fill="#000000" font-family="sans-serif" font-size="13" font-weight="bold" lengthAdjust="spacing" textLength="118" x="302" y="770.5264">Topic Subscription</text><polygon fill="#181818" points="504,805.7344,514,809.7344,504,813.7344,508,809.7344" style="stroke:#181818;stroke-width:1.0;"/><line style="stroke:#181818;stroke-width:1.0;" x1="82" x2="510" y1="809.7344" y2="809.7344"/><text fill="#000000" font-family="sans-serif" font-size="13" font-weight="bold" lengthAdjust="spacing" textLength="14" x="89" y="804.8779">12</text><text fill="#000000" font-family="sans-serif" font-size="13" lengthAdjust="spacing" textLength="150" x="107" y="804.8779">SUBSCRIBE control topic</text><line style="stroke:#181818;stroke-width:1.0;" x1="83" x2="93" y1="840.0859" y2="836.0859"/><line style="stroke:#181818;stroke-width:1.0;" x1="83" x2="93" y1="840.0859" y2="844.0859"/><line style="stroke:#181818;stroke-width:1.0;stroke-dasharray:2.0,2.0;" x1="82" x2="515" y1="840.0859" y2="840.0859"/><text fill="#000000" font-family="sans-serif" font-size="13" font-weight="bold" lengthAdjust="spacing" textLength="14" x="99" y="835.2295">13</text><text fill="#000000" font-family="sans-serif" font-size="13" lengthAdjust="spacing" textLength="54" x="117" y="835.2295">SUBACK</text><polygon fill="#181818" points="504,866.4375,514,870.4375,504,874.4375,508,870.4375" style="stroke:#181818;stroke-width:1.0;"/><line style="stroke:#181818;stroke-width:1.0;" x1="82" x2="510" y1="870.4375" y2="870.4375"/><text fill="#000000" font-family="sans-serif" font-size="13" font-weight="bold" lengthAdjust="spacing" textLength="14" x="89" y="865.5811">14</text><text fill="#000000" font-family="sans-serif" font-size="13" lengthAdjust="spacing" textLength="147" x="107" y="865.5811">SUBSCRIBE status topic</text><line style="stroke:#181818;stroke-width:1.0;" x1="83" x2="93" y1="900.7891" y2="896.7891"/><line style="stroke:#181818;stroke-width:1.0;" x1="83" x2="93" y1="900.7891" y2="904.7891"/><line style="stroke:#181818;stroke-width:1.0;stroke-dasharray:2.0,2.0;" x1="82" x2="515" y1="900.7891" y2="900.7891"/><text fill="#000000" font-family="sans-serif" font-size="13" font-weight="bold" lengthAdjust="spacing" textLength="14" x="99" y="895.9326">15</text><text fill="#000000" font-family="sans-serif" font-size="13" lengthAdjust="spacing" textLength="54" x="117" y="895.9326">SUBACK</text><rect fill="#EEEEEE" height="3" style="stroke:#EEEEEE;stroke-width:1.0;" width="728" x="0" y="929.9648"/><line style="stroke:#000000;stroke-width:1.0;" x1="0" x2="728" y1="929.9648" y2="929.9648"/><line style="stroke:#000000;stroke-width:1.0;" x1="0" x2="728" y1="932.9648" y2="932.9648"/><rect fill="#EEEEEE" height="24.3516" style="stroke:#000000;stroke-width:2.0;" width="131" x="298.5" y="918.7891"/><text fill="#000000" font-family="sans-serif" font-size="13" font-weight="bold" lengthAdjust="spacing" textLength="113" x="304.5" y="936.2842">Normal Operation</text><path d="M10,960.1406 L83,960.1406 L83,968.4922 L73,978.4922 L10,978.4922 L10,960.1406 " fill="#EEEEEE" style="stroke:#000000;stroke-width:1.5;"/><rect fill="none" height="276.6484" style="stroke:#000000;stroke-width:1.5;" width="576" x="10" y="960.1406"/><text fill="#000000" font-family="sans-serif" font-size="13" font-weight="bold" lengthAdjust="spacing" textLength="28" x="25" y="974.6357">loop</text><text fill="#000000" font-family="sans-serif" font-size="11" font-weight="bold" lengthAdjust="spacing" textLength="69" x="98" y="973.5596">[Main loop()]</text><path d="M20,985.4922 L81,985.4922 L81,993.8438 L71,1003.8438 L20,1003.8438 L20,985.4922 " fill="#EEEEEE" style="stroke:#000000;stroke-width:1.5;"/><rect fill="none" height="48.7031" style="stroke:#000000;stroke-width:1.5;" width="556" x="20" y="985.4922"/><text fill="#000000" font-family="sans-serif" font-size="13" font-weight="bold" lengthAdjust="spacing" textLength="16" x="35" y="999.9873">alt</text><text fill="#000000" font-family="sans-serif" font-size="11" font-weight="bold" lengthAdjust="spacing" textLength="118" x="96" y="998.9111">[MQTT disconnected]</text><polygon fill="#181818" points="504,1022.1953,514,1026.1953,504,1030.1953,508,1026.1953" style="stroke:#181818;stroke-width:1.0;"/><line style="stroke:#181818;stroke-width:1.0;" x1="82" x2="510" y1="1026.1953" y2="1026.1953"/><text fill="#000000" font-family="sans-serif" font-size="13" font-weight="bold" lengthAdjust="spacing" textLength="14" x="89" y="1021.3389">16</text><text fill="#000000" font-family="sans-serif" font-size="13" lengthAdjust="spacing" textLength="70" x="107" y="1021.3389">Reconnect()</text><polygon fill="#181818" points="504,1059.5469,514,1063.5469,504,1067.5469,508,1063.5469" style="stroke:#181818;stroke-width:1.0;"/><line style="stroke:#181818;stroke-width:1.0;" x1="82" x2="510" y1="1063.5469" y2="1063.5469"/><text fill="#000000" font-family="sans-serif" font-size="13" font-weight="bold" lengthAdjust="spacing" textLength="14" x="89" y="1058.6904">17</text><text fill="#000000" font-family="sans-serif" font-size="13" lengthAdjust="spacing" textLength="126" x="107" y="1058.6904">Keepalive (client.loop)</text><path d="M20,1078.5469 L81,1078.5469 L81,1086.8984 L71,1096.8984 L20,1096.8984 L20,1078.5469 " fill="#EEEEEE" style="stroke:#000000;stroke-width:1.5;"/><rect fill="none" height="151.2422" style="stroke:#000000;stroke-width:1.5;" width="556" x="20" y="1078.5469"/><text fill="#000000" font-family="sans-serif" font-size="13" font-weight="bold" lengthAdjust="spacing" textLength="16" x="35" y="1093.042">alt</text><text fill="#000000" font-family="sans-serif" font-size="11" font-weight="bold" lengthAdjust="spacing" textLength="195" x="96" y="1091.9658">[isActive == true (every 5 seconds)]</text><line style="stroke:#181818;stroke-width:1.0;" x1="82" x2="124" y1="1119.25" y2="1119.25"/><line style="stroke:#181818;stroke-width:1.0;" x1="124" x2="124" y1="1119.25" y2="1132.25"/><line style="stroke:#181818;stroke-width:1.0;" x1="83" x2="124" y1="1132.25" y2="1132.25"/><polygon fill="#181818" points="93,1128.25,83,1132.25,93,1136.25,89,1132.25" style="stroke:#181818;stroke-width:1.0;"/><text fill="#000000" font-family="sans-serif" font-size="13" font-weight="bold" lengthAdjust="spacing" textLength="14" x="89" y="1114.3936">18</text><text fill="#000000" font-family="sans-serif" font-size="13" lengthAdjust="spacing" textLength="125" x="107" y="1114.3936">Generate sensor data</text><polygon fill="#181818" points="504,1158.6016,514,1162.6016,504,1166.6016,508,1162.6016" style="stroke:#181818;stroke-width:1.0;"/><line style="stroke:#181818;stroke-width:1.0;" x1="82" x2="510" y1="1162.6016" y2="1162.6016"/><text fill="#000000" font-family="sans-serif" font-size="13" font-weight="bold" lengthAdjust="spacing" textLength="14" x="89" y="1157.7451">19</text><text fill="#000000" font-family="sans-serif" font-size="13" lengthAdjust="spacing" textLength="156" x="107" y="1157.7451">PUBLISH sensors/{id}/data</text><line style="stroke:#000000;stroke-width:1.0;stroke-dasharray:2.0,2.0;" x1="20" x2="576" y1="1171.6016" y2="1171.6016"/><text fill="#000000" font-family="sans-serif" font-size="11" font-weight="bold" lengthAdjust="spacing" textLength="97" x="25" y="1183.0205">[isActive == false]</text><line style="stroke:#181818;stroke-width:1.0;" x1="82" x2="124" y1="1208.7891" y2="1208.7891"/><line style="stroke:#181818;stroke-width:1.0;" x1="124" x2="124" y1="1208.7891" y2="1221.7891"/><line style="stroke:#181818;stroke-width:1.0;" x1="83" x2="124" y1="1221.7891" y2="1221.7891"/><polygon fill="#181818" points="93,1217.7891,83,1221.7891,93,1225.7891,89,1221.7891" style="stroke:#181818;stroke-width:1.0;"/><text fill="#000000" font-family="sans-serif" font-size="13" font-weight="bold" lengthAdjust="spacing" textLength="14" x="89" y="1203.9326">20</text><text fill="#000000" font-family="sans-serif" font-size="13" lengthAdjust="spacing" textLength="114" x="107" y="1203.9326">Skip sensor publish</text><rect fill="#EEEEEE" height="3" style="stroke:#EEEEEE;stroke-width:1.0;" width="728" x="0" y="1264.9648"/><line style="stroke:#000000;stroke-width:1.0;" x1="0" x2="728" y1="1264.9648" y2="1264.9648"/><line style="stroke:#000000;stroke-width:1.0;" x1="0" x2="728" y1="1267.9648" y2="1267.9648"/><rect fill="#EEEEEE" height="24.3516" style="stroke:#000000;stroke-width:2.0;" width="142" x="293" y="1253.7891"/><text fill="#000000" font-family="sans-serif" font-size="13" font-weight="bold" lengthAdjust="spacing" textLength="124" x="299" y="1271.2842">Incoming Messages</text><polygon fill="#181818" points="93,1306.4922,83,1310.4922,93,1314.4922,89,1310.4922" style="stroke:#181818;stroke-width:1.0;"/><line style="stroke:#181818;stroke-width:1.0;" x1="87" x2="515" y1="1310.4922" y2="1310.4922"/><text fill="#000000" font-family="sans-serif" font-size="13" font-weight="bold" lengthAdjust="spacing" textLength="14" x="99" y="1305.6357">21</text><text fill="#000000" font-family="sans-serif" font-size="13" lengthAdjust="spacing" textLength="138" x="117" y="1305.6357">Deliver control message</text><line style="stroke:#181818;stroke-width:1.0;" x1="82" x2="124" y1="1340.8438" y2="1340.8438"/><line style="stroke:#181818;stroke-width:1.0;" x1="124" x2="124" y1="1340.8438" y2="1353.8438"/><line style="stroke:#181818;stroke-width:1.0;" x1="83" x2="124" y1="1353.8438" y2="1353.8438"/><polygon fill="#181818" points="93,1349.8438,83,1353.8438,93,1357.8438,89,1353.8438" style="stroke:#181818;stroke-width:1.0;"/><text fill="#000000" font-family="sans-serif" font-size="13" font-weight="bold" lengthAdjust="spacing" textLength="14" x="89" y="1335.9873">22</text><text fill="#000000" font-family="sans-serif" font-size="13" lengthAdjust="spacing" textLength="72" x="107" y="1335.9873">Parse JSON</text><polygon fill="#181818" points="504,1380.1953,514,1384.1953,504,1388.1953,508,1384.1953" style="stroke:#181818;stroke-width:1.0;"/><line style="stroke:#181818;stroke-width:1.0;" x1="82" x2="510" y1="1384.1953" y2="1384.1953"/><text fill="#000000" font-family="sans-serif" font-size="13" font-weight="bold" lengthAdjust="spacing" textLength="14" x="89" y="1379.3389">23</text><text fill="#000000" font-family="sans-serif" font-size="13" lengthAdjust="spacing" textLength="230" x="107" y="1379.3389">PUBLISH control/response (SUCCESS)</text><polygon fill="#181818" points="93,1410.5469,83,1414.5469,93,1418.5469,89,1414.5469" style="stroke:#181818;stroke-width:1.0;"/><line style="stroke:#181818;stroke-width:1.0;" x1="87" x2="515" y1="1414.5469" y2="1414.5469"/><text fill="#000000" font-family="sans-serif" font-size="13" font-weight="bold" lengthAdjust="spacing" textLength="14" x="99" y="1409.6904">24</text><text fill="#000000" font-family="sans-serif" font-size="13" lengthAdjust="spacing" textLength="135" x="117" y="1409.6904">Deliver status message</text><line style="stroke:#181818;stroke-width:1.0;" x1="82" x2="124" y1="1444.8984" y2="1444.8984"/><line style="stroke:#181818;stroke-width:1.0;" x1="124" x2="124" y1="1444.8984" y2="1457.8984"/><line style="stroke:#181818;stroke-width:1.0;" x1="83" x2="124" y1="1457.8984" y2="1457.8984"/><polygon fill="#181818" points="93,1453.8984,83,1457.8984,93,1461.8984,89,1457.8984" style="stroke:#181818;stroke-width:1.0;"/><text fill="#000000" font-family="sans-serif" font-size="13" font-weight="bold" lengthAdjust="spacing" textLength="14" x="89" y="1440.042">25</text><text fill="#000000" font-family="sans-serif" font-size="13" lengthAdjust="spacing" textLength="114" x="107" y="1440.042">Update isActive flag</text><!--SRC=[ZPHHJzim4CVV_IbEUvWQQO2qYHUa8j5GjWue7Md58tBZexEQs9RjCB5fttrdEoa4GhK-L8xzzzt_VcVRIryXdEEZB14cMdldBJVm4Qv_B9SmKz9BNidVt4kjO3JX3WNGwApq3QzWMYo-V8PS2ymOCznwMKh3bOSFQIN5_G3SjSE-w4vUI9YZ_wNjDeh2H5yoNowWGFk8DWheixyURKwithQ2DEnh2cEbsiJgOCBBBIgHj6dC66-yLaszferiF4x2yPYn5il1QUl-95WX7eTht4WroWO4bYkXwm9H32vVQIvYbL1Q5AW2NSTYrZYRQwMmZB3x1iBgIVnlapidnISmt3cY9mX_fRM15KMiuExgFh-PpwVvSdhEW7unzi71wREH5ucSvxvnB99uwtX1x3pC5i25iEXQiwajlZ6lRD8yGV94FqhAIbADB0nxsOidLS9gcOENDSA8J0YiYLoMeiUc3eLFtINtgJeOfGJt0KNZq2OW6UELxof44GcadQyOK9Ip_99XvH0kkAnQxLi8TrnwE7P05i6YjqymibYc1130PmbVCB_KHfPGD6jNMca6MjaLKQmcHNuxcqo18dchA_1XAnkoIjhWT6-KrCV_218Rg6rD5_Z6eEKxZ_48NNEfOarqW2EE03DsH4XNzg3sONMERZio520e8fbXwIMYeUVb4RjE7YQOkxpIqKiJricojmtfa9w29pW65x88bmqOwUhzYYfKXwHLJbiGtFCzlXUhoTMi-DQgtT4VAVuUxVR4G_BIpWFTNDoJlTXAqsKspRgIxkSpZjrfcQbIr-5rkgQxnJVeOYEwxZr7EyU0oUwEIftaGnUMMtBwlRYPi_ThRCCSqOqsMf5-LApoV5eKsRxaxGbxF_VAYC1xX-cXuXls3m00]--></g></svg>