<?xml version="1.0" encoding="us-ascii" standalone="no"?><svg xmlns="http://www.w3.org/2000/svg" xmlns:xlink="http://www.w3.org/1999/xlink" contentStyleType="text/css" height="1341px" preserveAspectRatio="none" style="width:1582px;height:1341px;background:#FFFFFF;" version="1.1" viewBox="0 0 1582 1341" width="1582px" zoomAndPan="magnify"><defs/><g><text fill="#000000" font-family="sans-serif" font-size="14" font-weight="bold" lengthAdjust="spacing" textLength="426" x="574" y="29.5332">Authentication Flow (Based on Actual AuthenticationService)</text><rect fill="#FFFFFF" height="282.1641" style="stroke:#181818;stroke-width:1.0;" width="10" x="417.5" y="228.2734"/><rect fill="#FFFFFF" height="251.8125" style="stroke:#181818;stroke-width:1.0;" width="10" x="640.5" y="258.625"/><rect fill="#FFFFFF" height="91.0547" style="stroke:#181818;stroke-width:1.0;" width="10" x="879.5" y="333.3281"/><rect fill="#FFFFFF" height="30.3516" style="stroke:#181818;stroke-width:1.0;" width="10" x="1185.5" y="363.6797"/><rect fill="none" height="531" style="stroke:#000000;stroke-width:1.5;" width="1425" x="140" y="439.3828"/><rect fill="none" height="378.7578" style="stroke:#000000;stroke-width:1.5;" width="1405" x="150" y="584.625"/><line style="stroke:#181818;stroke-width:0.5;stroke-dasharray:5.0,5.0;" x1="22" x2="22" y1="121.2188" y2="1259.8438"/><line style="stroke:#181818;stroke-width:0.5;stroke-dasharray:5.0,5.0;" x1="221" x2="221" y1="121.2188" y2="1259.8438"/><line style="stroke:#181818;stroke-width:0.5;stroke-dasharray:5.0,5.0;" x1="422" x2="422" y1="121.2188" y2="1259.8438"/><line style="stroke:#181818;stroke-width:0.5;stroke-dasharray:5.0,5.0;" x1="645" x2="645" y1="121.2188" y2="1259.8438"/><line style="stroke:#181818;stroke-width:0.5;stroke-dasharray:5.0,5.0;" x1="884" x2="884" y1="121.2188" y2="1259.8438"/><line style="stroke:#181818;stroke-width:0.5;stroke-dasharray:5.0,5.0;" x1="1190.5" x2="1190.5" y1="121.2188" y2="1259.8438"/><line style="stroke:#181818;stroke-width:0.5;stroke-dasharray:5.0,5.0;" x1="1340.5" x2="1340.5" y1="121.2188" y2="1259.8438"/><line style="stroke:#181818;stroke-width:0.5;stroke-dasharray:5.0,5.0;" x1="1487.5" x2="1487.5" y1="121.2188" y2="1259.8438"/><text fill="#000000" font-family="sans-serif" font-size="14" lengthAdjust="spacing" textLength="29" x="5" y="118.1426">User</text><ellipse cx="22.5" cy="52.1094" fill="#E2E2F0" rx="8" ry="8" style="stroke:#181818;stroke-width:0.5;"/><path d="M22.5,60.1094 L22.5,87.1094 M9.5,68.1094 L35.5,68.1094 M22.5,87.1094 L9.5,102.1094 M22.5,87.1094 L35.5,102.1094 " fill="none" style="stroke:#181818;stroke-width:0.5;"/><text fill="#000000" font-family="sans-serif" font-size="14" lengthAdjust="spacing" textLength="29" x="5" y="1273.377">User</text><ellipse cx="22.5" cy="1284.9531" fill="#E2E2F0" rx="8" ry="8" style="stroke:#181818;stroke-width:0.5;"/><path d="M22.5,1292.9531 L22.5,1319.9531 M9.5,1300.9531 L35.5,1300.9531 M22.5,1319.9531 L9.5,1334.9531 M22.5,1319.9531 L35.5,1334.9531 " fill="none" style="stroke:#181818;stroke-width:0.5;"/><rect fill="#E2E2F0" height="31.6094" rx="2.5" ry="2.5" style="stroke:#181818;stroke-width:0.5;" width="123" x="160" y="88.6094"/><text fill="#000000" font-family="sans-serif" font-size="14" lengthAdjust="spacing" textLength="109" x="167" y="110.1426">React Native App</text><rect fill="#E2E2F0" height="31.6094" rx="2.5" ry="2.5" style="stroke:#181818;stroke-width:0.5;" width="123" x="160" y="1258.8438"/><text fill="#000000" font-family="sans-serif" font-size="14" lengthAdjust="spacing" textLength="109" x="167" y="1280.377">React Native App</text><rect fill="#E2E2F0" height="31.6094" rx="2.5" ry="2.5" style="stroke:#181818;stroke-width:0.5;" width="105" x="370" y="88.6094"/><text fill="#000000" font-family="sans-serif" font-size="14" lengthAdjust="spacing" textLength="91" x="377" y="110.1426">AuthController</text><rect fill="#E2E2F0" height="31.6094" rx="2.5" ry="2.5" style="stroke:#181818;stroke-width:0.5;" width="105" x="370" y="1258.8438"/><text fill="#000000" font-family="sans-serif" font-size="14" lengthAdjust="spacing" textLength="91" x="377" y="1280.377">AuthController</text><rect fill="#E2E2F0" height="31.6094" rx="2.5" ry="2.5" style="stroke:#181818;stroke-width:0.5;" width="151" x="570" y="88.6094"/><text fill="#000000" font-family="sans-serif" font-size="14" lengthAdjust="spacing" textLength="137" x="577" y="110.1426">AuthenticationService</text><rect fill="#E2E2F0" height="31.6094" rx="2.5" ry="2.5" style="stroke:#181818;stroke-width:0.5;" width="151" x="570" y="1258.8438"/><text fill="#000000" font-family="sans-serif" font-size="14" lengthAdjust="spacing" textLength="137" x="577" y="1280.377">AuthenticationService</text><rect fill="#E2E2F0" height="31.6094" rx="2.5" ry="2.5" style="stroke:#181818;stroke-width:0.5;" width="111" x="829" y="88.6094"/><text fill="#000000" font-family="sans-serif" font-size="14" lengthAdjust="spacing" textLength="97" x="836" y="110.1426">UserRepository</text><rect fill="#E2E2F0" height="31.6094" rx="2.5" ry="2.5" style="stroke:#181818;stroke-width:0.5;" width="111" x="829" y="1258.8438"/><text fill="#000000" font-family="sans-serif" font-size="14" lengthAdjust="spacing" textLength="97" x="836" y="1280.377">UserRepository</text><rect fill="#E2E2F0" height="31.6094" rx="2.5" ry="2.5" style="stroke:#181818;stroke-width:0.5;" width="110" x="1135.5" y="88.6094"/><text fill="#000000" font-family="sans-serif" font-size="14" lengthAdjust="spacing" textLength="96" x="1142.5" y="110.1426">MySQL (Users)</text><rect fill="#E2E2F0" height="31.6094" rx="2.5" ry="2.5" style="stroke:#181818;stroke-width:0.5;" width="110" x="1135.5" y="1258.8438"/><text fill="#000000" font-family="sans-serif" font-size="14" lengthAdjust="spacing" textLength="96" x="1142.5" y="1280.377">MySQL (Users)</text><rect fill="#E2E2F0" height="31.6094" rx="2.5" ry="2.5" style="stroke:#181818;stroke-width:0.5;" width="171" x="1255.5" y="88.6094"/><text fill="#000000" font-family="sans-serif" font-size="14" lengthAdjust="spacing" textLength="157" x="1262.5" y="110.1426">JWT Generator (Nimbus)</text><rect fill="#E2E2F0" height="31.6094" rx="2.5" ry="2.5" style="stroke:#181818;stroke-width:0.5;" width="171" x="1255.5" y="1258.8438"/><text fill="#000000" font-family="sans-serif" font-size="14" lengthAdjust="spacing" textLength="157" x="1262.5" y="1280.377">JWT Generator (Nimbus)</text><rect fill="#E2E2F0" height="31.6094" rx="2.5" ry="2.5" style="stroke:#181818;stroke-width:0.5;" width="102" x="1436.5" y="88.6094"/><text fill="#000000" font-family="sans-serif" font-size="14" lengthAdjust="spacing" textLength="88" x="1443.5" y="110.1426">AsyncStorage</text><rect fill="#E2E2F0" height="31.6094" rx="2.5" ry="2.5" style="stroke:#181818;stroke-width:0.5;" width="102" x="1436.5" y="1258.8438"/><text fill="#000000" font-family="sans-serif" font-size="14" lengthAdjust="spacing" textLength="88" x="1443.5" y="1280.377">AsyncStorage</text><rect fill="#FFFFFF" height="282.1641" style="stroke:#181818;stroke-width:1.0;" width="10" x="417.5" y="228.2734"/><rect fill="#FFFFFF" height="251.8125" style="stroke:#181818;stroke-width:1.0;" width="10" x="640.5" y="258.625"/><rect fill="#FFFFFF" height="91.0547" style="stroke:#181818;stroke-width:1.0;" width="10" x="879.5" y="333.3281"/><rect fill="#FFFFFF" height="30.3516" style="stroke:#181818;stroke-width:1.0;" width="10" x="1185.5" y="363.6797"/><rect fill="#EEEEEE" height="3" style="stroke:#EEEEEE;stroke-width:1.0;" width="1575" x="0" y="152.3945"/><line style="stroke:#000000;stroke-width:1.0;" x1="0" x2="1575" y1="152.3945" y2="152.3945"/><line style="stroke:#000000;stroke-width:1.0;" x1="0" x2="1575" y1="155.3945" y2="155.3945"/><rect fill="#EEEEEE" height="24.3516" style="stroke:#000000;stroke-width:2.0;" width="109" x="733" y="141.2188"/><text fill="#000000" font-family="sans-serif" font-size="13" font-weight="bold" lengthAdjust="spacing" textLength="91" x="739" y="158.7139">Login Request</text><polygon fill="#181818" points="209.5,193.9219,219.5,197.9219,209.5,201.9219,213.5,197.9219" style="stroke:#181818;stroke-width:1.0;"/><line style="stroke:#181818;stroke-width:1.0;" x1="22.5" x2="215.5" y1="197.9219" y2="197.9219"/><text fill="#000000" font-family="sans-serif" font-size="13" font-weight="bold" lengthAdjust="spacing" textLength="7" x="29.5" y="193.0654">1</text><text fill="#000000" font-family="sans-serif" font-size="13" lengthAdjust="spacing" textLength="164" x="40.5" y="193.0654">Enter username &amp; password</text><polygon fill="#181818" points="405.5,224.2734,415.5,228.2734,405.5,232.2734,409.5,228.2734" style="stroke:#181818;stroke-width:1.0;"/><line style="stroke:#181818;stroke-width:1.0;" x1="221.5" x2="411.5" y1="228.2734" y2="228.2734"/><text fill="#000000" font-family="sans-serif" font-size="13" font-weight="bold" lengthAdjust="spacing" textLength="7" x="228.5" y="223.417">2</text><text fill="#000000" font-family="sans-serif" font-size="13" lengthAdjust="spacing" textLength="166" x="239.5" y="223.417">POST /identity/api/auth/login</text><polygon fill="#181818" points="628.5,254.625,638.5,258.625,628.5,262.625,632.5,258.625" style="stroke:#181818;stroke-width:1.0;"/><line style="stroke:#181818;stroke-width:1.0;" x1="427.5" x2="634.5" y1="258.625" y2="258.625"/><text fill="#000000" font-family="sans-serif" font-size="13" font-weight="bold" lengthAdjust="spacing" textLength="7" x="434.5" y="253.7686">3</text><text fill="#000000" font-family="sans-serif" font-size="13" lengthAdjust="spacing" textLength="122" x="445.5" y="253.7686">authenticate(request)</text><rect fill="#EEEEEE" height="3" style="stroke:#EEEEEE;stroke-width:1.0;" width="1575" x="0" y="287.8008"/><line style="stroke:#000000;stroke-width:1.0;" x1="0" x2="1575" y1="287.8008" y2="287.8008"/><line style="stroke:#000000;stroke-width:1.0;" x1="0" x2="1575" y1="290.8008" y2="290.8008"/><rect fill="#EEEEEE" height="24.3516" style="stroke:#000000;stroke-width:2.0;" width="97" x="739" y="276.625"/><text fill="#000000" font-family="sans-serif" font-size="13" font-weight="bold" lengthAdjust="spacing" textLength="79" x="745" y="294.1201">User Lookup</text><polygon fill="#181818" points="867.5,329.3281,877.5,333.3281,867.5,337.3281,871.5,333.3281" style="stroke:#181818;stroke-width:1.0;"/><line style="stroke:#181818;stroke-width:1.0;" x1="650.5" x2="873.5" y1="333.3281" y2="333.3281"/><text fill="#000000" font-family="sans-serif" font-size="13" font-weight="bold" lengthAdjust="spacing" textLength="7" x="657.5" y="328.4717">4</text><text fill="#000000" font-family="sans-serif" font-size="13" lengthAdjust="spacing" textLength="160" x="668.5" y="328.4717">findByUsername(username)</text><polygon fill="#181818" points="1173.5,359.6797,1183.5,363.6797,1173.5,367.6797,1177.5,363.6797" style="stroke:#181818;stroke-width:1.0;"/><line style="stroke:#181818;stroke-width:1.0;" x1="889.5" x2="1179.5" y1="363.6797" y2="363.6797"/><text fill="#000000" font-family="sans-serif" font-size="13" font-weight="bold" lengthAdjust="spacing" textLength="7" x="896.5" y="358.8232">5</text><text fill="#000000" font-family="sans-serif" font-size="13" lengthAdjust="spacing" textLength="266" x="907.5" y="358.8232">SELECT * FROM users WHERE username=?</text><line style="stroke:#181818;stroke-width:1.0;" x1="890.5" x2="900.5" y1="394.0313" y2="390.0313"/><line style="stroke:#181818;stroke-width:1.0;" x1="890.5" x2="900.5" y1="394.0313" y2="398.0313"/><line style="stroke:#181818;stroke-width:1.0;stroke-dasharray:2.0,2.0;" x1="889.5" x2="1189.5" y1="394.0313" y2="394.0313"/><text fill="#000000" font-family="sans-serif" font-size="13" font-weight="bold" lengthAdjust="spacing" textLength="7" x="906.5" y="389.1748">6</text><text fill="#000000" font-family="sans-serif" font-size="13" lengthAdjust="spacing" textLength="63" x="917.5" y="389.1748">User entity</text><line style="stroke:#181818;stroke-width:1.0;" x1="651.5" x2="661.5" y1="424.3828" y2="420.3828"/><line style="stroke:#181818;stroke-width:1.0;" x1="651.5" x2="661.5" y1="424.3828" y2="428.3828"/><line style="stroke:#181818;stroke-width:1.0;stroke-dasharray:2.0,2.0;" x1="650.5" x2="883.5" y1="424.3828" y2="424.3828"/><text fill="#000000" font-family="sans-serif" font-size="13" font-weight="bold" lengthAdjust="spacing" textLength="7" x="667.5" y="419.5264">7</text><text fill="#000000" font-family="sans-serif" font-size="13" lengthAdjust="spacing" textLength="91" x="678.5" y="419.5264">Optional&lt;User&gt;</text><path d="M140,439.3828 L201,439.3828 L201,447.7344 L191,457.7344 L140,457.7344 L140,439.3828 " fill="#EEEEEE" style="stroke:#000000;stroke-width:1.5;"/><rect fill="none" height="531" style="stroke:#000000;stroke-width:1.5;" width="1425" x="140" y="439.3828"/><text fill="#000000" font-family="sans-serif" font-size="13" font-weight="bold" lengthAdjust="spacing" textLength="16" x="155" y="453.8779">alt</text><text fill="#000000" font-family="sans-serif" font-size="11" font-weight="bold" lengthAdjust="spacing" textLength="90" x="216" y="452.8018">[User not found]</text><polygon fill="#181818" points="438.5,476.0859,428.5,480.0859,438.5,484.0859,434.5,480.0859" style="stroke:#181818;stroke-width:1.0;"/><line style="stroke:#181818;stroke-width:1.0;" x1="432.5" x2="639.5" y1="480.0859" y2="480.0859"/><text fill="#000000" font-family="sans-serif" font-size="13" font-weight="bold" lengthAdjust="spacing" textLength="7" x="444.5" y="475.2295">8</text><text fill="#000000" font-family="sans-serif" font-size="13" lengthAdjust="spacing" textLength="177" x="455.5" y="475.2295">Throw USER_DID_NOT_EXIST</text><line style="stroke:#181818;stroke-width:1.0;" x1="222.5" x2="232.5" y1="510.4375" y2="506.4375"/><line style="stroke:#181818;stroke-width:1.0;" x1="222.5" x2="232.5" y1="510.4375" y2="514.4375"/><line style="stroke:#181818;stroke-width:1.0;stroke-dasharray:2.0,2.0;" x1="221.5" x2="421.5" y1="510.4375" y2="510.4375"/><text fill="#000000" font-family="sans-serif" font-size="13" font-weight="bold" lengthAdjust="spacing" textLength="7" x="238.5" y="505.5811">9</text><text fill="#000000" font-family="sans-serif" font-size="13" lengthAdjust="spacing" textLength="101" x="249.5" y="505.5811">401 Unauthorized</text><line style="stroke:#000000;stroke-width:1.0;stroke-dasharray:2.0,2.0;" x1="140" x2="1565" y1="519.4375" y2="519.4375"/><text fill="#000000" font-family="sans-serif" font-size="11" font-weight="bold" lengthAdjust="spacing" textLength="71" x="145" y="530.8564">[User exists]</text><line style="stroke:#181818;stroke-width:1.0;" x1="645.5" x2="687.5" y1="556.625" y2="556.625"/><line style="stroke:#181818;stroke-width:1.0;" x1="687.5" x2="687.5" y1="556.625" y2="569.625"/><line style="stroke:#181818;stroke-width:1.0;" x1="646.5" x2="687.5" y1="569.625" y2="569.625"/><polygon fill="#181818" points="656.5,565.625,646.5,569.625,656.5,573.625,652.5,569.625" style="stroke:#181818;stroke-width:1.0;"/><text fill="#000000" font-family="sans-serif" font-size="13" font-weight="bold" lengthAdjust="spacing" textLength="14" x="652.5" y="551.7686">10</text><text fill="#000000" font-family="sans-serif" font-size="13" lengthAdjust="spacing" textLength="207" x="670.5" y="551.7686">BCryptPasswordEncoder.matches()</text><path d="M150,584.625 L211,584.625 L211,592.9766 L201,602.9766 L150,602.9766 L150,584.625 " fill="#EEEEEE" style="stroke:#000000;stroke-width:1.5;"/><rect fill="none" height="378.7578" style="stroke:#000000;stroke-width:1.5;" width="1405" x="150" y="584.625"/><text fill="#000000" font-family="sans-serif" font-size="13" font-weight="bold" lengthAdjust="spacing" textLength="16" x="165" y="599.1201">alt</text><text fill="#000000" font-family="sans-serif" font-size="11" font-weight="bold" lengthAdjust="spacing" textLength="117" x="226" y="598.0439">[Password incorrect]</text><polygon fill="#181818" points="433.5,621.3281,423.5,625.3281,433.5,629.3281,429.5,625.3281" style="stroke:#181818;stroke-width:1.0;"/><line style="stroke:#181818;stroke-width:1.0;" x1="427.5" x2="644.5" y1="625.3281" y2="625.3281"/><text fill="#000000" font-family="sans-serif" font-size="13" font-weight="bold" lengthAdjust="spacing" textLength="14" x="439.5" y="620.4717">11</text><text fill="#000000" font-family="sans-serif" font-size="13" lengthAdjust="spacing" textLength="161" x="457.5" y="620.4717">Throw UNAUTHENTICATED</text><line style="stroke:#181818;stroke-width:1.0;" x1="222.5" x2="232.5" y1="655.6797" y2="651.6797"/><line style="stroke:#181818;stroke-width:1.0;" x1="222.5" x2="232.5" y1="655.6797" y2="659.6797"/><line style="stroke:#181818;stroke-width:1.0;stroke-dasharray:2.0,2.0;" x1="221.5" x2="421.5" y1="655.6797" y2="655.6797"/><text fill="#000000" font-family="sans-serif" font-size="13" font-weight="bold" lengthAdjust="spacing" textLength="14" x="238.5" y="650.8232">12</text><text fill="#000000" font-family="sans-serif" font-size="13" lengthAdjust="spacing" textLength="101" x="256.5" y="650.8232">401 Unauthorized</text><line style="stroke:#000000;stroke-width:1.0;stroke-dasharray:2.0,2.0;" x1="150" x2="1555" y1="664.6797" y2="664.6797"/><text fill="#000000" font-family="sans-serif" font-size="11" font-weight="bold" lengthAdjust="spacing" textLength="107" x="155" y="676.0986">[Password correct]</text><rect fill="#EEEEEE" height="3" style="stroke:#EEEEEE;stroke-width:1.0;" width="1575" x="0" y="700.6914"/><line style="stroke:#000000;stroke-width:1.0;" x1="0" x2="1575" y1="700.6914" y2="700.6914"/><line style="stroke:#000000;stroke-width:1.0;" x1="0" x2="1575" y1="703.6914" y2="703.6914"/><rect fill="#EEEEEE" height="24.3516" style="stroke:#000000;stroke-width:2.0;" width="104" x="735.5" y="689.5156"/><text fill="#000000" font-family="sans-serif" font-size="13" font-weight="bold" lengthAdjust="spacing" textLength="86" x="741.5" y="707.0107">JWT Creation</text><polygon fill="#181818" points="1329,786.0977,1339,790.0977,1329,794.0977,1333,790.0977" style="stroke:#181818;stroke-width:1.0;"/><line style="stroke:#181818;stroke-width:1.0;" x1="645.5" x2="1335" y1="790.0977" y2="790.0977"/><text fill="#000000" font-family="sans-serif" font-size="13" font-weight="bold" lengthAdjust="spacing" textLength="14" x="652.5" y="785.2412">13</text><text fill="#000000" font-family="sans-serif" font-size="13" lengthAdjust="spacing" textLength="119" x="670.5" y="785.2412">Build JWTClaimsSet</text><path d="M1346,728.8672 L1346,836.8672 L1540,836.8672 L1540,738.8672 L1530,728.8672 L1346,728.8672 " fill="#FEFFDD" style="stroke:#181818;stroke-width:0.5;"/><path d="M1530,728.8672 L1530,738.8672 L1540,738.8672 L1530,728.8672 " fill="#FEFFDD" style="stroke:#181818;stroke-width:0.5;"/><text fill="#000000" font-family="sans-serif" font-size="13" lengthAdjust="spacing" textLength="44" x="1352" y="747.3623">Claims:</text><text fill="#000000" font-family="sans-serif" font-size="13" lengthAdjust="spacing" textLength="102" x="1352" y="763.7139">- sub = username</text><text fill="#000000" font-family="sans-serif" font-size="13" lengthAdjust="spacing" textLength="90" x="1352" y="780.0654">- iss = IOT.com</text><text fill="#000000" font-family="sans-serif" font-size="13" lengthAdjust="spacing" textLength="61" x="1352" y="796.417">- iat = now</text><text fill="#000000" font-family="sans-serif" font-size="13" lengthAdjust="spacing" textLength="120" x="1352" y="812.7686">- exp = now + 1 hour</text><text fill="#000000" font-family="sans-serif" font-size="13" lengthAdjust="spacing" textLength="173" x="1352" y="829.1201">- scope = roles + permissions</text><polygon fill="#181818" points="1329,860.3281,1339,864.3281,1329,868.3281,1333,864.3281" style="stroke:#181818;stroke-width:1.0;"/><line style="stroke:#181818;stroke-width:1.0;" x1="645.5" x2="1335" y1="864.3281" y2="864.3281"/><text fill="#000000" font-family="sans-serif" font-size="13" font-weight="bold" lengthAdjust="spacing" textLength="14" x="652.5" y="859.4717">14</text><text fill="#000000" font-family="sans-serif" font-size="13" lengthAdjust="spacing" textLength="194" x="670.5" y="859.4717">Sign with HS512 (SECRET_KEY)</text><line style="stroke:#181818;stroke-width:1.0;" x1="646.5" x2="656.5" y1="894.6797" y2="890.6797"/><line style="stroke:#181818;stroke-width:1.0;" x1="646.5" x2="656.5" y1="894.6797" y2="898.6797"/><line style="stroke:#181818;stroke-width:1.0;stroke-dasharray:2.0,2.0;" x1="645.5" x2="1340" y1="894.6797" y2="894.6797"/><text fill="#000000" font-family="sans-serif" font-size="13" font-weight="bold" lengthAdjust="spacing" textLength="14" x="662.5" y="889.8232">15</text><text fill="#000000" font-family="sans-serif" font-size="13" lengthAdjust="spacing" textLength="93" x="680.5" y="889.8232">Serialized token</text><line style="stroke:#181818;stroke-width:1.0;" x1="423.5" x2="433.5" y1="925.0313" y2="921.0313"/><line style="stroke:#181818;stroke-width:1.0;" x1="423.5" x2="433.5" y1="925.0313" y2="929.0313"/><line style="stroke:#181818;stroke-width:1.0;stroke-dasharray:2.0,2.0;" x1="422.5" x2="644.5" y1="925.0313" y2="925.0313"/><text fill="#000000" font-family="sans-serif" font-size="13" font-weight="bold" lengthAdjust="spacing" textLength="14" x="439.5" y="920.1748">16</text><text fill="#000000" font-family="sans-serif" font-size="13" lengthAdjust="spacing" textLength="181" x="457.5" y="920.1748">AuthenticationResponse{token}</text><line style="stroke:#181818;stroke-width:1.0;" x1="222.5" x2="232.5" y1="955.3828" y2="951.3828"/><line style="stroke:#181818;stroke-width:1.0;" x1="222.5" x2="232.5" y1="955.3828" y2="959.3828"/><line style="stroke:#181818;stroke-width:1.0;stroke-dasharray:2.0,2.0;" x1="221.5" x2="421.5" y1="955.3828" y2="955.3828"/><text fill="#000000" font-family="sans-serif" font-size="13" font-weight="bold" lengthAdjust="spacing" textLength="14" x="238.5" y="950.5264">17</text><text fill="#000000" font-family="sans-serif" font-size="13" lengthAdjust="spacing" textLength="88" x="256.5" y="950.5264">200 OK {token}</text><rect fill="#EEEEEE" height="3" style="stroke:#EEEEEE;stroke-width:1.0;" width="1575" x="0" y="998.5586"/><line style="stroke:#000000;stroke-width:1.0;" x1="0" x2="1575" y1="998.5586" y2="998.5586"/><line style="stroke:#000000;stroke-width:1.0;" x1="0" x2="1575" y1="1001.5586" y2="1001.5586"/><rect fill="#EEEEEE" height="24.3516" style="stroke:#000000;stroke-width:2.0;" width="111" x="732" y="987.3828"/><text fill="#000000" font-family="sans-serif" font-size="13" font-weight="bold" lengthAdjust="spacing" textLength="93" x="738" y="1004.8779">Token Storage</text><polygon fill="#181818" points="1475.5,1040.0859,1485.5,1044.0859,1475.5,1048.0859,1479.5,1044.0859" style="stroke:#181818;stroke-width:1.0;"/><line style="stroke:#181818;stroke-width:1.0;" x1="221.5" x2="1481.5" y1="1044.0859" y2="1044.0859"/><text fill="#000000" font-family="sans-serif" font-size="13" font-weight="bold" lengthAdjust="spacing" textLength="14" x="228.5" y="1039.2295">18</text><text fill="#000000" font-family="sans-serif" font-size="13" lengthAdjust="spacing" textLength="163" x="246.5" y="1039.2295">setItem('@jwt_token', token)</text><line style="stroke:#181818;stroke-width:1.0;" x1="222.5" x2="232.5" y1="1074.4375" y2="1070.4375"/><line style="stroke:#181818;stroke-width:1.0;" x1="222.5" x2="232.5" y1="1074.4375" y2="1078.4375"/><line style="stroke:#181818;stroke-width:1.0;stroke-dasharray:2.0,2.0;" x1="221.5" x2="1486.5" y1="1074.4375" y2="1074.4375"/><text fill="#000000" font-family="sans-serif" font-size="13" font-weight="bold" lengthAdjust="spacing" textLength="14" x="238.5" y="1069.5811">19</text><text fill="#000000" font-family="sans-serif" font-size="13" lengthAdjust="spacing" textLength="19" x="256.5" y="1069.5811">OK</text><line style="stroke:#181818;stroke-width:1.0;" x1="221.5" x2="263.5" y1="1104.7891" y2="1104.7891"/><line style="stroke:#181818;stroke-width:1.0;" x1="263.5" x2="263.5" y1="1104.7891" y2="1117.7891"/><line style="stroke:#181818;stroke-width:1.0;" x1="222.5" x2="263.5" y1="1117.7891" y2="1117.7891"/><polygon fill="#181818" points="232.5,1113.7891,222.5,1117.7891,232.5,1121.7891,228.5,1117.7891" style="stroke:#181818;stroke-width:1.0;"/><text fill="#000000" font-family="sans-serif" font-size="13" font-weight="bold" lengthAdjust="spacing" textLength="14" x="228.5" y="1099.9326">20</text><text fill="#000000" font-family="sans-serif" font-size="13" lengthAdjust="spacing" textLength="149" x="246.5" y="1099.9326">Mark authenticated = true</text><line style="stroke:#181818;stroke-width:1.0;" x1="221.5" x2="263.5" y1="1148.1406" y2="1148.1406"/><line style="stroke:#181818;stroke-width:1.0;" x1="263.5" x2="263.5" y1="1148.1406" y2="1161.1406"/><line style="stroke:#181818;stroke-width:1.0;" x1="222.5" x2="263.5" y1="1161.1406" y2="1161.1406"/><polygon fill="#181818" points="232.5,1157.1406,222.5,1161.1406,232.5,1165.1406,228.5,1161.1406" style="stroke:#181818;stroke-width:1.0;"/><text fill="#000000" font-family="sans-serif" font-size="13" font-weight="bold" lengthAdjust="spacing" textLength="14" x="228.5" y="1143.2842">21</text><text fill="#000000" font-family="sans-serif" font-size="13" lengthAdjust="spacing" textLength="143" x="246.5" y="1143.2842">Navigate to HomeScreen</text><rect fill="#EEEEEE" height="3" style="stroke:#EEEEEE;stroke-width:1.0;" width="1575" x="0" y="1190.3164"/><line style="stroke:#000000;stroke-width:1.0;" x1="0" x2="1575" y1="1190.3164" y2="1190.3164"/><line style="stroke:#000000;stroke-width:1.0;" x1="0" x2="1575" y1="1193.3164" y2="1193.3164"/><rect fill="#EEEEEE" height="24.3516" style="stroke:#000000;stroke-width:2.0;" width="173" x="701" y="1179.1406"/><text fill="#000000" font-family="sans-serif" font-size="13" font-weight="bold" lengthAdjust="spacing" textLength="155" x="707" y="1196.6357">Using Token in Requests</text><polygon fill="#181818" points="410.5,1234.8438,420.5,1238.8438,410.5,1242.8438,414.5,1238.8438" style="stroke:#181818;stroke-width:1.0;"/><line style="stroke:#181818;stroke-width:1.0;" x1="221.5" x2="416.5" y1="1238.8438" y2="1238.8438"/><text fill="#000000" font-family="sans-serif" font-size="13" font-weight="bold" lengthAdjust="spacing" textLength="14" x="228.5" y="1233.9873">22</text><text fill="#000000" font-family="sans-serif" font-size="13" lengthAdjust="spacing" textLength="98" x="246.5" y="1233.9873">GET /api/devices</text><path d="M427,1218.4922 L427,1244.4922 L616,1244.4922 L616,1228.4922 L606,1218.4922 L427,1218.4922 " fill="#FEFFDD" style="stroke:#181818;stroke-width:0.5;"/><path d="M606,1218.4922 L606,1228.4922 L616,1228.4922 L606,1218.4922 " fill="#FEFFDD" style="stroke:#181818;stroke-width:0.5;"/><text fill="#000000" font-family="sans-serif" font-size="13" lengthAdjust="spacing" textLength="168" x="433" y="1236.9873">Authorization: Bearer &lt;JWT&gt;</text><!--SRC=[ZLNRSjis47tdL-pa8PQI-9P9NpIHMrsOMBKj9I8rRfyqCBcHK9C02u1Mr4x_FGkG8a4dTkePZG7isSNPiukbuIP369LcYyBmX1ak1Np8v0vwOwOn1TgE4bEox14eGlN04-m70KkCLB3Ig8A2ARBpWWa3BvP85fWJ-e5kA8eNmBJztqNPg1CfZ99PXifXskttqEy8E8zwtOLRHaiifER4R-zmxROBlTb7dw-XPprqto6duoxYzziOFg90nMoolJdFxyeQIgP7FFLU917XsAQcLwr9gj98KUPtb5am7CArt711fFukKHiO3eF0Ce3Z2olJ049XQ5VIaM0vmaiecDOxgTA0p1RL2ZM0JuieXbEUMe7C_fGL_9HksvvczWvR8_x03FhQ1ktQ1gir701hPSQUgiZrsmW7hLq6Zk-rbFTbuVZNHXklrNe0NxX8n_jLdKdla98NrQjCkxHXfkC1HE5rE8dX5NnOBcwS81fkByDbs8Wp_BKDHQMRZk7u-ABBmL6jr0bIzD7-XTQhKM9Hs4PZsNlhU-5xUNG3bfagk906liXIf07GdoU5NwTug-XnhQ9mkPxEfklv8bw7VyoYsFdu5R5CN1kyEpk7bR1LaOh_WrLqZykX88-ElKfZfh7E_olNHWUF2JOPZoTgNvXFTP-58f4fgfEScMIBkjUl76t21mXmmYY5YN6cdoS-7wtYot0UpoQZE9msJly_ysUoVre1Qt4gDBmFh1j7wcRxo2SAgo5es_a7AH66P2fvbjhb96Cyrn6ssLCJ82Y-sRP75MZGx8z1btSmR9hNCt2joJ1Rn2U9pFrpHlE1Ok-yC_nQL6Vm6ivXAqlbtv380ibC-QCcG84gf-2Kc6vGA597z-ay8xuHiEDc2vVHB-TleHU5asKOhw_2F_kDarMj-svemLbcAmP6tgFumGKMxtT7TxOlKHV45FzrxlyzL_VdE-ZjsHaihk2PEFv0h4K9xC-DjzYw7SQtwuXwyjP70z1ePWRptj5lV-tCsbrpzARAkXyS75i-YwicXDlVC7NV6RWfrSoe4ZkeENlW6qlMIBYKEKQ9GgjgDO6vsDH4su-9zidwEdyCwIjXFmufMlbquFNhg7vehWJKvCWKYVcUwdiHDBto3G00]--></g></svg>