<?xml version="1.0" encoding="us-ascii" standalone="no"?><svg xmlns="http://www.w3.org/2000/svg" xmlns:xlink="http://www.w3.org/1999/xlink" contentStyleType="text/css" height="623px" preserveAspectRatio="none" style="width:1092px;height:623px;background:#FFFFFF;" version="1.1" viewBox="0 0 1092 623" width="1092px" zoomAndPan="magnify"><defs/><g><text fill="#000000" font-family="sans-serif" font-size="14" font-weight="bold" lengthAdjust="spacing" textLength="294" x="400.75" y="29.5332">Sensor Data Publishing (Every 5 Seconds)</text><rect fill="#FFFFFF" height="383.3516" style="stroke:#181818;stroke-width:1.0;" width="10" x="463" y="186.625"/><rect fill="#FFFFFF" height="30.3516" style="stroke:#181818;stroke-width:1.0;" width="10" x="651" y="285.6797"/><rect fill="#FFFFFF" height="36.3516" style="stroke:#181818;stroke-width:1.0;" width="10" x="954.5" y="445.4375"/><rect fill="none" height="476.7578" style="stroke:#000000;stroke-width:1.5;" width="1076.5" x="10" y="93.2188"/><rect fill="none" height="318" style="stroke:#000000;stroke-width:1.5;" width="713" x="363.5" y="244.9766"/><rect fill="none" height="122.4063" style="stroke:#000000;stroke-width:1.5;" width="693" x="373.5" y="374.3828"/><line style="stroke:#181818;stroke-width:0.5;stroke-dasharray:5.0,5.0;" x1="72" x2="72" y1="76.2188" y2="586.9766"/><line style="stroke:#181818;stroke-width:0.5;stroke-dasharray:5.0,5.0;" x1="299" x2="299" y1="76.2188" y2="586.9766"/><line style="stroke:#181818;stroke-width:0.5;stroke-dasharray:5.0,5.0;" x1="467.5" x2="467.5" y1="76.2188" y2="586.9766"/><line style="stroke:#181818;stroke-width:0.5;stroke-dasharray:5.0,5.0;" x1="656" x2="656" y1="76.2188" y2="586.9766"/><line style="stroke:#181818;stroke-width:0.5;stroke-dasharray:5.0,5.0;" x1="776" x2="776" y1="76.2188" y2="586.9766"/><line style="stroke:#181818;stroke-width:0.5;stroke-dasharray:5.0,5.0;" x1="959" x2="959" y1="76.2188" y2="586.9766"/><rect fill="#E2E2F0" height="31.6094" rx="2.5" ry="2.5" style="stroke:#181818;stroke-width:0.5;" width="104" x="20" y="43.6094"/><text fill="#000000" font-family="sans-serif" font-size="14" lengthAdjust="spacing" textLength="90" x="27" y="65.1426">ESP32 Device</text><rect fill="#E2E2F0" height="31.6094" rx="2.5" ry="2.5" style="stroke:#181818;stroke-width:0.5;" width="104" x="20" y="585.9766"/><text fill="#000000" font-family="sans-serif" font-size="14" lengthAdjust="spacing" textLength="90" x="27" y="607.5098">ESP32 Device</text><rect fill="#E2E2F0" height="31.6094" rx="2.5" ry="2.5" style="stroke:#181818;stroke-width:0.5;" width="100" x="249" y="43.6094"/><text fill="#000000" font-family="sans-serif" font-size="14" lengthAdjust="spacing" textLength="86" x="256" y="65.1426">MQTT Broker</text><rect fill="#E2E2F0" height="31.6094" rx="2.5" ry="2.5" style="stroke:#181818;stroke-width:0.5;" width="100" x="249" y="585.9766"/><text fill="#000000" font-family="sans-serif" font-size="14" lengthAdjust="spacing" textLength="86" x="256" y="607.5098">MQTT Broker</text><rect fill="#E2E2F0" height="31.6094" rx="2.5" ry="2.5" style="stroke:#181818;stroke-width:0.5;" width="169" x="383.5" y="43.6094"/><text fill="#000000" font-family="sans-serif" font-size="14" lengthAdjust="spacing" textLength="155" x="390.5" y="65.1426">Inbound Handler Service</text><rect fill="#E2E2F0" height="31.6094" rx="2.5" ry="2.5" style="stroke:#181818;stroke-width:0.5;" width="169" x="383.5" y="585.9766"/><text fill="#000000" font-family="sans-serif" font-size="14" lengthAdjust="spacing" textLength="155" x="390.5" y="607.5098">Inbound Handler Service</text><rect fill="#E2E2F0" height="31.6094" rx="2.5" ry="2.5" style="stroke:#181818;stroke-width:0.5;" width="76" x="618" y="43.6094"/><text fill="#000000" font-family="sans-serif" font-size="14" lengthAdjust="spacing" textLength="62" x="625" y="65.1426">MongoDB</text><rect fill="#E2E2F0" height="31.6094" rx="2.5" ry="2.5" style="stroke:#181818;stroke-width:0.5;" width="76" x="618" y="585.9766"/><text fill="#000000" font-family="sans-serif" font-size="14" lengthAdjust="spacing" textLength="62" x="625" y="607.5098">MongoDB</text><rect fill="#E2E2F0" height="31.6094" rx="2.5" ry="2.5" style="stroke:#181818;stroke-width:0.5;" width="145" x="704" y="43.6094"/><text fill="#000000" font-family="sans-serif" font-size="14" lengthAdjust="spacing" textLength="131" x="711" y="65.1426">WebSocket Gateway</text><rect fill="#E2E2F0" height="31.6094" rx="2.5" ry="2.5" style="stroke:#181818;stroke-width:0.5;" width="145" x="704" y="585.9766"/><text fill="#000000" font-family="sans-serif" font-size="14" lengthAdjust="spacing" textLength="131" x="711" y="607.5098">WebSocket Gateway</text><rect fill="#E2E2F0" height="31.6094" rx="2.5" ry="2.5" style="stroke:#181818;stroke-width:0.5;" width="123" x="898" y="43.6094"/><text fill="#000000" font-family="sans-serif" font-size="14" lengthAdjust="spacing" textLength="109" x="905" y="65.1426">React Native App</text><rect fill="#E2E2F0" height="31.6094" rx="2.5" ry="2.5" style="stroke:#181818;stroke-width:0.5;" width="123" x="898" y="585.9766"/><text fill="#000000" font-family="sans-serif" font-size="14" lengthAdjust="spacing" textLength="109" x="905" y="607.5098">React Native App</text><rect fill="#FFFFFF" height="383.3516" style="stroke:#181818;stroke-width:1.0;" width="10" x="463" y="186.625"/><rect fill="#FFFFFF" height="30.3516" style="stroke:#181818;stroke-width:1.0;" width="10" x="651" y="285.6797"/><rect fill="#FFFFFF" height="36.3516" style="stroke:#181818;stroke-width:1.0;" width="10" x="954.5" y="445.4375"/><path d="M10,93.2188 L83,93.2188 L83,101.5703 L73,111.5703 L10,111.5703 L10,93.2188 " fill="#EEEEEE" style="stroke:#000000;stroke-width:1.5;"/><rect fill="none" height="476.7578" style="stroke:#000000;stroke-width:1.5;" width="1076.5" x="10" y="93.2188"/><text fill="#000000" font-family="sans-serif" font-size="13" font-weight="bold" lengthAdjust="spacing" textLength="28" x="25" y="107.7139">loop</text><text fill="#000000" font-family="sans-serif" font-size="11" font-weight="bold" lengthAdjust="spacing" textLength="227" x="98" y="106.6377">[Every 5 seconds (while isActive == true)]</text><polygon fill="#181818" points="287,141.0977,297,145.0977,287,149.0977,291,145.0977" style="stroke:#181818;stroke-width:1.0;"/><line style="stroke:#181818;stroke-width:1.0;" x1="72" x2="293" y1="145.0977" y2="145.0977"/><text fill="#000000" font-family="sans-serif" font-size="13" font-weight="bold" lengthAdjust="spacing" textLength="7" x="79" y="140.2412">1</text><text fill="#000000" font-family="sans-serif" font-size="13" lengthAdjust="spacing" textLength="192" x="90" y="140.2412">PUBLISH sensors/{deviceId}/data</text><path d="M304,116.5703 L304,158.5703 L583,158.5703 L583,126.5703 L573,116.5703 L304,116.5703 " fill="#FEFFDD" style="stroke:#181818;stroke-width:0.5;"/><path d="M573,116.5703 L573,126.5703 L583,126.5703 L573,116.5703 " fill="#FEFFDD" style="stroke:#181818;stroke-width:0.5;"/><text fill="#000000" font-family="sans-serif" font-size="13" lengthAdjust="spacing" textLength="258" x="310" y="135.0654">Payload: {temperature, humidity, timestamp}</text><text fill="#000000" font-family="sans-serif" font-size="13" lengthAdjust="spacing" textLength="37" x="310" y="151.417">QoS 1</text><polygon fill="#181818" points="451,182.625,461,186.625,451,190.625,455,186.625" style="stroke:#181818;stroke-width:1.0;"/><line style="stroke:#181818;stroke-width:1.0;" x1="299" x2="457" y1="186.625" y2="186.625"/><text fill="#000000" font-family="sans-serif" font-size="13" font-weight="bold" lengthAdjust="spacing" textLength="7" x="306" y="181.7686">2</text><text fill="#000000" font-family="sans-serif" font-size="13" lengthAdjust="spacing" textLength="134" x="317" y="181.7686">Deliver MQTT message</text><line style="stroke:#181818;stroke-width:1.0;" x1="473" x2="515" y1="216.9766" y2="216.9766"/><line style="stroke:#181818;stroke-width:1.0;" x1="515" x2="515" y1="216.9766" y2="229.9766"/><line style="stroke:#181818;stroke-width:1.0;" x1="474" x2="515" y1="229.9766" y2="229.9766"/><polygon fill="#181818" points="484,225.9766,474,229.9766,484,233.9766,480,229.9766" style="stroke:#181818;stroke-width:1.0;"/><text fill="#000000" font-family="sans-serif" font-size="13" font-weight="bold" lengthAdjust="spacing" textLength="7" x="480" y="212.1201">3</text><text fill="#000000" font-family="sans-serif" font-size="13" lengthAdjust="spacing" textLength="143" x="491" y="212.1201">Parse &amp; validate payload</text><path d="M363.5,244.9766 L424.5,244.9766 L424.5,253.3281 L414.5,263.3281 L363.5,263.3281 L363.5,244.9766 " fill="#EEEEEE" style="stroke:#000000;stroke-width:1.5;"/><rect fill="none" height="318" style="stroke:#000000;stroke-width:1.5;" width="713" x="363.5" y="244.9766"/><text fill="#000000" font-family="sans-serif" font-size="13" font-weight="bold" lengthAdjust="spacing" textLength="16" x="378.5" y="259.4717">alt</text><text fill="#000000" font-family="sans-serif" font-size="11" font-weight="bold" lengthAdjust="spacing" textLength="61" x="439.5" y="258.3955">[Valid data]</text><polygon fill="#181818" points="639,281.6797,649,285.6797,639,289.6797,643,285.6797" style="stroke:#181818;stroke-width:1.0;"/><line style="stroke:#181818;stroke-width:1.0;" x1="473" x2="645" y1="285.6797" y2="285.6797"/><text fill="#000000" font-family="sans-serif" font-size="13" font-weight="bold" lengthAdjust="spacing" textLength="7" x="480" y="280.8232">4</text><text fill="#000000" font-family="sans-serif" font-size="13" lengthAdjust="spacing" textLength="121" x="491" y="280.8232">INSERT sensor_data</text><line style="stroke:#181818;stroke-width:1.0;" x1="474" x2="484" y1="316.0313" y2="312.0313"/><line style="stroke:#181818;stroke-width:1.0;" x1="474" x2="484" y1="316.0313" y2="320.0313"/><line style="stroke:#181818;stroke-width:1.0;stroke-dasharray:2.0,2.0;" x1="473" x2="655" y1="316.0313" y2="316.0313"/><text fill="#000000" font-family="sans-serif" font-size="13" font-weight="bold" lengthAdjust="spacing" textLength="7" x="490" y="311.1748">5</text><text fill="#000000" font-family="sans-serif" font-size="13" lengthAdjust="spacing" textLength="19" x="501" y="311.1748">OK</text><line style="stroke:#181818;stroke-width:1.0;" x1="473" x2="515" y1="346.3828" y2="346.3828"/><line style="stroke:#181818;stroke-width:1.0;" x1="515" x2="515" y1="346.3828" y2="359.3828"/><line style="stroke:#181818;stroke-width:1.0;" x1="474" x2="515" y1="359.3828" y2="359.3828"/><polygon fill="#181818" points="484,355.3828,474,359.3828,484,363.3828,480,359.3828" style="stroke:#181818;stroke-width:1.0;"/><text fill="#000000" font-family="sans-serif" font-size="13" font-weight="bold" lengthAdjust="spacing" textLength="7" x="480" y="341.5264">6</text><text fill="#000000" font-family="sans-serif" font-size="13" lengthAdjust="spacing" textLength="153" x="491" y="341.5264">Update device last_activity</text><path d="M373.5,374.3828 L438.5,374.3828 L438.5,382.7344 L428.5,392.7344 L373.5,392.7344 L373.5,374.3828 " fill="#EEEEEE" style="stroke:#000000;stroke-width:1.5;"/><rect fill="none" height="122.4063" style="stroke:#000000;stroke-width:1.5;" width="693" x="373.5" y="374.3828"/><text fill="#000000" font-family="sans-serif" font-size="13" font-weight="bold" lengthAdjust="spacing" textLength="20" x="388.5" y="388.8779">opt</text><text fill="#000000" font-family="sans-serif" font-size="11" font-weight="bold" lengthAdjust="spacing" textLength="148" x="453.5" y="387.8018">[Real-time update enabled]</text><polygon fill="#181818" points="764.5,411.0859,774.5,415.0859,764.5,419.0859,768.5,415.0859" style="stroke:#181818;stroke-width:1.0;"/><line style="stroke:#181818;stroke-width:1.0;" x1="473" x2="770.5" y1="415.0859" y2="415.0859"/><text fill="#000000" font-family="sans-serif" font-size="13" font-weight="bold" lengthAdjust="spacing" textLength="7" x="480" y="410.2295">7</text><text fill="#000000" font-family="sans-serif" font-size="13" lengthAdjust="spacing" textLength="116" x="491" y="410.2295">Push sensor update</text><polygon fill="#181818" points="942.5,441.4375,952.5,445.4375,942.5,449.4375,946.5,445.4375" style="stroke:#181818;stroke-width:1.0;"/><line style="stroke:#181818;stroke-width:1.0;" x1="776.5" x2="948.5" y1="445.4375" y2="445.4375"/><text fill="#000000" font-family="sans-serif" font-size="13" font-weight="bold" lengthAdjust="spacing" textLength="7" x="783.5" y="440.5811">8</text><text fill="#000000" font-family="sans-serif" font-size="13" lengthAdjust="spacing" textLength="148" x="794.5" y="440.5811">SENSOR_UPDATE event</text><line style="stroke:#181818;stroke-width:1.0;" x1="964.5" x2="1006.5" y1="480.7891" y2="480.7891"/><line style="stroke:#181818;stroke-width:1.0;" x1="1006.5" x2="1006.5" y1="480.7891" y2="493.7891"/><line style="stroke:#181818;stroke-width:1.0;" x1="959.5" x2="1006.5" y1="493.7891" y2="493.7891"/><polygon fill="#181818" points="969.5,489.7891,959.5,493.7891,969.5,497.7891,965.5,493.7891" style="stroke:#181818;stroke-width:1.0;"/><text fill="#000000" font-family="sans-serif" font-size="13" font-weight="bold" lengthAdjust="spacing" textLength="7" x="971.5" y="475.9326">9</text><text fill="#000000" font-family="sans-serif" font-size="13" lengthAdjust="spacing" textLength="72" x="982.5" y="475.9326">Re-render UI</text><line style="stroke:#000000;stroke-width:1.0;stroke-dasharray:2.0,2.0;" x1="363.5" x2="1076.5" y1="504.7891" y2="504.7891"/><text fill="#000000" font-family="sans-serif" font-size="11" font-weight="bold" lengthAdjust="spacing" textLength="69" x="368.5" y="516.208">[Invalid data]</text><line style="stroke:#181818;stroke-width:1.0;" x1="473" x2="515" y1="541.9766" y2="541.9766"/><line style="stroke:#181818;stroke-width:1.0;" x1="515" x2="515" y1="541.9766" y2="554.9766"/><line style="stroke:#181818;stroke-width:1.0;" x1="474" x2="515" y1="554.9766" y2="554.9766"/><polygon fill="#181818" points="484,550.9766,474,554.9766,484,558.9766,480,554.9766" style="stroke:#181818;stroke-width:1.0;"/><text fill="#000000" font-family="sans-serif" font-size="13" font-weight="bold" lengthAdjust="spacing" textLength="14" x="480" y="537.1201">10</text><text fill="#000000" font-family="sans-serif" font-size="13" lengthAdjust="spacing" textLength="80" x="498" y="537.1201">Log &amp; discard</text><!--SRC=[VL9HQzim47xthpZwC3feADlOIw2568VLh4lTE5aUmzaw4b55CfBi4ah_-ywowzbXp2-MTDztzzrtvwLN13bfPomaw16okb3I7QK-mFMo8Nk6xnmlZHRkSnHLQBqiPONQmzKopxvzXOGQMT8LeEkFKz2lvyq6OcjUo0PCTvnYKbsOMWjuG2qKMQvdXvpz-IAfqGUJn5tHU1hRKP6RyeKy_41FhtWEg5q-HQq9ImyhzB8XM5HL0F4_Yh3sHjUdWaL6ofWAFbnmdGjm_NgKR9fqYpAmx-x0svhO7U2lym1cztsdSyYsyMEQFp2_TTdTlea0ISNxhM370qiRJs3buUZ3DSEpCYZcyERfL955NrkwWMDzaaBwymruUIBdyLIz1_opoU5BE17Rs2Rhn7GIMZ6zZNFMfrYqXJ0NJkBmG06BRJVisE1uUEqlanGPMaVm2HfKKhICgfFRCL1v-Dr6OEZk8b4Ipo5TvSlrflTaFq4EGdYo7sz93BFP_KZ3qyyX9cZC-5V1WRMjWjvk0A3G-NtWigT_YQRomEkXPgt9K7SKqbWe4WFeei8kPrjgT-mRwbaJz2vlWRnYSyYNg_nflTzcoMAp16f8-mbqwATTo760xqEIDSqiJvj7kKqde94VOpvZknv9yVHItVntHeDbZ-R0enRIbMX5D4aqAZJiJ1ly0m00]--></g></svg>