<?xml version="1.0" encoding="us-ascii" standalone="no"?><svg xmlns="http://www.w3.org/2000/svg" xmlns:xlink="http://www.w3.org/1999/xlink" contentStyleType="text/css" height="1633px" preserveAspectRatio="none" style="width:1677px;height:1633px;background:#FFFFFF;" version="1.1" viewBox="0 0 1677 1633" width="1677px" zoomAndPan="magnify"><defs/><g><text fill="#000000" font-family="sans-serif" font-size="14" font-weight="bold" lengthAdjust="spacing" textLength="186" x="744" y="34.5332">App User Flow (REST Only)</text><ellipse cx="964.5" cy="58.6094" fill="#222222" rx="10" ry="10" style="stroke:#222222;stroke-width:1.0;"/><rect fill="#F1F1F1" height="35.0938" rx="12.5" ry="12.5" style="stroke:#181818;stroke-width:0.5;" width="146" x="891.5" y="88.6094"/><text fill="#000000" font-family="sans-serif" font-size="12" lengthAdjust="spacing" textLength="126" x="901.5" y="111.0664">Open React Native App</text><rect fill="none" height="258.8906" style="stroke:#000000;stroke-width:1.5;" width="384" x="774" y="133.7031"/><path d="M918,133.7031 L918,144.3125 L908,154.3125 L774,154.3125 " fill="none" style="stroke:#000000;stroke-width:1.5;"/><text fill="#000000" font-family="sans-serif" font-size="14" lengthAdjust="spacing" textLength="134" x="777" y="149.2363">Authentication Check</text><rect fill="#F1F1F1" height="35.0938" rx="12.5" ry="12.5" style="stroke:#181818;stroke-width:0.5;" width="213" x="858" y="171.3125"/><text fill="#000000" font-family="sans-serif" font-size="12" lengthAdjust="spacing" textLength="193" x="868" y="193.7695">Check AsyncStorage for saved JWT</text><polygon fill="#F1F1F1" points="931,226.4063,998,226.4063,1010,238.4063,998,250.4063,931,250.4063,919,238.4063,931,226.4063" style="stroke:#181818;stroke-width:0.5;"/><text fill="#000000" font-family="sans-serif" font-size="11" lengthAdjust="spacing" textLength="67" x="931" y="242.9072">Token exists?</text><text fill="#000000" font-family="sans-serif" font-size="11" lengthAdjust="spacing" textLength="20" x="899" y="235.9893">Yes</text><text fill="#000000" font-family="sans-serif" font-size="11" lengthAdjust="spacing" textLength="13" x="1010" y="235.9893">No</text><rect fill="#F1F1F1" height="35.0938" rx="12.5" ry="12.5" style="stroke:#181818;stroke-width:0.5;" width="90" x="828.5" y="260.4063"/><text fill="#000000" font-family="sans-serif" font-size="12" lengthAdjust="spacing" textLength="70" x="838.5" y="282.8633">Decode JWT</text><rect fill="#F1F1F1" height="35.0938" rx="12.5" ry="12.5" style="stroke:#181818;stroke-width:0.5;" width="159" x="794" y="315.5"/><text fill="#000000" font-family="sans-serif" font-size="12" lengthAdjust="spacing" textLength="139" x="804" y="337.957">Set isAuthenticated = true</text><rect fill="#F1F1F1" height="35.0938" rx="12.5" ry="12.5" style="stroke:#181818;stroke-width:0.5;" width="165" x="973" y="260.4063"/><text fill="#000000" font-family="sans-serif" font-size="12" lengthAdjust="spacing" textLength="145" x="983" y="282.8633">Set isAuthenticated = false</text><polygon fill="#F1F1F1" points="964.5,356.5938,976.5,368.5938,964.5,380.5938,952.5,368.5938,964.5,356.5938" style="stroke:#181818;stroke-width:0.5;"/><polygon fill="#F1F1F1" points="924,412.5938,1005,412.5938,1017,424.5938,1005,436.5938,924,436.5938,912,424.5938,924,412.5938" style="stroke:#181818;stroke-width:0.5;"/><text fill="#000000" font-family="sans-serif" font-size="11" lengthAdjust="spacing" textLength="81" x="924" y="429.0947">isAuthenticated?</text><text fill="#000000" font-family="sans-serif" font-size="11" lengthAdjust="spacing" textLength="20" x="892" y="422.1768">Yes</text><text fill="#000000" font-family="sans-serif" font-size="11" lengthAdjust="spacing" textLength="13" x="1017" y="422.1768">No</text><rect fill="none" height="1104.041" style="stroke:#000000;stroke-width:1.5;" width="1084.5" x="11" y="446.5938"/><path d="M80,446.5938 L80,457.2031 L70,467.2031 L11,467.2031 " fill="none" style="stroke:#000000;stroke-width:1.5;"/><text fill="#000000" font-family="sans-serif" font-size="14" lengthAdjust="spacing" textLength="59" x="14" y="462.127">Main App</text><rect fill="#F1F1F1" height="35.0938" rx="12.5" ry="12.5" style="stroke:#181818;stroke-width:0.5;" width="137" x="463.5" y="484.2031"/><text fill="#000000" font-family="sans-serif" font-size="12" lengthAdjust="spacing" textLength="117" x="473.5" y="506.6602">Render HomeScreen</text><rect fill="#F1F1F1" height="35.0938" rx="12.5" ry="12.5" style="stroke:#181818;stroke-width:0.5;" width="137" x="463.5" y="539.2969"/><text fill="#000000" font-family="sans-serif" font-size="12" lengthAdjust="spacing" textLength="117" x="473.5" y="561.7539">Call GET /api/devices</text><polygon fill="#F1F1F1" points="338,619.3906,390,619.3906,402,631.3906,390,643.3906,338,643.3906,326,631.3906,338,619.3906" style="stroke:#181818;stroke-width:0.5;"/><text fill="#000000" font-family="sans-serif" font-size="11" lengthAdjust="spacing" textLength="20" x="368" y="654.8096">Yes</text><text fill="#000000" font-family="sans-serif" font-size="11" lengthAdjust="spacing" textLength="52" x="338" y="635.8916">HTTP 200?</text><rect fill="#F1F1F1" height="35.0938" rx="12.5" ry="12.5" style="stroke:#181818;stroke-width:0.5;" width="149" x="289.5" y="676.3096"/><text fill="#000000" font-family="sans-serif" font-size="12" lengthAdjust="spacing" textLength="129" x="299.5" y="698.7666">Store device list in state</text><polygon fill="#F1F1F1" points="509.5,619.3906,561.5,619.3906,573.5,631.3906,561.5,643.3906,509.5,643.3906,497.5,631.3906,509.5,619.3906" style="stroke:#181818;stroke-width:0.5;"/><text fill="#000000" font-family="sans-serif" font-size="11" lengthAdjust="spacing" textLength="20" x="539.5" y="654.8096">Yes</text><text fill="#000000" font-family="sans-serif" font-size="11" lengthAdjust="spacing" textLength="52" x="509.5" y="635.8916">HTTP 401?</text><rect fill="#F1F1F1" height="35.0938" rx="12.5" ry="12.5" style="stroke:#181818;stroke-width:0.5;" width="83" x="494" y="676.3096"/><text fill="#000000" font-family="sans-serif" font-size="12" lengthAdjust="spacing" textLength="63" x="504" y="698.7666">Clear token</text><rect fill="#F1F1F1" height="35.0938" rx="12.5" ry="12.5" style="stroke:#181818;stroke-width:0.5;" width="154" x="458.5" y="746.4033"/><text fill="#000000" font-family="sans-serif" font-size="12" lengthAdjust="spacing" textLength="134" x="468.5" y="768.8604">Navigate to LoginScreen</text><ellipse cx="535.5" cy="812.4971" fill="none" rx="11" ry="11" style="stroke:#222222;stroke-width:1.0;"/><ellipse cx="535.5" cy="812.4971" fill="#222222" rx="6" ry="6" style="stroke:#222222;stroke-width:1.0;"/><rect fill="#F1F1F1" height="35.0938" rx="12.5" ry="12.5" style="stroke:#181818;stroke-width:0.5;" width="142" x="631" y="735.9385"/><text fill="#000000" font-family="sans-serif" font-size="12" lengthAdjust="spacing" textLength="122" x="641" y="758.3955">Show error notification</text><rect fill="#F1F1F1" height="35.0938" rx="12.5" ry="12.5" style="stroke:#181818;stroke-width:0.5;" width="137" x="463.5" y="989.9658"/><text fill="#000000" font-family="sans-serif" font-size="12" lengthAdjust="spacing" textLength="117" x="473.5" y="1012.4229">User interacts with UI</text><polygon fill="#F1F1F1" points="59.5,1068.2471,143.5,1068.2471,155.5,1080.2471,143.5,1092.2471,59.5,1092.2471,47.5,1080.2471,59.5,1068.2471" style="stroke:#181818;stroke-width:0.5;"/><text fill="#000000" font-family="sans-serif" font-size="11" lengthAdjust="spacing" textLength="20" x="105.5" y="1103.666">Yes</text><text fill="#000000" font-family="sans-serif" font-size="11" lengthAdjust="spacing" textLength="84" x="59.5" y="1084.748">Tap device card?</text><rect fill="#F1F1F1" height="35.0938" rx="12.5" ry="12.5" style="stroke:#181818;stroke-width:0.5;" width="161" x="21" y="1125.166"/><text fill="#000000" font-family="sans-serif" font-size="12" lengthAdjust="spacing" textLength="141" x="31" y="1147.623">Open DeviceDetailScreen</text><polygon fill="#F1F1F1" points="399.75,1068.2471,492.75,1068.2471,504.75,1080.2471,492.75,1092.2471,399.75,1092.2471,387.75,1080.2471,399.75,1068.2471" style="stroke:#181818;stroke-width:0.5;"/><text fill="#000000" font-family="sans-serif" font-size="11" lengthAdjust="spacing" textLength="20" x="450.25" y="1103.666">Yes</text><text fill="#000000" font-family="sans-serif" font-size="11" lengthAdjust="spacing" textLength="93" x="399.75" y="1084.748">Tap control button?</text><rect fill="#F1F1F1" height="35.0938" rx="12.5" ry="12.5" style="stroke:#181818;stroke-width:0.5;" width="191" x="350.75" y="1125.166"/><text fill="#000000" font-family="sans-serif" font-size="12" lengthAdjust="spacing" textLength="171" x="360.75" y="1147.623">POST /api/devices/{id}/on or /off</text><polygon fill="#F1F1F1" points="420.25,1180.2598,472.25,1180.2598,484.25,1192.2598,472.25,1204.2598,420.25,1204.2598,408.25,1192.2598,420.25,1180.2598" style="stroke:#181818;stroke-width:0.5;"/><text fill="#000000" font-family="sans-serif" font-size="11" lengthAdjust="spacing" textLength="52" x="420.25" y="1196.7607">HTTP 202?</text><text fill="#000000" font-family="sans-serif" font-size="11" lengthAdjust="spacing" textLength="20" x="388.25" y="1189.8428">Yes</text><rect fill="#F1F1F1" height="35.0938" rx="12.5" ry="12.5" style="stroke:#181818;stroke-width:0.5;" width="171" x="248.5" y="1214.2598"/><text fill="#000000" font-family="sans-serif" font-size="12" lengthAdjust="spacing" textLength="151" x="258.5" y="1236.7168">Show temporary notification</text><rect fill="#F1F1F1" height="35.0938" rx="12.5" ry="12.5" style="stroke:#181818;stroke-width:0.5;" width="284" x="192" y="1284.3535"/><text fill="#000000" font-family="sans-serif" font-size="12" lengthAdjust="spacing" textLength="264" x="202" y="1306.8105">User refreshes screen or component re-renders</text><rect fill="#F1F1F1" height="35.0938" rx="12.5" ry="12.5" style="stroke:#181818;stroke-width:0.5;" width="158" x="255" y="1354.4473"/><text fill="#000000" font-family="sans-serif" font-size="12" lengthAdjust="spacing" textLength="138" x="265" y="1376.9043">Call GET /api/devices/{id}</text><rect fill="#F1F1F1" height="35.0938" rx="12.5" ry="12.5" style="stroke:#181818;stroke-width:0.5;" width="193" x="237.5" y="1409.541"/><text fill="#000000" font-family="sans-serif" font-size="12" lengthAdjust="spacing" textLength="173" x="247.5" y="1431.998">Update UI based on latest state</text><rect fill="#F1F1F1" height="35.0938" rx="12.5" ry="12.5" style="stroke:#181818;stroke-width:0.5;" width="125" x="496" y="1214.2598"/><text fill="#000000" font-family="sans-serif" font-size="12" lengthAdjust="spacing" textLength="105" x="506" y="1236.7168">Show request error</text><polygon fill="#F1F1F1" points="446.25,1450.6348,458.25,1462.6348,446.25,1474.6348,434.25,1462.6348,446.25,1450.6348" style="stroke:#181818;stroke-width:0.5;"/><polygon fill="#F1F1F1" points="681.5,1068.2471,754.5,1068.2471,766.5,1080.2471,754.5,1092.2471,681.5,1092.2471,669.5,1080.2471,681.5,1068.2471" style="stroke:#181818;stroke-width:0.5;"/><text fill="#000000" font-family="sans-serif" font-size="11" lengthAdjust="spacing" textLength="20" x="722" y="1103.666">Yes</text><text fill="#000000" font-family="sans-serif" font-size="11" lengthAdjust="spacing" textLength="73" x="681.5" y="1084.748">Pull to refresh?</text><rect fill="#F1F1F1" height="35.0938" rx="12.5" ry="12.5" style="stroke:#181818;stroke-width:0.5;" width="137" x="649.5" y="1125.166"/><text fill="#000000" font-family="sans-serif" font-size="12" lengthAdjust="spacing" textLength="117" x="659.5" y="1147.623">Call GET /api/devices</text><rect fill="#F1F1F1" height="35.0938" rx="12.5" ry="12.5" style="stroke:#181818;stroke-width:0.5;" width="117" x="659.5" y="1180.2598"/><text fill="#000000" font-family="sans-serif" font-size="12" lengthAdjust="spacing" textLength="97" x="669.5" y="1202.7168">Update device list</text><polygon fill="#F1F1F1" points="889.5,1068.2471,928.5,1068.2471,940.5,1080.2471,928.5,1092.2471,889.5,1092.2471,877.5,1080.2471,889.5,1068.2471" style="stroke:#181818;stroke-width:0.5;"/><text fill="#000000" font-family="sans-serif" font-size="11" lengthAdjust="spacing" textLength="20" x="913" y="1103.666">Yes</text><text fill="#000000" font-family="sans-serif" font-size="11" lengthAdjust="spacing" textLength="39" x="889.5" y="1084.748">Logout?</text><rect fill="#F1F1F1" height="35.0938" rx="12.5" ry="12.5" style="stroke:#181818;stroke-width:0.5;" width="205" x="806.5" y="1125.166"/><text fill="#000000" font-family="sans-serif" font-size="12" lengthAdjust="spacing" textLength="185" x="816.5" y="1147.623">Remove token from AsyncStorage</text><rect fill="#F1F1F1" height="35.0938" rx="12.5" ry="12.5" style="stroke:#181818;stroke-width:0.5;" width="165" x="826.5" y="1180.2598"/><text fill="#000000" font-family="sans-serif" font-size="12" lengthAdjust="spacing" textLength="145" x="836.5" y="1202.7168">Set isAuthenticated = false</text><rect fill="#F1F1F1" height="35.0938" rx="12.5" ry="12.5" style="stroke:#181818;stroke-width:0.5;" width="154" x="832" y="1250.3535"/><text fill="#000000" font-family="sans-serif" font-size="12" lengthAdjust="spacing" textLength="134" x="842" y="1272.8105">Navigate to LoginScreen</text><ellipse cx="909" cy="1331.4473" fill="none" rx="11" ry="11" style="stroke:#222222;stroke-width:1.0;"/><ellipse cx="909" cy="1331.4473" fill="#222222" rx="6" ry="6" style="stroke:#222222;stroke-width:1.0;"/><polygon fill="#F1F1F1" points="532,926.6846,544,938.6846,532,950.6846,520,938.6846,532,926.6846" style="stroke:#181818;stroke-width:0.5;"/><polygon fill="#F1F1F1" points="499.5,1514.6348,564.5,1514.6348,576.5,1526.6348,564.5,1538.6348,499.5,1538.6348,487.5,1526.6348,499.5,1514.6348" style="stroke:#181818;stroke-width:0.5;"/><text fill="#000000" font-family="sans-serif" font-size="11" lengthAdjust="spacing" textLength="65" x="499.5" y="1531.1357">App running?</text><rect fill="none" height="601.6533" style="stroke:#000000;stroke-width:1.5;" width="550.5" x="1115.5" y="446.5938"/><path d="M1193.5,446.5938 L1193.5,457.2031 L1183.5,467.2031 L1115.5,467.2031 " fill="none" style="stroke:#000000;stroke-width:1.5;"/><text fill="#000000" font-family="sans-serif" font-size="14" lengthAdjust="spacing" textLength="68" x="1118.5" y="462.127">Login Flow</text><rect fill="#F1F1F1" height="35.0938" rx="12.5" ry="12.5" style="stroke:#181818;stroke-width:0.5;" width="134" x="1326" y="484.2031"/><text fill="#000000" font-family="sans-serif" font-size="12" lengthAdjust="spacing" textLength="114" x="1336" y="506.6602">Render LoginScreen</text><rect fill="#F1F1F1" height="35.0938" rx="12.5" ry="12.5" style="stroke:#181818;stroke-width:0.5;" width="149" x="1318.5" y="539.2969"/><text fill="#000000" font-family="sans-serif" font-size="12" lengthAdjust="spacing" textLength="129" x="1328.5" y="561.7539">User enters credentials</text><rect fill="#F1F1F1" height="35.0938" rx="12.5" ry="12.5" style="stroke:#181818;stroke-width:0.5;" width="173" x="1306.5" y="594.3906"/><text fill="#000000" font-family="sans-serif" font-size="12" lengthAdjust="spacing" textLength="153" x="1316.5" y="616.8477">POST /identity/api/auth/login</text><polygon fill="#F1F1F1" points="1185,688.5674,1237,688.5674,1249,700.5674,1237,712.5674,1185,712.5674,1173,700.5674,1185,688.5674" style="stroke:#181818;stroke-width:0.5;"/><text fill="#000000" font-family="sans-serif" font-size="11" lengthAdjust="spacing" textLength="20" x="1215" y="723.9863">Yes</text><text fill="#000000" font-family="sans-serif" font-size="11" lengthAdjust="spacing" textLength="52" x="1185" y="705.0684">HTTP 200?</text><rect fill="#F1F1F1" height="35.0938" rx="12.5" ry="12.5" style="stroke:#181818;stroke-width:0.5;" width="83" x="1169.5" y="746.4033"/><text fill="#000000" font-family="sans-serif" font-size="12" lengthAdjust="spacing" textLength="63" x="1179.5" y="768.8604">Extract JWT</text><rect fill="#F1F1F1" height="35.0938" rx="12.5" ry="12.5" style="stroke:#181818;stroke-width:0.5;" width="171" x="1125.5" y="801.4971"/><text fill="#000000" font-family="sans-serif" font-size="12" lengthAdjust="spacing" textLength="151" x="1135.5" y="823.9541">Save token to AsyncStorage</text><rect fill="#F1F1F1" height="35.0938" rx="12.5" ry="12.5" style="stroke:#181818;stroke-width:0.5;" width="159" x="1131.5" y="871.5908"/><text fill="#000000" font-family="sans-serif" font-size="12" lengthAdjust="spacing" textLength="139" x="1141.5" y="894.0479">Set isAuthenticated = true</text><rect fill="#F1F1F1" height="35.0938" rx="12.5" ry="12.5" style="stroke:#181818;stroke-width:0.5;" width="157" x="1132.5" y="934.8721"/><text fill="#000000" font-family="sans-serif" font-size="12" lengthAdjust="spacing" textLength="137" x="1142.5" y="957.3291">Navigate to HomeScreen</text><polygon fill="#F1F1F1" points="1389.5,688.5674,1441.5,688.5674,1453.5,700.5674,1441.5,712.5674,1389.5,712.5674,1377.5,700.5674,1389.5,688.5674" style="stroke:#181818;stroke-width:0.5;"/><text fill="#000000" font-family="sans-serif" font-size="11" lengthAdjust="spacing" textLength="20" x="1419.5" y="723.9863">Yes</text><text fill="#000000" font-family="sans-serif" font-size="11" lengthAdjust="spacing" textLength="52" x="1389.5" y="705.0684">HTTP 401?</text><rect fill="#F1F1F1" height="35.0938" rx="12.5" ry="12.5" style="stroke:#181818;stroke-width:0.5;" width="209" x="1311" y="746.4033"/><text fill="#000000" font-family="sans-serif" font-size="12" lengthAdjust="spacing" textLength="189" x="1321" y="768.8604">Show invalid credentials message</text><rect fill="#F1F1F1" height="35.0938" rx="12.5" ry="12.5" style="stroke:#181818;stroke-width:0.5;" width="126" x="1530" y="832.626"/><text fill="#000000" font-family="sans-serif" font-size="12" lengthAdjust="spacing" textLength="106" x="1540" y="855.083">Show network error</text><polygon fill="#F1F1F1" points="964.5,1556.6348,976.5,1568.6348,964.5,1580.6348,952.5,1568.6348,964.5,1556.6348" style="stroke:#181818;stroke-width:0.5;"/><ellipse cx="964.5" cy="1611.6348" fill="none" rx="11" ry="11" style="stroke:#222222;stroke-width:1.0;"/><ellipse cx="964.5" cy="1611.6348" fill="#222222" rx="6" ry="6" style="stroke:#222222;stroke-width:1.0;"/><line style="stroke:#181818;stroke-width:1.0;" x1="964.5" x2="964.5" y1="68.6094" y2="88.6094"/><polygon fill="#181818" points="960.5,78.6094,964.5,88.6094,968.5,78.6094,964.5,82.6094" style="stroke:#181818;stroke-width:1.0;"/><line style="stroke:#181818;stroke-width:1.0;" x1="873.5" x2="873.5" y1="295.5" y2="315.5"/><polygon fill="#181818" points="869.5,305.5,873.5,315.5,877.5,305.5,873.5,309.5" style="stroke:#181818;stroke-width:1.0;"/><line style="stroke:#181818;stroke-width:1.0;" x1="919" x2="873.5" y1="238.4063" y2="238.4063"/><line style="stroke:#181818;stroke-width:1.0;" x1="873.5" x2="873.5" y1="238.4063" y2="260.4063"/><polygon fill="#181818" points="869.5,250.4063,873.5,260.4063,877.5,250.4063,873.5,254.4063" style="stroke:#181818;stroke-width:1.0;"/><line style="stroke:#181818;stroke-width:1.0;" x1="1010" x2="1055.5" y1="238.4063" y2="238.4063"/><line style="stroke:#181818;stroke-width:1.0;" x1="1055.5" x2="1055.5" y1="238.4063" y2="260.4063"/><polygon fill="#181818" points="1051.5,250.4063,1055.5,260.4063,1059.5,250.4063,1055.5,254.4063" style="stroke:#181818;stroke-width:1.0;"/><line style="stroke:#181818;stroke-width:1.0;" x1="873.5" x2="873.5" y1="350.5938" y2="368.5938"/><line style="stroke:#181818;stroke-width:1.0;" x1="873.5" x2="952.5" y1="368.5938" y2="368.5938"/><polygon fill="#181818" points="942.5,364.5938,952.5,368.5938,942.5,372.5938,946.5,368.5938" style="stroke:#181818;stroke-width:1.0;"/><line style="stroke:#181818;stroke-width:1.0;" x1="1055.5" x2="1055.5" y1="295.5" y2="368.5938"/><line style="stroke:#181818;stroke-width:1.0;" x1="1055.5" x2="976.5" y1="368.5938" y2="368.5938"/><polygon fill="#181818" points="986.5,364.5938,976.5,368.5938,986.5,372.5938,982.5,368.5938" style="stroke:#181818;stroke-width:1.0;"/><line style="stroke:#181818;stroke-width:1.0;" x1="964.5" x2="964.5" y1="206.4063" y2="226.4063"/><polygon fill="#181818" points="960.5,216.4063,964.5,226.4063,968.5,216.4063,964.5,220.4063" style="stroke:#181818;stroke-width:1.0;"/><line style="stroke:#181818;stroke-width:1.0;" x1="964.5" x2="964.5" y1="123.7031" y2="171.3125"/><polygon fill="#181818" points="960.5,161.3125,964.5,171.3125,968.5,161.3125,964.5,165.3125" style="stroke:#181818;stroke-width:1.0;"/><line style="stroke:#181818;stroke-width:1.0;" x1="532" x2="532" y1="519.2969" y2="539.2969"/><polygon fill="#181818" points="528,529.2969,532,539.2969,536,529.2969,532,533.2969" style="stroke:#181818;stroke-width:1.0;"/><line style="stroke:#181818;stroke-width:1.0;" x1="535.5" x2="535.5" y1="711.4033" y2="746.4033"/><polygon fill="#181818" points="531.5,736.4033,535.5,746.4033,539.5,736.4033,535.5,740.4033" style="stroke:#181818;stroke-width:1.0;"/><line style="stroke:#181818;stroke-width:1.0;" x1="535.5" x2="535.5" y1="781.4971" y2="801.4971"/><polygon fill="#181818" points="531.5,791.4971,535.5,801.4971,539.5,791.4971,535.5,795.4971" style="stroke:#181818;stroke-width:1.0;"/><line style="stroke:#181818;stroke-width:1.0;" x1="364" x2="364" y1="643.3906" y2="676.3096"/><polygon fill="#181818" points="360,666.3096,364,676.3096,368,666.3096,364,670.3096" style="stroke:#181818;stroke-width:1.0;"/><line style="stroke:#181818;stroke-width:1.0;" x1="364" x2="364" y1="711.4033" y2="898.4971"/><polygon fill="#181818" points="360,888.4971,364,898.4971,368,888.4971,364,892.4971" style="stroke:#181818;stroke-width:1.0;"/><line style="stroke:#181818;stroke-width:1.0;" x1="535.5" x2="535.5" y1="643.3906" y2="676.3096"/><polygon fill="#181818" points="531.5,666.3096,535.5,676.3096,539.5,666.3096,535.5,670.3096" style="stroke:#181818;stroke-width:1.0;"/><line style="stroke:#181818;stroke-width:1.0;" x1="402" x2="497.5" y1="631.3906" y2="631.3906"/><polygon fill="#181818" points="487.5,627.3906,497.5,631.3906,487.5,635.3906,491.5,631.3906" style="stroke:#181818;stroke-width:1.0;"/><line style="stroke:#181818;stroke-width:1.0;" x1="532" x2="532" y1="574.3906" y2="594.3906"/><line style="stroke:#181818;stroke-width:1.0;" x1="532" x2="364" y1="594.3906" y2="594.3906"/><line style="stroke:#181818;stroke-width:1.0;" x1="364" x2="364" y1="594.3906" y2="619.3906"/><polygon fill="#181818" points="360,609.3906,364,619.3906,368,609.3906,364,613.3906" style="stroke:#181818;stroke-width:1.0;"/><line style="stroke:#181818;stroke-width:1.0;" x1="573.5" x2="702" y1="631.3906" y2="631.3906"/><line style="stroke:#181818;stroke-width:1.0;" x1="702" x2="702" y1="631.3906" y2="735.9385"/><polygon fill="#181818" points="698,725.9385,702,735.9385,706,725.9385,702,729.9385" style="stroke:#181818;stroke-width:1.0;"/><line style="stroke:#181818;stroke-width:1.0;" x1="702" x2="702" y1="771.0322" y2="898.4971"/><polygon fill="#181818" points="698,888.4971,702,898.4971,706,888.4971,702,892.4971" style="stroke:#181818;stroke-width:1.0;"/><line style="stroke:#181818;stroke-width:1.0;" x1="364" x2="702" y1="898.4971" y2="898.4971"/><line style="stroke:#181818;stroke-width:1.0;" x1="334" x2="334" y1="1249.3535" y2="1284.3535"/><polygon fill="#181818" points="330,1274.3535,334,1284.3535,338,1274.3535,334,1278.3535" style="stroke:#181818;stroke-width:1.0;"/><line style="stroke:#181818;stroke-width:1.0;" x1="334" x2="334" y1="1319.4473" y2="1354.4473"/><polygon fill="#181818" points="330,1344.4473,334,1354.4473,338,1344.4473,334,1348.4473" style="stroke:#181818;stroke-width:1.0;"/><line style="stroke:#181818;stroke-width:1.0;" x1="334" x2="334" y1="1389.541" y2="1409.541"/><polygon fill="#181818" points="330,1399.541,334,1409.541,338,1399.541,334,1403.541" style="stroke:#181818;stroke-width:1.0;"/><line style="stroke:#181818;stroke-width:1.0;" x1="408.25" x2="334" y1="1192.2598" y2="1192.2598"/><line style="stroke:#181818;stroke-width:1.0;" x1="334" x2="334" y1="1192.2598" y2="1214.2598"/><polygon fill="#181818" points="330,1204.2598,334,1214.2598,338,1204.2598,334,1208.2598" style="stroke:#181818;stroke-width:1.0;"/><line style="stroke:#181818;stroke-width:1.0;" x1="484.25" x2="558.5" y1="1192.2598" y2="1192.2598"/><line style="stroke:#181818;stroke-width:1.0;" x1="558.5" x2="558.5" y1="1192.2598" y2="1214.2598"/><polygon fill="#181818" points="554.5,1204.2598,558.5,1214.2598,562.5,1204.2598,558.5,1208.2598" style="stroke:#181818;stroke-width:1.0;"/><line style="stroke:#181818;stroke-width:1.0;" x1="334" x2="334" y1="1444.6348" y2="1462.6348"/><line style="stroke:#181818;stroke-width:1.0;" x1="334" x2="434.25" y1="1462.6348" y2="1462.6348"/><polygon fill="#181818" points="424.25,1458.6348,434.25,1462.6348,424.25,1466.6348,428.25,1462.6348" style="stroke:#181818;stroke-width:1.0;"/><line style="stroke:#181818;stroke-width:1.0;" x1="558.5" x2="558.5" y1="1249.3535" y2="1462.6348"/><line style="stroke:#181818;stroke-width:1.0;" x1="558.5" x2="458.25" y1="1462.6348" y2="1462.6348"/><polygon fill="#181818" points="468.25,1458.6348,458.25,1462.6348,468.25,1466.6348,464.25,1462.6348" style="stroke:#181818;stroke-width:1.0;"/><line style="stroke:#181818;stroke-width:1.0;" x1="446.25" x2="446.25" y1="1160.2598" y2="1180.2598"/><polygon fill="#181818" points="442.25,1170.2598,446.25,1180.2598,450.25,1170.2598,446.25,1174.2598" style="stroke:#181818;stroke-width:1.0;"/><line style="stroke:#181818;stroke-width:1.0;" x1="718" x2="718" y1="1160.2598" y2="1180.2598"/><polygon fill="#181818" points="714,1170.2598,718,1180.2598,722,1170.2598,718,1174.2598" style="stroke:#181818;stroke-width:1.0;"/><line style="stroke:#181818;stroke-width:1.0;" x1="909" x2="909" y1="1160.2598" y2="1180.2598"/><polygon fill="#181818" points="905,1170.2598,909,1180.2598,913,1170.2598,909,1174.2598" style="stroke:#181818;stroke-width:1.0;"/><line style="stroke:#181818;stroke-width:1.0;" x1="909" x2="909" y1="1215.3535" y2="1250.3535"/><polygon fill="#181818" points="905,1240.3535,909,1250.3535,913,1240.3535,909,1244.3535" style="stroke:#181818;stroke-width:1.0;"/><line style="stroke:#181818;stroke-width:1.0;" x1="909" x2="909" y1="1285.4473" y2="1320.4473"/><polygon fill="#181818" points="905,1310.4473,909,1320.4473,913,1310.4473,909,1314.4473" style="stroke:#181818;stroke-width:1.0;"/><line style="stroke:#181818;stroke-width:1.0;" x1="101.5" x2="101.5" y1="1092.2471" y2="1125.166"/><polygon fill="#181818" points="97.5,1115.166,101.5,1125.166,105.5,1115.166,101.5,1119.166" style="stroke:#181818;stroke-width:1.0;"/><line style="stroke:#181818;stroke-width:1.0;" x1="101.5" x2="101.5" y1="1160.2598" y2="1494.6348"/><polygon fill="#181818" points="97.5,1484.6348,101.5,1494.6348,105.5,1484.6348,101.5,1488.6348" style="stroke:#181818;stroke-width:1.0;"/><line style="stroke:#181818;stroke-width:1.0;" x1="446.25" x2="446.25" y1="1092.2471" y2="1125.166"/><polygon fill="#181818" points="442.25,1115.166,446.25,1125.166,450.25,1115.166,446.25,1119.166" style="stroke:#181818;stroke-width:1.0;"/><line style="stroke:#181818;stroke-width:1.0;" x1="446.25" x2="446.25" y1="1474.6348" y2="1494.6348"/><polygon fill="#181818" points="442.25,1484.6348,446.25,1494.6348,450.25,1484.6348,446.25,1488.6348" style="stroke:#181818;stroke-width:1.0;"/><line style="stroke:#181818;stroke-width:1.0;" x1="718" x2="718" y1="1092.2471" y2="1125.166"/><polygon fill="#181818" points="714,1115.166,718,1125.166,722,1115.166,718,1119.166" style="stroke:#181818;stroke-width:1.0;"/><line style="stroke:#181818;stroke-width:1.0;" x1="718" x2="718" y1="1215.3535" y2="1494.6348"/><polygon fill="#181818" points="714,1484.6348,718,1494.6348,722,1484.6348,718,1488.6348" style="stroke:#181818;stroke-width:1.0;"/><line style="stroke:#181818;stroke-width:1.0;" x1="909" x2="909" y1="1092.2471" y2="1125.166"/><polygon fill="#181818" points="905,1115.166,909,1125.166,913,1115.166,909,1119.166" style="stroke:#181818;stroke-width:1.0;"/><line style="stroke:#181818;stroke-width:1.0;" x1="155.5" x2="387.75" y1="1080.2471" y2="1080.2471"/><polygon fill="#181818" points="377.75,1076.2471,387.75,1080.2471,377.75,1084.2471,381.75,1080.2471" style="stroke:#181818;stroke-width:1.0;"/><line style="stroke:#181818;stroke-width:1.0;" x1="504.75" x2="669.5" y1="1080.2471" y2="1080.2471"/><polygon fill="#181818" points="659.5,1076.2471,669.5,1080.2471,659.5,1084.2471,663.5,1080.2471" style="stroke:#181818;stroke-width:1.0;"/><line style="stroke:#181818;stroke-width:1.0;" x1="766.5" x2="877.5" y1="1080.2471" y2="1080.2471"/><polygon fill="#181818" points="867.5,1076.2471,877.5,1080.2471,867.5,1084.2471,871.5,1080.2471" style="stroke:#181818;stroke-width:1.0;"/><line style="stroke:#181818;stroke-width:1.0;" x1="532" x2="532" y1="1025.0596" y2="1052.0596"/><line style="stroke:#181818;stroke-width:1.0;" x1="532" x2="101.5" y1="1052.0596" y2="1052.0596"/><line style="stroke:#181818;stroke-width:1.0;" x1="101.5" x2="101.5" y1="1052.0596" y2="1068.2471"/><polygon fill="#181818" points="97.5,1058.2471,101.5,1068.2471,105.5,1058.2471,101.5,1062.2471" style="stroke:#181818;stroke-width:1.0;"/><line style="stroke:#181818;stroke-width:1.0;" x1="940.5" x2="1046.5" y1="1080.2471" y2="1080.2471"/><line style="stroke:#181818;stroke-width:1.0;" x1="1046.5" x2="1046.5" y1="1080.2471" y2="1494.6348"/><polygon fill="#181818" points="1042.5,1484.6348,1046.5,1494.6348,1050.5,1484.6348,1046.5,1488.6348" style="stroke:#181818;stroke-width:1.0;"/><line style="stroke:#181818;stroke-width:1.0;" x1="101.5" x2="1046.5" y1="1494.6348" y2="1494.6348"/><line style="stroke:#181818;stroke-width:1.0;" x1="532" x2="532" y1="950.6846" y2="989.9658"/><polygon fill="#181818" points="528,979.9658,532,989.9658,536,979.9658,532,983.9658" style="stroke:#181818;stroke-width:1.0;"/><line style="stroke:#181818;stroke-width:1.0;" x1="576.5" x2="1073.5" y1="1526.6348" y2="1526.6348"/><polygon fill="#181818" points="1069.5,1270.9355,1073.5,1260.9355,1077.5,1270.9355,1073.5,1266.9355" style="stroke:#181818;stroke-width:1.0;"/><line style="stroke:#181818;stroke-width:1.0;" x1="1073.5" x2="1073.5" y1="938.6846" y2="1526.6348"/><line style="stroke:#181818;stroke-width:1.0;" x1="1073.5" x2="544" y1="938.6846" y2="938.6846"/><polygon fill="#181818" points="554,934.6846,544,938.6846,554,942.6846,550,938.6846" style="stroke:#181818;stroke-width:1.0;"/><line style="stroke:#181818;stroke-width:1.0;" x1="532" x2="532" y1="1494.6348" y2="1514.6348"/><polygon fill="#181818" points="528,1504.6348,532,1514.6348,536,1504.6348,532,1508.6348" style="stroke:#181818;stroke-width:1.0;"/><line style="stroke:#181818;stroke-width:1.0;" x1="532" x2="532" y1="898.4971" y2="926.6846"/><polygon fill="#181818" points="528,916.6846,532,926.6846,536,916.6846,532,920.6846" style="stroke:#181818;stroke-width:1.0;"/><line style="stroke:#181818;stroke-width:1.0;" x1="1393" x2="1393" y1="519.2969" y2="539.2969"/><polygon fill="#181818" points="1389,529.2969,1393,539.2969,1397,529.2969,1393,533.2969" style="stroke:#181818;stroke-width:1.0;"/><line style="stroke:#181818;stroke-width:1.0;" x1="1393" x2="1393" y1="574.3906" y2="594.3906"/><polygon fill="#181818" points="1389,584.3906,1393,594.3906,1397,584.3906,1393,588.3906" style="stroke:#181818;stroke-width:1.0;"/><line style="stroke:#181818;stroke-width:1.0;" x1="1211" x2="1211" y1="781.4971" y2="801.4971"/><polygon fill="#181818" points="1207,791.4971,1211,801.4971,1215,791.4971,1211,795.4971" style="stroke:#181818;stroke-width:1.0;"/><line style="stroke:#181818;stroke-width:1.0;" x1="1211" x2="1211" y1="836.5908" y2="871.5908"/><polygon fill="#181818" points="1207,861.5908,1211,871.5908,1215,861.5908,1211,865.5908" style="stroke:#181818;stroke-width:1.0;"/><line style="stroke:#181818;stroke-width:1.0;" x1="1211" x2="1211" y1="906.6846" y2="934.8721"/><polygon fill="#181818" points="1207,924.8721,1211,934.8721,1215,924.8721,1211,928.8721" style="stroke:#181818;stroke-width:1.0;"/><line style="stroke:#181818;stroke-width:1.0;" x1="1211" x2="1211" y1="712.5674" y2="746.4033"/><polygon fill="#181818" points="1207,736.4033,1211,746.4033,1215,736.4033,1211,740.4033" style="stroke:#181818;stroke-width:1.0;"/><line style="stroke:#181818;stroke-width:1.0;" x1="1211" x2="1211" y1="969.9658" y2="1036.2471"/><polygon fill="#181818" points="1207,1026.2471,1211,1036.2471,1215,1026.2471,1211,1030.2471" style="stroke:#181818;stroke-width:1.0;"/><line style="stroke:#181818;stroke-width:1.0;" x1="1415.5" x2="1415.5" y1="712.5674" y2="746.4033"/><polygon fill="#181818" points="1411.5,736.4033,1415.5,746.4033,1419.5,736.4033,1415.5,740.4033" style="stroke:#181818;stroke-width:1.0;"/><line style="stroke:#181818;stroke-width:1.0;" x1="1415.5" x2="1415.5" y1="781.4971" y2="1036.2471"/><polygon fill="#181818" points="1411.5,1026.2471,1415.5,1036.2471,1419.5,1026.2471,1415.5,1030.2471" style="stroke:#181818;stroke-width:1.0;"/><line style="stroke:#181818;stroke-width:1.0;" x1="1249" x2="1377.5" y1="700.5674" y2="700.5674"/><polygon fill="#181818" points="1367.5,696.5674,1377.5,700.5674,1367.5,704.5674,1371.5,700.5674" style="stroke:#181818;stroke-width:1.0;"/><line style="stroke:#181818;stroke-width:1.0;" x1="1393" x2="1393" y1="629.4844" y2="663.5674"/><line style="stroke:#181818;stroke-width:1.0;" x1="1393" x2="1211" y1="663.5674" y2="663.5674"/><line style="stroke:#181818;stroke-width:1.0;" x1="1211" x2="1211" y1="663.5674" y2="688.5674"/><polygon fill="#181818" points="1207,678.5674,1211,688.5674,1215,678.5674,1211,682.5674" style="stroke:#181818;stroke-width:1.0;"/><line style="stroke:#181818;stroke-width:1.0;" x1="1453.5" x2="1593" y1="700.5674" y2="700.5674"/><line style="stroke:#181818;stroke-width:1.0;" x1="1593" x2="1593" y1="700.5674" y2="832.626"/><polygon fill="#181818" points="1589,822.626,1593,832.626,1597,822.626,1593,826.626" style="stroke:#181818;stroke-width:1.0;"/><line style="stroke:#181818;stroke-width:1.0;" x1="1593" x2="1593" y1="867.7197" y2="1036.2471"/><polygon fill="#181818" points="1589,1026.2471,1593,1036.2471,1597,1026.2471,1593,1030.2471" style="stroke:#181818;stroke-width:1.0;"/><line style="stroke:#181818;stroke-width:1.0;" x1="1211" x2="1593" y1="1036.2471" y2="1036.2471"/><line style="stroke:#181818;stroke-width:1.0;" x1="912" x2="532" y1="424.5938" y2="424.5938"/><line style="stroke:#181818;stroke-width:1.0;" x1="532" x2="532" y1="424.5938" y2="484.2031"/><polygon fill="#181818" points="528,474.2031,532,484.2031,536,474.2031,532,478.2031" style="stroke:#181818;stroke-width:1.0;"/><line style="stroke:#181818;stroke-width:1.0;" x1="1017" x2="1393" y1="424.5938" y2="424.5938"/><line style="stroke:#181818;stroke-width:1.0;" x1="1393" x2="1393" y1="424.5938" y2="484.2031"/><polygon fill="#181818" points="1389,474.2031,1393,484.2031,1397,474.2031,1393,478.2031" style="stroke:#181818;stroke-width:1.0;"/><line style="stroke:#181818;stroke-width:1.0;" x1="532" x2="532" y1="1538.6348" y2="1568.6348"/><line style="stroke:#181818;stroke-width:1.0;" x1="532" x2="952.5" y1="1568.6348" y2="1568.6348"/><polygon fill="#181818" points="942.5,1564.6348,952.5,1568.6348,942.5,1572.6348,946.5,1568.6348" style="stroke:#181818;stroke-width:1.0;"/><line style="stroke:#181818;stroke-width:1.0;" x1="1393" x2="1393" y1="1036.2471" y2="1568.6348"/><line style="stroke:#181818;stroke-width:1.0;" x1="1393" x2="976.5" y1="1568.6348" y2="1568.6348"/><polygon fill="#181818" points="986.5,1564.6348,976.5,1568.6348,986.5,1572.6348,982.5,1568.6348" style="stroke:#181818;stroke-width:1.0;"/><line style="stroke:#181818;stroke-width:1.0;" x1="964.5" x2="964.5" y1="380.5938" y2="412.5938"/><polygon fill="#181818" points="960.5,402.5938,964.5,412.5938,968.5,402.5938,964.5,406.5938" style="stroke:#181818;stroke-width:1.0;"/><line style="stroke:#181818;stroke-width:1.0;" x1="964.5" x2="964.5" y1="1580.6348" y2="1600.6348"/><polygon fill="#181818" points="960.5,1590.6348,964.5,1600.6348,968.5,1590.6348,964.5,1594.6348" style="stroke:#181818;stroke-width:1.0;"/><!--SRC=[bLLDRzim3BtxLn0z9OSXNR5JWw4eccpjiBL5agBOKRNfMAWYUHBjD2ZwtqV9-R0Jkq5yaqK-ae-F54bI2DTv3ayEBVnGPWczoNWwWmUjLlqeSYGiHPSFEMgOe8W9xWN9ClWCeoZdMqdIQ3YxBYX3JJ8MuNoJOVnw1kzH1FnTXYDSkvMEfsIic2Eane8J9IRmwtashEna2hsPUULW-2OTkQi-U5Je_KNN3nO1ROInIR3os_wS8e5qjJGO-JkGBR0oGkKGUlUcVymb5Movzj69JAEFAFA9xLasSmlcDJh-2AazILiAGi090pBFjsQ1qzWYwbh-Dq8f-3cUmK3aSf1WAMDqmvspJ-5sDdk4Y_FpTbwgcfXUXCeT59C8d0YtaN0NorEnXVjs_lKJk1k5mWBvdWoRD_UYb7E6vKluRUPIxrVaFqScRuJTIpPZmQ6rB0LjIAPhzTGo3GtO7YtcAAY94PGhDQ5bUJfOIihWwQv6t5PO8j_m4WkRT1STO8FaHy5yX2IasfJNCDqmwR5ZeyaQ1Iy5aT4jycZWFpvCcwqUlClaOy3QOJ869as7Xqur2LnydlwENS95pWDdLnqC7t9fCRNeCdJWGia-eTWmYcRjy-qN6rJiEZ1QTHoAwmgQ9rv6JtVm8XnF85EW-0ShTq-sdJfgLcpnN-6zWwvQl9kIgdVniU3KMSvh1euef6DWk-ghZMI7Y7YAJ457eavmOKgi9X9IQnQDhTeI_kYIEtsg3oQxSrHXcKb-ONh-YR65rbBFhzRJm5jrjvBtrsS87TwZrWNQcbcbNlIRm07V9RvUBhDcKGsT33Uq2dqJJCn0URpJT-tuZVpIQJv45UbYsoCcihj3Hr-jriQqlHydxFGm9LANGicaJXGiqBb6YXqRMoCjZNtTdx1A0PlULdBmClaF]--></g></svg>