<?xml version="1.0" encoding="us-ascii" standalone="no"?><svg xmlns="http://www.w3.org/2000/svg" xmlns:xlink="http://www.w3.org/1999/xlink" contentStyleType="text/css" height="371px" preserveAspectRatio="none" style="width:467px;height:371px;background:#FFFFFF;" version="1.1" viewBox="0 0 467 371" width="467px" zoomAndPan="magnify"><defs/><g><!--cluster IoT Management System--><g id="cluster_IoT Management System"><rect fill="none" height="291" rx="2.5" ry="2.5" style="stroke:#181818;stroke-width:1.0;" width="379" x="82" y="7"/><text fill="#000000" font-family="sans-serif" font-size="14" font-weight="bold" lengthAdjust="spacing" textLength="170" x="186.5" y="23.5332">IoT Management System</text></g><g id="elem_Login"><ellipse cx="409.234" cy="217.9517" fill="#F1F1F1" rx="36.234" ry="15.4517" style="stroke:#181818;stroke-width:0.5;"/><text fill="#000000" font-family="sans-serif" font-size="14" lengthAdjust="spacing" textLength="35" x="391.734" y="221.6802">Login</text></g><g id="elem_Logout"><ellipse cx="177.0997" cy="58.9523" fill="#F1F1F1" rx="42.5997" ry="15.4523" style="stroke:#181818;stroke-width:0.5;"/><text fill="#000000" font-family="sans-serif" font-size="14" lengthAdjust="spacing" textLength="44" x="154.8355" y="62.7639">Logout</text></g><g id="elem_View Devices"><ellipse cx="176.9277" cy="126.0855" fill="#F1F1F1" rx="68.4277" ry="16.0855" style="stroke:#181818;stroke-width:0.5;"/><text fill="#000000" font-family="sans-serif" font-size="14" lengthAdjust="spacing" textLength="83" x="132.4277" y="130.6021">View Devices</text></g><g id="elem_Control Device"><ellipse cx="176.9259" cy="193.7852" fill="#F1F1F1" rx="71.9259" ry="16.7852" style="stroke:#181818;stroke-width:0.5;"/><text fill="#000000" font-family="sans-serif" font-size="14" lengthAdjust="spacing" textLength="93" x="127.4259" y="198.3018">Control Device</text></g><g id="elem_View Sensor Data"><ellipse cx="177.0785" cy="264.2157" fill="#F1F1F1" rx="79.0785" ry="18.2157" style="stroke:#181818;stroke-width:0.5;"/><text fill="#000000" font-family="sans-serif" font-size="14" lengthAdjust="spacing" textLength="112" x="119.6751" y="268.3395">View Sensor Data</text></g><!--entity User--><g id="elem_User"><ellipse cx="20.5" cy="163.5" fill="#F1F1F1" rx="8" ry="8" style="stroke:#181818;stroke-width:0.5;"/><path d="M20.5,171.5 L20.5,198.5 M7.5,179.5 L33.5,179.5 M20.5,198.5 L7.5,213.5 M20.5,198.5 L33.5,213.5 " fill="none" style="stroke:#181818;stroke-width:0.5;"/><text fill="#000000" font-family="sans-serif" font-size="14" lengthAdjust="spacing" textLength="29" x="6" y="229.5332">User</text></g><!--link User to Login--><g id="link_User_Login"><path d="M30.08,233.03 C37.47,256.55 50.77,284.65 74,299 C180.59,364.88 332.1414,271.6062 384.9314,234.7262 " fill="none" id="User-to-Login" style="stroke:#181818;stroke-width:1.0;"/><polygon fill="#181818" points="389.85,231.29,380.1813,233.1653,385.7512,234.1535,384.7629,239.7234,389.85,231.29" style="stroke:#181818;stroke-width:1.0;"/></g><!--link User to Logout--><g id="link_User_Logout"><path d="M33.37,154.88 C41.65,133.61 54.72,108.38 74,92 C91.59,77.06 110.208,70.1295 130.778,65.6395 " fill="none" id="User-to-Logout" style="stroke:#181818;stroke-width:1.0;"/><polygon fill="#181818" points="136.64,64.36,126.994,62.3713,131.755,65.4263,128.7001,70.1873,136.64,64.36" style="stroke:#181818;stroke-width:1.0;"/></g><!--link User to View Devices--><g id="link_User_View Devices"><path d="M35.13,183.39 C45.37,175.8 60,165.78 74,159 C91.84,150.37 106.7437,144.9364 124.7837,139.5164 " fill="none" id="User-to-View Devices" style="stroke:#181818;stroke-width:1.0;"/><polygon fill="#181818" points="130.53,137.79,120.7597,136.5488,125.7415,139.2287,123.0616,144.2105,130.53,137.79" style="stroke:#181818;stroke-width:1.0;"/></g><!--link User to Control Device--><g id="link_User_Control Device"><path d="M35.21,194 C51.09,194 72.46,194 98.87,194 " fill="none" id="User-to-Control Device" style="stroke:#181818;stroke-width:1.0;"/><polygon fill="#181818" points="104.87,194,95.87,190,99.87,194,95.87,198,104.87,194" style="stroke:#181818;stroke-width:1.0;"/></g><!--link User to View Sensor Data--><g id="link_User_View Sensor Data"><path d="M35.23,204.18 C45.52,211.48 60.16,221.2 74,228 C91.19,236.46 105.1835,241.976 122.6535,247.856 " fill="none" id="User-to-View Sensor Data" style="stroke:#181818;stroke-width:1.0;"/><polygon fill="#181818" points="128.34,249.77,121.0862,243.108,123.6012,248.175,118.5342,250.6901,128.34,249.77" style="stroke:#181818;stroke-width:1.0;"/></g><!--link View Devices to Login--><g id="link_View Devices_Login"><path d="M223.09,137.95 C256.81,147.55 303.69,162.32 343,180 C358.86,187.13 370.7056,193.9083 383.3056,201.8583 " fill="none" id="View Devices-to-Login" style="stroke:#181818;stroke-width:1.0;stroke-dasharray:7.0,7.0;"/><polygon fill="#181818" points="388.38,205.06,382.9029,196.8746,384.1514,202.3919,378.634,203.6404,388.38,205.06" style="stroke:#181818;stroke-width:1.0;"/><text fill="#000000" font-family="sans-serif" font-size="13" lengthAdjust="spacing" textLength="55" x="287" y="155.4951">&#171;include&#187;</text></g><!--link Control Device to Login--><g id="link_Control Device_Login"><path d="M243.29,200.82 C285.79,205.25 333.5424,210.2373 367.8524,213.8173 " fill="none" id="Control Device-to-Login" style="stroke:#181818;stroke-width:1.0;stroke-dasharray:7.0,7.0;"/><polygon fill="#181818" points="373.82,214.44,365.2837,209.5276,368.847,213.9211,364.4535,217.4844,373.82,214.44" style="stroke:#181818;stroke-width:1.0;"/><text fill="#000000" font-family="sans-serif" font-size="13" lengthAdjust="spacing" textLength="55" x="287" y="202.4951">&#171;include&#187;</text></g><!--link View Sensor Data to Login--><g id="link_View Sensor Data_Login"><path d="M245.39,254.88 C275.43,250.32 311.16,244.23 343,237 C355.15,234.24 362.646,232.2439 373.976,228.8239 " fill="none" id="View Sensor Data-to-Login" style="stroke:#181818;stroke-width:1.0;stroke-dasharray:7.0,7.0;"/><polygon fill="#181818" points="379.72,227.09,369.9481,225.8614,374.9333,228.5349,372.2599,233.5201,379.72,227.09" style="stroke:#181818;stroke-width:1.0;"/><text fill="#000000" font-family="sans-serif" font-size="13" lengthAdjust="spacing" textLength="55" x="287" y="233.4951">&#171;include&#187;</text></g><!--SRC=[VOv12i8m44NtESNGbLcq1v3IZTq8kggw3-aO0-aC95D5nBjhYmXjeTi_xx_v0Qy2mX2zkmcqFg8LpwIKiS8HpWcZKaDeo0M4RCydE1eo3ZiaWUQP1BiCNah124EULx0viFEavn7tegVSnUC3QhnxYscAxvWaSlWTzRBL8ANlmDg86QLJ5nJ5VmPieImzsT2tM5K3EfElmujlAxXwVm00]--></g></svg>