<?xml version="1.0" encoding="us-ascii" standalone="no"?><svg xmlns="http://www.w3.org/2000/svg" xmlns:xlink="http://www.w3.org/1999/xlink" contentStyleType="text/css" height="584px" preserveAspectRatio="none" style="width:1008px;height:584px;background:#FFFFFF;" version="1.1" viewBox="0 0 1008 584" width="1008px" zoomAndPan="magnify"><defs/><g><text fill="#000000" font-family="sans-serif" font-size="14" font-weight="bold" lengthAdjust="spacing" textLength="400" x="305.5" y="29.5332">Scheduled Device Status Publish (Based on Actual Code)</text><rect fill="#FFFFFF" height="397.4063" style="stroke:#181818;stroke-width:1.0;" width="10" x="303.5" y="133.9219"/><rect fill="#FFFFFF" height="30.3516" style="stroke:#181818;stroke-width:1.0;" width="10" x="454.5" y="164.2734"/><rect fill="#FFFFFF" height="152.2422" style="stroke:#181818;stroke-width:1.0;" width="10" x="747" y="372.0859"/><rect fill="none" height="438.1094" style="stroke:#000000;stroke-width:1.5;" width="992" x="10" y="93.2188"/><rect fill="none" height="314.7031" style="stroke:#000000;stroke-width:1.5;" width="771.5" x="220.5" y="209.625"/><rect fill="none" height="130.2422" style="stroke:#000000;stroke-width:1.5;" width="460" x="522" y="387.0859"/><line style="stroke:#181818;stroke-width:0.5;stroke-dasharray:5.0,5.0;" x1="81" x2="81" y1="76.2188" y2="548.3281"/><line style="stroke:#181818;stroke-width:0.5;stroke-dasharray:5.0,5.0;" x1="308.5" x2="308.5" y1="76.2188" y2="548.3281"/><line style="stroke:#181818;stroke-width:0.5;stroke-dasharray:5.0,5.0;" x1="459" x2="459" y1="76.2188" y2="548.3281"/><line style="stroke:#181818;stroke-width:0.5;stroke-dasharray:5.0,5.0;" x1="582" x2="582" y1="76.2188" y2="548.3281"/><line style="stroke:#181818;stroke-width:0.5;stroke-dasharray:5.0,5.0;" x1="752" x2="752" y1="76.2188" y2="548.3281"/><rect fill="#E2E2F0" height="31.6094" rx="2.5" ry="2.5" style="stroke:#181818;stroke-width:0.5;" width="123" x="20" y="43.6094"/><text fill="#000000" font-family="sans-serif" font-size="14" lengthAdjust="spacing" textLength="109" x="27" y="65.1426">Spring Scheduler</text><rect fill="#E2E2F0" height="31.6094" rx="2.5" ry="2.5" style="stroke:#181818;stroke-width:0.5;" width="123" x="20" y="547.3281"/><text fill="#000000" font-family="sans-serif" font-size="14" lengthAdjust="spacing" textLength="109" x="27" y="568.8613">Spring Scheduler</text><rect fill="#E2E2F0" height="31.6094" rx="2.5" ry="2.5" style="stroke:#181818;stroke-width:0.5;" width="156" x="230.5" y="43.6094"/><text fill="#000000" font-family="sans-serif" font-size="14" lengthAdjust="spacing" textLength="142" x="237.5" y="65.1426">DeviceStatusPublisher</text><rect fill="#E2E2F0" height="31.6094" rx="2.5" ry="2.5" style="stroke:#181818;stroke-width:0.5;" width="156" x="230.5" y="547.3281"/><text fill="#000000" font-family="sans-serif" font-size="14" lengthAdjust="spacing" textLength="142" x="237.5" y="568.8613">DeviceStatusPublisher</text><rect fill="#E2E2F0" height="31.6094" rx="2.5" ry="2.5" style="stroke:#181818;stroke-width:0.5;" width="125" x="397" y="43.6094"/><text fill="#000000" font-family="sans-serif" font-size="14" lengthAdjust="spacing" textLength="111" x="404" y="65.1426">DeviceRepository</text><rect fill="#E2E2F0" height="31.6094" rx="2.5" ry="2.5" style="stroke:#181818;stroke-width:0.5;" width="125" x="397" y="547.3281"/><text fill="#000000" font-family="sans-serif" font-size="14" lengthAdjust="spacing" textLength="111" x="404" y="568.8613">DeviceRepository</text><rect fill="#E2E2F0" height="31.6094" rx="2.5" ry="2.5" style="stroke:#181818;stroke-width:0.5;" width="100" x="532" y="43.6094"/><text fill="#000000" font-family="sans-serif" font-size="14" lengthAdjust="spacing" textLength="86" x="539" y="65.1426">MQTT Broker</text><rect fill="#E2E2F0" height="31.6094" rx="2.5" ry="2.5" style="stroke:#181818;stroke-width:0.5;" width="100" x="532" y="547.3281"/><text fill="#000000" font-family="sans-serif" font-size="14" lengthAdjust="spacing" textLength="86" x="539" y="568.8613">MQTT Broker</text><rect fill="#E2E2F0" height="31.6094" rx="2.5" ry="2.5" style="stroke:#181818;stroke-width:0.5;" width="104" x="700" y="43.6094"/><text fill="#000000" font-family="sans-serif" font-size="14" lengthAdjust="spacing" textLength="90" x="707" y="65.1426">ESP32 Device</text><rect fill="#E2E2F0" height="31.6094" rx="2.5" ry="2.5" style="stroke:#181818;stroke-width:0.5;" width="104" x="700" y="547.3281"/><text fill="#000000" font-family="sans-serif" font-size="14" lengthAdjust="spacing" textLength="90" x="707" y="568.8613">ESP32 Device</text><rect fill="#FFFFFF" height="397.4063" style="stroke:#181818;stroke-width:1.0;" width="10" x="303.5" y="133.9219"/><rect fill="#FFFFFF" height="30.3516" style="stroke:#181818;stroke-width:1.0;" width="10" x="454.5" y="164.2734"/><rect fill="#FFFFFF" height="152.2422" style="stroke:#181818;stroke-width:1.0;" width="10" x="747" y="372.0859"/><path d="M10,93.2188 L83,93.2188 L83,101.5703 L73,111.5703 L10,111.5703 L10,93.2188 " fill="#EEEEEE" style="stroke:#000000;stroke-width:1.5;"/><rect fill="none" height="438.1094" style="stroke:#000000;stroke-width:1.5;" width="992" x="10" y="93.2188"/><text fill="#000000" font-family="sans-serif" font-size="13" font-weight="bold" lengthAdjust="spacing" textLength="28" x="25" y="107.7139">loop</text><text fill="#000000" font-family="sans-serif" font-size="11" font-weight="bold" lengthAdjust="spacing" textLength="243" x="98" y="106.6377">[Every 10 seconds (@Scheduled fixedDelay)]</text><polygon fill="#181818" points="291.5,129.9219,301.5,133.9219,291.5,137.9219,295.5,133.9219" style="stroke:#181818;stroke-width:1.0;"/><line style="stroke:#181818;stroke-width:1.0;" x1="81.5" x2="297.5" y1="133.9219" y2="133.9219"/><text fill="#000000" font-family="sans-serif" font-size="13" font-weight="bold" lengthAdjust="spacing" textLength="7" x="88.5" y="129.0654">1</text><text fill="#000000" font-family="sans-serif" font-size="13" lengthAdjust="spacing" textLength="192" x="99.5" y="129.0654">publishDeviceStatusPeriodically()</text><polygon fill="#181818" points="442.5,160.2734,452.5,164.2734,442.5,168.2734,446.5,164.2734" style="stroke:#181818;stroke-width:1.0;"/><line style="stroke:#181818;stroke-width:1.0;" x1="313.5" x2="448.5" y1="164.2734" y2="164.2734"/><text fill="#000000" font-family="sans-serif" font-size="13" font-weight="bold" lengthAdjust="spacing" textLength="7" x="320.5" y="159.417">2</text><text fill="#000000" font-family="sans-serif" font-size="13" lengthAdjust="spacing" textLength="43" x="331.5" y="159.417">findAll()</text><line style="stroke:#181818;stroke-width:1.0;" x1="314.5" x2="324.5" y1="194.625" y2="190.625"/><line style="stroke:#181818;stroke-width:1.0;" x1="314.5" x2="324.5" y1="194.625" y2="198.625"/><line style="stroke:#181818;stroke-width:1.0;stroke-dasharray:2.0,2.0;" x1="313.5" x2="458.5" y1="194.625" y2="194.625"/><text fill="#000000" font-family="sans-serif" font-size="13" font-weight="bold" lengthAdjust="spacing" textLength="7" x="330.5" y="189.7686">3</text><text fill="#000000" font-family="sans-serif" font-size="13" lengthAdjust="spacing" textLength="75" x="341.5" y="189.7686">List&lt;Device&gt;</text><path d="M220.5,209.625 L293.5,209.625 L293.5,217.9766 L283.5,227.9766 L220.5,227.9766 L220.5,209.625 " fill="#EEEEEE" style="stroke:#000000;stroke-width:1.5;"/><rect fill="none" height="314.7031" style="stroke:#000000;stroke-width:1.5;" width="771.5" x="220.5" y="209.625"/><text fill="#000000" font-family="sans-serif" font-size="13" font-weight="bold" lengthAdjust="spacing" textLength="28" x="235.5" y="224.1201">loop</text><text fill="#000000" font-family="sans-serif" font-size="11" font-weight="bold" lengthAdjust="spacing" textLength="94" x="308.5" y="223.0439">[For each device]</text><line style="stroke:#181818;stroke-width:1.0;" x1="313.5" x2="355.5" y1="271.3555" y2="271.3555"/><line style="stroke:#181818;stroke-width:1.0;" x1="355.5" x2="355.5" y1="271.3555" y2="284.3555"/><line style="stroke:#181818;stroke-width:1.0;" x1="314.5" x2="355.5" y1="284.3555" y2="284.3555"/><polygon fill="#181818" points="324.5,280.3555,314.5,284.3555,324.5,288.3555,320.5,284.3555" style="stroke:#181818;stroke-width:1.0;"/><text fill="#000000" font-family="sans-serif" font-size="13" font-weight="bold" lengthAdjust="spacing" textLength="7" x="320.5" y="266.499">4</text><text fill="#000000" font-family="sans-serif" font-size="13" lengthAdjust="spacing" textLength="116" x="331.5" y="266.499">Build JSON payload</text><path d="M459,232.9766 L459,307.9766 L538,307.9766 L538,242.9766 L528,232.9766 L459,232.9766 " fill="#FEFFDD" style="stroke:#181818;stroke-width:0.5;"/><path d="M528,232.9766 L528,242.9766 L538,242.9766 L528,232.9766 " fill="#FEFFDD" style="stroke:#181818;stroke-width:0.5;"/><text fill="#000000" font-family="sans-serif" font-size="13" lengthAdjust="spacing" textLength="4" x="465" y="251.4717">{</text><text fill="#000000" font-family="sans-serif" font-size="13" lengthAdjust="spacing" textLength="50" x="473" y="267.8232">deviceId,</text><text fill="#000000" font-family="sans-serif" font-size="13" lengthAdjust="spacing" textLength="36" x="473" y="284.1748">status</text><text fill="#000000" font-family="sans-serif" font-size="13" lengthAdjust="spacing" textLength="4" x="465" y="300.5264">}</text><polygon fill="#181818" points="570,334.7344,580,338.7344,570,342.7344,574,338.7344" style="stroke:#181818;stroke-width:1.0;"/><line style="stroke:#181818;stroke-width:1.0;" x1="313.5" x2="576" y1="338.7344" y2="338.7344"/><text fill="#000000" font-family="sans-serif" font-size="13" font-weight="bold" lengthAdjust="spacing" textLength="7" x="320.5" y="333.8779">5</text><text fill="#000000" font-family="sans-serif" font-size="13" lengthAdjust="spacing" textLength="164" x="331.5" y="333.8779">PUBLISH devices/{id}/status</text><path d="M587,318.3828 L587,344.3828 L645,344.3828 L645,328.3828 L635,318.3828 L587,318.3828 " fill="#FEFFDD" style="stroke:#181818;stroke-width:0.5;"/><path d="M635,318.3828 L635,328.3828 L645,328.3828 L635,318.3828 " fill="#FEFFDD" style="stroke:#181818;stroke-width:0.5;"/><text fill="#000000" font-family="sans-serif" font-size="13" lengthAdjust="spacing" textLength="37" x="593" y="336.8779">QoS 1</text><polygon fill="#181818" points="735,368.0859,745,372.0859,735,376.0859,739,372.0859" style="stroke:#181818;stroke-width:1.0;"/><line style="stroke:#181818;stroke-width:1.0;" x1="582" x2="741" y1="372.0859" y2="372.0859"/><text fill="#000000" font-family="sans-serif" font-size="13" font-weight="bold" lengthAdjust="spacing" textLength="7" x="589" y="367.2295">6</text><text fill="#000000" font-family="sans-serif" font-size="13" lengthAdjust="spacing" textLength="135" x="600" y="367.2295">Deliver status message</text><path d="M522,387.0859 L583,387.0859 L583,395.4375 L573,405.4375 L522,405.4375 L522,387.0859 " fill="#EEEEEE" style="stroke:#000000;stroke-width:1.5;"/><rect fill="none" height="130.2422" style="stroke:#000000;stroke-width:1.5;" width="460" x="522" y="387.0859"/><text fill="#000000" font-family="sans-serif" font-size="13" font-weight="bold" lengthAdjust="spacing" textLength="16" x="537" y="401.5811">alt</text><text fill="#000000" font-family="sans-serif" font-size="11" font-weight="bold" lengthAdjust="spacing" textLength="140" x="598" y="400.5049">[Device status == ACTIVE]</text><polygon fill="#181818" points="593,434.9648,583,438.9648,593,442.9648,589,438.9648" style="stroke:#181818;stroke-width:1.0;"/><line style="stroke:#181818;stroke-width:1.0;" x1="587" x2="746" y1="438.9648" y2="438.9648"/><text fill="#000000" font-family="sans-serif" font-size="13" font-weight="bold" lengthAdjust="spacing" textLength="7" x="599" y="434.1084">7</text><text fill="#000000" font-family="sans-serif" font-size="13" lengthAdjust="spacing" textLength="127" x="610" y="434.1084">PUBLISH sensor data</text><path d="M762,410.4375 L762,452.4375 L972,452.4375 L972,420.4375 L962,410.4375 L762,410.4375 " fill="#FEFFDD" style="stroke:#181818;stroke-width:0.5;"/><path d="M962,410.4375 L962,420.4375 L972,420.4375 L962,410.4375 " fill="#FEFFDD" style="stroke:#181818;stroke-width:0.5;"/><text fill="#000000" font-family="sans-serif" font-size="13" lengthAdjust="spacing" textLength="170" x="768" y="428.9326">Topic: devices/{id}/sensors/...</text><text fill="#000000" font-family="sans-serif" font-size="13" lengthAdjust="spacing" textLength="189" x="768" y="445.2842">Payload: {temperature, humidity}</text><line style="stroke:#000000;stroke-width:1.0;stroke-dasharray:2.0,2.0;" x1="522" x2="982" y1="459.1406" y2="459.1406"/><text fill="#000000" font-family="sans-serif" font-size="11" font-weight="bold" lengthAdjust="spacing" textLength="137" x="527" y="470.5596">[Device status != ACTIVE]</text><line style="stroke:#181818;stroke-width:1.0;" x1="757" x2="799" y1="496.3281" y2="496.3281"/><line style="stroke:#181818;stroke-width:1.0;" x1="799" x2="799" y1="496.3281" y2="509.3281"/><line style="stroke:#181818;stroke-width:1.0;" x1="758" x2="799" y1="509.3281" y2="509.3281"/><polygon fill="#181818" points="768,505.3281,758,509.3281,768,513.3281,764,509.3281" style="stroke:#181818;stroke-width:1.0;"/><text fill="#000000" font-family="sans-serif" font-size="13" font-weight="bold" lengthAdjust="spacing" textLength="7" x="764" y="491.4717">8</text><text fill="#000000" font-family="sans-serif" font-size="13" lengthAdjust="spacing" textLength="92" x="775" y="491.4717">Ignore message</text><!--SRC=[XLFBRjim4BphAxOvEK1iD-rDI8pOiOkwI1kdSdDdnAr5b2O5aZ8g6FxtKAHCFQgal6WVipkx8z8mmn6ID4DQSAImn0DBRS0GKsZO52-SwGn62w9jKWgOfwOW7EubnSieoeaoB6Kv4GOkabmniGkzr0KGtNXThAVnB3L9NH2yeOAVc4lDZ5IbmpPk5_pzQRk5XP9_wfxUx69MoURpftfT1_9c5972I57iNsn1nANCONL0LSBrHz2OIa4rZEuQlNwplqYNo4bfvG1xmi8mdZNBn91xixCuAYOfImddvUZILPFKi0Cns9B1nODRTMtMZYs_e7FE- -KjPQfuuy9uFElCzS2qkV5JpHoMub0Nbt9oV94AB2IpG2yOrASpOujXKJ1EuLlo-0DoKd99Q2WHqh8ejijC21s31JN3cbwrOjf95mAdOA6WhjyR0_ax4CFcr-9XdNojU-lfaT7JjDTqOAmdcS3rEro-VKNajOpjbpDxS-g1OOzQans6WY3oiYSZuURy2klIsrkOts_NpwkM37363AocKMZxaoWnf5Cni5PrjZ9dQTmJnBNGqybaqi5k_0-CuMXmdwEoyocyWgpOCyfCUUg0WqeXm3NsTllmdztEQgvtGYhyHqLBqIZNkhbjKGEcbMyzhohz2W00]--></g></svg>