<?xml version="1.0" encoding="us-ascii" standalone="no"?><svg xmlns="http://www.w3.org/2000/svg" xmlns:xlink="http://www.w3.org/1999/xlink" contentStyleType="text/css" height="1164px" preserveAspectRatio="none" style="width:1485px;height:1164px;background:#FFFFFF;" version="1.1" viewBox="0 0 1485 1164" width="1485px" zoomAndPan="magnify"><defs/><g><text fill="#000000" font-family="sans-serif" font-size="14" font-weight="bold" lengthAdjust="spacing" textLength="317" x="580" y="29.5332">User Command Execution (REST Polling Only)</text><rect fill="#FFFFFF" height="874.9766" style="stroke:#181818;stroke-width:1.0;" width="10" x="208.5" y="197.9219"/><rect fill="#FFFFFF" height="265.1641" style="stroke:#181818;stroke-width:1.0;" width="10" x="473.5" y="228.2734"/><rect fill="#FFFFFF" height="204.4609" style="stroke:#181818;stroke-width:1.0;" width="10" x="705.5" y="258.625"/><rect fill="#FFFFFF" height="60.7031" style="stroke:#181818;stroke-width:1.0;" width="10" x="705.5" y="795.0859"/><rect fill="#FFFFFF" height="30.3516" style="stroke:#181818;stroke-width:1.0;" width="10" x="977.5" y="288.9766"/><rect fill="#FFFFFF" height="160.2422" style="stroke:#181818;stroke-width:1.0;" width="10" x="1344" y="568.1406"/><rect fill="none" height="94.8906" style="stroke:#000000;stroke-width:1.5;" width="356" x="1055" y="626.4922"/><line style="stroke:#181818;stroke-width:0.5;stroke-dasharray:5.0,5.0;" x1="22" x2="22" y1="121.2188" y2="1081.8984"/><line style="stroke:#181818;stroke-width:0.5;stroke-dasharray:5.0,5.0;" x1="213" x2="213" y1="121.2188" y2="1081.8984"/><line style="stroke:#181818;stroke-width:0.5;stroke-dasharray:5.0,5.0;" x1="478" x2="478" y1="121.2188" y2="1081.8984"/><line style="stroke:#181818;stroke-width:0.5;stroke-dasharray:5.0,5.0;" x1="710" x2="710" y1="121.2188" y2="1081.8984"/><line style="stroke:#181818;stroke-width:0.5;stroke-dasharray:5.0,5.0;" x1="982" x2="982" y1="121.2188" y2="1081.8984"/><line style="stroke:#181818;stroke-width:0.5;stroke-dasharray:5.0,5.0;" x1="1115" x2="1115" y1="121.2188" y2="1081.8984"/><line style="stroke:#181818;stroke-width:0.5;stroke-dasharray:5.0,5.0;" x1="1349" x2="1349" y1="121.2188" y2="1081.8984"/><text fill="#000000" font-family="sans-serif" font-size="14" lengthAdjust="spacing" textLength="29" x="5" y="118.1426">User</text><ellipse cx="22.5" cy="52.1094" fill="#E2E2F0" rx="8" ry="8" style="stroke:#181818;stroke-width:0.5;"/><path d="M22.5,60.1094 L22.5,87.1094 M9.5,68.1094 L35.5,68.1094 M22.5,87.1094 L9.5,102.1094 M22.5,87.1094 L35.5,102.1094 " fill="none" style="stroke:#181818;stroke-width:0.5;"/><text fill="#000000" font-family="sans-serif" font-size="14" lengthAdjust="spacing" textLength="29" x="5" y="1095.4316">User</text><ellipse cx="22.5" cy="1107.0078" fill="#E2E2F0" rx="8" ry="8" style="stroke:#181818;stroke-width:0.5;"/><path d="M22.5,1115.0078 L22.5,1142.0078 M9.5,1123.0078 L35.5,1123.0078 M22.5,1142.0078 L9.5,1157.0078 M22.5,1142.0078 L35.5,1157.0078 " fill="none" style="stroke:#181818;stroke-width:0.5;"/><rect fill="#E2E2F0" height="31.6094" rx="2.5" ry="2.5" style="stroke:#181818;stroke-width:0.5;" width="123" x="152" y="88.6094"/><text fill="#000000" font-family="sans-serif" font-size="14" lengthAdjust="spacing" textLength="109" x="159" y="110.1426">React Native App</text><rect fill="#E2E2F0" height="31.6094" rx="2.5" ry="2.5" style="stroke:#181818;stroke-width:0.5;" width="123" x="152" y="1080.8984"/><text fill="#000000" font-family="sans-serif" font-size="14" lengthAdjust="spacing" textLength="109" x="159" y="1102.4316">React Native App</text><rect fill="#E2E2F0" height="31.6094" rx="2.5" ry="2.5" style="stroke:#181818;stroke-width:0.5;" width="117" x="420" y="88.6094"/><text fill="#000000" font-family="sans-serif" font-size="14" lengthAdjust="spacing" textLength="103" x="427" y="110.1426">REST Controller</text><rect fill="#E2E2F0" height="31.6094" rx="2.5" ry="2.5" style="stroke:#181818;stroke-width:0.5;" width="117" x="420" y="1080.8984"/><text fill="#000000" font-family="sans-serif" font-size="14" lengthAdjust="spacing" textLength="103" x="427" y="1102.4316">REST Controller</text><rect fill="#E2E2F0" height="31.6094" rx="2.5" ry="2.5" style="stroke:#181818;stroke-width:0.5;" width="129" x="646" y="88.6094"/><text fill="#000000" font-family="sans-serif" font-size="14" lengthAdjust="spacing" textLength="115" x="653" y="110.1426">Command Service</text><rect fill="#E2E2F0" height="31.6094" rx="2.5" ry="2.5" style="stroke:#181818;stroke-width:0.5;" width="129" x="646" y="1080.8984"/><text fill="#000000" font-family="sans-serif" font-size="14" lengthAdjust="spacing" textLength="115" x="653" y="1102.4316">Command Service</text><rect fill="#E2E2F0" height="31.6094" rx="2.5" ry="2.5" style="stroke:#181818;stroke-width:0.5;" width="145" x="910" y="88.6094"/><text fill="#000000" font-family="sans-serif" font-size="14" lengthAdjust="spacing" textLength="131" x="917" y="110.1426">MySQL (Commands)</text><rect fill="#E2E2F0" height="31.6094" rx="2.5" ry="2.5" style="stroke:#181818;stroke-width:0.5;" width="145" x="910" y="1080.8984"/><text fill="#000000" font-family="sans-serif" font-size="14" lengthAdjust="spacing" textLength="131" x="917" y="1102.4316">MySQL (Commands)</text><rect fill="#E2E2F0" height="31.6094" rx="2.5" ry="2.5" style="stroke:#181818;stroke-width:0.5;" width="100" x="1065" y="88.6094"/><text fill="#000000" font-family="sans-serif" font-size="14" lengthAdjust="spacing" textLength="86" x="1072" y="110.1426">MQTT Broker</text><rect fill="#E2E2F0" height="31.6094" rx="2.5" ry="2.5" style="stroke:#181818;stroke-width:0.5;" width="100" x="1065" y="1080.8984"/><text fill="#000000" font-family="sans-serif" font-size="14" lengthAdjust="spacing" textLength="86" x="1072" y="1102.4316">MQTT Broker</text><rect fill="#E2E2F0" height="31.6094" rx="2.5" ry="2.5" style="stroke:#181818;stroke-width:0.5;" width="104" x="1297" y="88.6094"/><text fill="#000000" font-family="sans-serif" font-size="14" lengthAdjust="spacing" textLength="90" x="1304" y="110.1426">ESP32 Device</text><rect fill="#E2E2F0" height="31.6094" rx="2.5" ry="2.5" style="stroke:#181818;stroke-width:0.5;" width="104" x="1297" y="1080.8984"/><text fill="#000000" font-family="sans-serif" font-size="14" lengthAdjust="spacing" textLength="90" x="1304" y="1102.4316">ESP32 Device</text><rect fill="#FFFFFF" height="874.9766" style="stroke:#181818;stroke-width:1.0;" width="10" x="208.5" y="197.9219"/><rect fill="#FFFFFF" height="265.1641" style="stroke:#181818;stroke-width:1.0;" width="10" x="473.5" y="228.2734"/><rect fill="#FFFFFF" height="204.4609" style="stroke:#181818;stroke-width:1.0;" width="10" x="705.5" y="258.625"/><rect fill="#FFFFFF" height="60.7031" style="stroke:#181818;stroke-width:1.0;" width="10" x="705.5" y="795.0859"/><rect fill="#FFFFFF" height="30.3516" style="stroke:#181818;stroke-width:1.0;" width="10" x="977.5" y="288.9766"/><rect fill="#FFFFFF" height="160.2422" style="stroke:#181818;stroke-width:1.0;" width="10" x="1344" y="568.1406"/><rect fill="#EEEEEE" height="3" style="stroke:#EEEEEE;stroke-width:1.0;" width="1478" x="0" y="152.3945"/><line style="stroke:#000000;stroke-width:1.0;" x1="0" x2="1478" y1="152.3945" y2="152.3945"/><line style="stroke:#000000;stroke-width:1.0;" x1="0" x2="1478" y1="155.3945" y2="155.3945"/><rect fill="#EEEEEE" height="24.3516" style="stroke:#000000;stroke-width:2.0;" width="90" x="694" y="141.2188"/><text fill="#000000" font-family="sans-serif" font-size="13" font-weight="bold" lengthAdjust="spacing" textLength="72" x="700" y="158.7139">User Action</text><polygon fill="#181818" points="196.5,193.9219,206.5,197.9219,196.5,201.9219,200.5,197.9219" style="stroke:#181818;stroke-width:1.0;"/><line style="stroke:#181818;stroke-width:1.0;" x1="22.5" x2="202.5" y1="197.9219" y2="197.9219"/><text fill="#000000" font-family="sans-serif" font-size="13" font-weight="bold" lengthAdjust="spacing" textLength="7" x="29.5" y="193.0654">1</text><text fill="#000000" font-family="sans-serif" font-size="13" lengthAdjust="spacing" textLength="156" x="40.5" y="193.0654">Initiate Device Control (ON)</text><polygon fill="#181818" points="461.5,224.2734,471.5,228.2734,461.5,232.2734,465.5,228.2734" style="stroke:#181818;stroke-width:1.0;"/><line style="stroke:#181818;stroke-width:1.0;" x1="218.5" x2="467.5" y1="228.2734" y2="228.2734"/><text fill="#000000" font-family="sans-serif" font-size="13" font-weight="bold" lengthAdjust="spacing" textLength="7" x="225.5" y="223.417">2</text><text fill="#000000" font-family="sans-serif" font-size="13" lengthAdjust="spacing" textLength="126" x="236.5" y="223.417">POST /devices/{id}/on</text><polygon fill="#181818" points="693.5,254.625,703.5,258.625,693.5,262.625,697.5,258.625" style="stroke:#181818;stroke-width:1.0;"/><line style="stroke:#181818;stroke-width:1.0;" x1="483.5" x2="699.5" y1="258.625" y2="258.625"/><text fill="#000000" font-family="sans-serif" font-size="13" font-weight="bold" lengthAdjust="spacing" textLength="7" x="490.5" y="253.7686">3</text><text fill="#000000" font-family="sans-serif" font-size="13" lengthAdjust="spacing" textLength="192" x="501.5" y="253.7686">createCommand(deviceId, action)</text><polygon fill="#181818" points="965.5,284.9766,975.5,288.9766,965.5,292.9766,969.5,288.9766" style="stroke:#181818;stroke-width:1.0;"/><line style="stroke:#181818;stroke-width:1.0;" x1="715.5" x2="971.5" y1="288.9766" y2="288.9766"/><text fill="#000000" font-family="sans-serif" font-size="13" font-weight="bold" lengthAdjust="spacing" textLength="7" x="722.5" y="284.1201">4</text><text fill="#000000" font-family="sans-serif" font-size="13" lengthAdjust="spacing" textLength="213" x="733.5" y="284.1201">INSERT Command(status=CREATE)</text><line style="stroke:#181818;stroke-width:1.0;" x1="716.5" x2="726.5" y1="319.3281" y2="315.3281"/><line style="stroke:#181818;stroke-width:1.0;" x1="716.5" x2="726.5" y1="319.3281" y2="323.3281"/><line style="stroke:#181818;stroke-width:1.0;stroke-dasharray:2.0,2.0;" x1="715.5" x2="981.5" y1="319.3281" y2="319.3281"/><text fill="#000000" font-family="sans-serif" font-size="13" font-weight="bold" lengthAdjust="spacing" textLength="7" x="732.5" y="314.4717">5</text><text fill="#000000" font-family="sans-serif" font-size="13" lengthAdjust="spacing" textLength="19" x="743.5" y="314.4717">OK</text><polygon fill="#181818" points="1103,356.8555,1113,360.8555,1103,364.8555,1107,360.8555" style="stroke:#181818;stroke-width:1.0;"/><line style="stroke:#181818;stroke-width:1.0;" x1="715.5" x2="1109" y1="360.8555" y2="360.8555"/><text fill="#000000" font-family="sans-serif" font-size="13" font-weight="bold" lengthAdjust="spacing" textLength="7" x="722.5" y="355.999">6</text><text fill="#000000" font-family="sans-serif" font-size="13" lengthAdjust="spacing" textLength="167" x="733.5" y="355.999">PUBLISH devices/{id}/control</text><path d="M1120,332.3281 L1120,374.3281 L1314,374.3281 L1314,342.3281 L1304,332.3281 L1120,332.3281 " fill="#FEFFDD" style="stroke:#181818;stroke-width:0.5;"/><path d="M1304,332.3281 L1304,342.3281 L1314,342.3281 L1304,332.3281 " fill="#FEFFDD" style="stroke:#181818;stroke-width:0.5;"/><text fill="#000000" font-family="sans-serif" font-size="13" lengthAdjust="spacing" textLength="37" x="1126" y="350.8232">QoS 1</text><text fill="#000000" font-family="sans-serif" font-size="13" lengthAdjust="spacing" textLength="173" x="1126" y="367.1748">Payload: {commandId, action}</text><polygon fill="#181818" points="970.5,398.3828,980.5,402.3828,970.5,406.3828,974.5,402.3828" style="stroke:#181818;stroke-width:1.0;"/><line style="stroke:#181818;stroke-width:1.0;" x1="715.5" x2="976.5" y1="402.3828" y2="402.3828"/><text fill="#000000" font-family="sans-serif" font-size="13" font-weight="bold" lengthAdjust="spacing" textLength="7" x="722.5" y="397.5264">7</text><text fill="#000000" font-family="sans-serif" font-size="13" lengthAdjust="spacing" textLength="142" x="733.5" y="397.5264">UPDATE status = SENT</text><line style="stroke:#181818;stroke-width:1.0;" x1="716.5" x2="726.5" y1="432.7344" y2="428.7344"/><line style="stroke:#181818;stroke-width:1.0;" x1="716.5" x2="726.5" y1="432.7344" y2="436.7344"/><line style="stroke:#181818;stroke-width:1.0;stroke-dasharray:2.0,2.0;" x1="715.5" x2="981.5" y1="432.7344" y2="432.7344"/><text fill="#000000" font-family="sans-serif" font-size="13" font-weight="bold" lengthAdjust="spacing" textLength="7" x="732.5" y="427.8779">8</text><text fill="#000000" font-family="sans-serif" font-size="13" lengthAdjust="spacing" textLength="19" x="743.5" y="427.8779">OK</text><line style="stroke:#181818;stroke-width:1.0;" x1="484.5" x2="494.5" y1="463.0859" y2="459.0859"/><line style="stroke:#181818;stroke-width:1.0;" x1="484.5" x2="494.5" y1="463.0859" y2="467.0859"/><line style="stroke:#181818;stroke-width:1.0;stroke-dasharray:2.0,2.0;" x1="483.5" x2="709.5" y1="463.0859" y2="463.0859"/><text fill="#000000" font-family="sans-serif" font-size="13" font-weight="bold" lengthAdjust="spacing" textLength="7" x="500.5" y="458.2295">9</text><text fill="#000000" font-family="sans-serif" font-size="13" lengthAdjust="spacing" textLength="80" x="511.5" y="458.2295">202 Accepted</text><line style="stroke:#181818;stroke-width:1.0;" x1="219.5" x2="229.5" y1="493.4375" y2="489.4375"/><line style="stroke:#181818;stroke-width:1.0;" x1="219.5" x2="229.5" y1="493.4375" y2="497.4375"/><line style="stroke:#181818;stroke-width:1.0;stroke-dasharray:2.0,2.0;" x1="218.5" x2="477.5" y1="493.4375" y2="493.4375"/><text fill="#000000" font-family="sans-serif" font-size="13" font-weight="bold" lengthAdjust="spacing" textLength="14" x="235.5" y="488.5811">10</text><text fill="#000000" font-family="sans-serif" font-size="13" lengthAdjust="spacing" textLength="116" x="253.5" y="488.5811">HTTP 202 Accepted</text><rect fill="#EEEEEE" height="3" style="stroke:#EEEEEE;stroke-width:1.0;" width="1478" x="0" y="522.6133"/><line style="stroke:#000000;stroke-width:1.0;" x1="0" x2="1478" y1="522.6133" y2="522.6133"/><line style="stroke:#000000;stroke-width:1.0;" x1="0" x2="1478" y1="525.6133" y2="525.6133"/><rect fill="#EEEEEE" height="24.3516" style="stroke:#000000;stroke-width:2.0;" width="218" x="630" y="511.4375"/><text fill="#000000" font-family="sans-serif" font-size="13" font-weight="bold" lengthAdjust="spacing" textLength="200" x="636" y="528.9326">Device Execution (Async MQTT)</text><polygon fill="#181818" points="1332,564.1406,1342,568.1406,1332,572.1406,1336,568.1406" style="stroke:#181818;stroke-width:1.0;"/><line style="stroke:#181818;stroke-width:1.0;" x1="1115" x2="1338" y1="568.1406" y2="568.1406"/><text fill="#000000" font-family="sans-serif" font-size="13" font-weight="bold" lengthAdjust="spacing" textLength="14" x="1122" y="563.2842">11</text><text fill="#000000" font-family="sans-serif" font-size="13" lengthAdjust="spacing" textLength="138" x="1140" y="563.2842">Deliver control message</text><line style="stroke:#181818;stroke-width:1.0;" x1="1354" x2="1396" y1="598.4922" y2="598.4922"/><line style="stroke:#181818;stroke-width:1.0;" x1="1396" x2="1396" y1="598.4922" y2="611.4922"/><line style="stroke:#181818;stroke-width:1.0;" x1="1355" x2="1396" y1="611.4922" y2="611.4922"/><polygon fill="#181818" points="1365,607.4922,1355,611.4922,1365,615.4922,1361,611.4922" style="stroke:#181818;stroke-width:1.0;"/><text fill="#000000" font-family="sans-serif" font-size="13" font-weight="bold" lengthAdjust="spacing" textLength="14" x="1361" y="593.6357">12</text><text fill="#000000" font-family="sans-serif" font-size="13" lengthAdjust="spacing" textLength="87" x="1379" y="593.6357">Execute action</text><path d="M1055,626.4922 L1116,626.4922 L1116,634.8438 L1106,644.8438 L1055,644.8438 L1055,626.4922 " fill="#EEEEEE" style="stroke:#000000;stroke-width:1.5;"/><rect fill="none" height="94.8906" style="stroke:#000000;stroke-width:1.5;" width="356" x="1055" y="626.4922"/><text fill="#000000" font-family="sans-serif" font-size="13" font-weight="bold" lengthAdjust="spacing" textLength="16" x="1070" y="640.9873">alt</text><text fill="#000000" font-family="sans-serif" font-size="11" font-weight="bold" lengthAdjust="spacing" textLength="111" x="1131" y="639.9111">[Execution success]</text><polygon fill="#181818" points="1126,663.1953,1116,667.1953,1126,671.1953,1122,667.1953" style="stroke:#181818;stroke-width:1.0;"/><line style="stroke:#181818;stroke-width:1.0;" x1="1120" x2="1343" y1="667.1953" y2="667.1953"/><text fill="#000000" font-family="sans-serif" font-size="13" font-weight="bold" lengthAdjust="spacing" textLength="14" x="1132" y="662.3389">13</text><text fill="#000000" font-family="sans-serif" font-size="13" lengthAdjust="spacing" textLength="187" x="1150" y="662.3389">PUBLISH response (SUCCESS)</text><line style="stroke:#000000;stroke-width:1.0;stroke-dasharray:2.0,2.0;" x1="1055" x2="1411" y1="676.1953" y2="676.1953"/><text fill="#000000" font-family="sans-serif" font-size="11" font-weight="bold" lengthAdjust="spacing" textLength="94" x="1060" y="687.6143">[Execution failed]</text><polygon fill="#181818" points="1126,709.3828,1116,713.3828,1126,717.3828,1122,713.3828" style="stroke:#181818;stroke-width:1.0;"/><line style="stroke:#181818;stroke-width:1.0;" x1="1120" x2="1343" y1="713.3828" y2="713.3828"/><text fill="#000000" font-family="sans-serif" font-size="13" font-weight="bold" lengthAdjust="spacing" textLength="14" x="1132" y="708.5264">14</text><text fill="#000000" font-family="sans-serif" font-size="13" lengthAdjust="spacing" textLength="169" x="1150" y="708.5264">PUBLISH response (FAILED)</text><rect fill="#EEEEEE" height="3" style="stroke:#EEEEEE;stroke-width:1.0;" width="1478" x="0" y="749.5586"/><line style="stroke:#000000;stroke-width:1.0;" x1="0" x2="1478" y1="749.5586" y2="749.5586"/><line style="stroke:#000000;stroke-width:1.0;" x1="0" x2="1478" y1="752.5586" y2="752.5586"/><rect fill="#EEEEEE" height="24.3516" style="stroke:#000000;stroke-width:2.0;" width="199" x="639.5" y="738.3828"/><text fill="#000000" font-family="sans-serif" font-size="13" font-weight="bold" lengthAdjust="spacing" textLength="181" x="645.5" y="755.8779">Backend Response Handling</text><polygon fill="#181818" points="726.5,791.0859,716.5,795.0859,726.5,799.0859,722.5,795.0859" style="stroke:#181818;stroke-width:1.0;"/><line style="stroke:#181818;stroke-width:1.0;" x1="720.5" x2="1114" y1="795.0859" y2="795.0859"/><text fill="#000000" font-family="sans-serif" font-size="13" font-weight="bold" lengthAdjust="spacing" textLength="14" x="732.5" y="790.2295">15</text><text fill="#000000" font-family="sans-serif" font-size="13" lengthAdjust="spacing" textLength="95" x="750.5" y="790.2295">Deliver response</text><polygon fill="#181818" points="970.5,821.4375,980.5,825.4375,970.5,829.4375,974.5,825.4375" style="stroke:#181818;stroke-width:1.0;"/><line style="stroke:#181818;stroke-width:1.0;" x1="715.5" x2="976.5" y1="825.4375" y2="825.4375"/><text fill="#000000" font-family="sans-serif" font-size="13" font-weight="bold" lengthAdjust="spacing" textLength="14" x="722.5" y="820.5811">16</text><text fill="#000000" font-family="sans-serif" font-size="13" lengthAdjust="spacing" textLength="225" x="740.5" y="820.5811">UPDATE status COMPLETED/FAILED</text><line style="stroke:#181818;stroke-width:1.0;" x1="711.5" x2="721.5" y1="855.7891" y2="851.7891"/><line style="stroke:#181818;stroke-width:1.0;" x1="711.5" x2="721.5" y1="855.7891" y2="859.7891"/><line style="stroke:#181818;stroke-width:1.0;stroke-dasharray:2.0,2.0;" x1="710.5" x2="981.5" y1="855.7891" y2="855.7891"/><text fill="#000000" font-family="sans-serif" font-size="13" font-weight="bold" lengthAdjust="spacing" textLength="14" x="727.5" y="850.9326">17</text><text fill="#000000" font-family="sans-serif" font-size="13" lengthAdjust="spacing" textLength="19" x="745.5" y="850.9326">OK</text><line style="stroke:#181818;stroke-width:1.0;" x1="218.5" x2="260.5" y1="886.1406" y2="886.1406"/><line style="stroke:#181818;stroke-width:1.0;" x1="260.5" x2="260.5" y1="886.1406" y2="899.1406"/><line style="stroke:#181818;stroke-width:1.0;" x1="219.5" x2="260.5" y1="899.1406" y2="899.1406"/><polygon fill="#181818" points="229.5,895.1406,219.5,899.1406,229.5,903.1406,225.5,899.1406" style="stroke:#181818;stroke-width:1.0;"/><text fill="#000000" font-family="sans-serif" font-size="13" font-weight="bold" lengthAdjust="spacing" textLength="14" x="225.5" y="881.2842">18</text><text fill="#000000" font-family="sans-serif" font-size="13" lengthAdjust="spacing" textLength="175" x="243.5" y="881.2842">Component re-render triggered</text><polygon fill="#181818" points="466.5,925.4922,476.5,929.4922,466.5,933.4922,470.5,929.4922" style="stroke:#181818;stroke-width:1.0;"/><line style="stroke:#181818;stroke-width:1.0;" x1="218.5" x2="472.5" y1="929.4922" y2="929.4922"/><text fill="#000000" font-family="sans-serif" font-size="13" font-weight="bold" lengthAdjust="spacing" textLength="14" x="225.5" y="924.6357">19</text><text fill="#000000" font-family="sans-serif" font-size="13" lengthAdjust="spacing" textLength="99" x="243.5" y="924.6357">GET /devices/{id}</text><polygon fill="#181818" points="970.5,955.8438,980.5,959.8438,970.5,963.8438,974.5,959.8438" style="stroke:#181818;stroke-width:1.0;"/><line style="stroke:#181818;stroke-width:1.0;" x1="478.5" x2="976.5" y1="959.8438" y2="959.8438"/><text fill="#000000" font-family="sans-serif" font-size="13" font-weight="bold" lengthAdjust="spacing" textLength="14" x="485.5" y="954.9873">20</text><text fill="#000000" font-family="sans-serif" font-size="13" lengthAdjust="spacing" textLength="123" x="503.5" y="954.9873">SELECT device state</text><line style="stroke:#181818;stroke-width:1.0;" x1="479.5" x2="489.5" y1="990.1953" y2="986.1953"/><line style="stroke:#181818;stroke-width:1.0;" x1="479.5" x2="489.5" y1="990.1953" y2="994.1953"/><line style="stroke:#181818;stroke-width:1.0;stroke-dasharray:2.0,2.0;" x1="478.5" x2="981.5" y1="990.1953" y2="990.1953"/><text fill="#000000" font-family="sans-serif" font-size="13" font-weight="bold" lengthAdjust="spacing" textLength="14" x="495.5" y="985.3389">21</text><text fill="#000000" font-family="sans-serif" font-size="13" lengthAdjust="spacing" textLength="152" x="513.5" y="985.3389">Return updated device info</text><line style="stroke:#181818;stroke-width:1.0;" x1="219.5" x2="229.5" y1="1020.5469" y2="1016.5469"/><line style="stroke:#181818;stroke-width:1.0;" x1="219.5" x2="229.5" y1="1020.5469" y2="1024.5469"/><line style="stroke:#181818;stroke-width:1.0;stroke-dasharray:2.0,2.0;" x1="218.5" x2="477.5" y1="1020.5469" y2="1020.5469"/><text fill="#000000" font-family="sans-serif" font-size="13" font-weight="bold" lengthAdjust="spacing" textLength="14" x="235.5" y="1015.6904">22</text><text fill="#000000" font-family="sans-serif" font-size="13" lengthAdjust="spacing" textLength="107" x="253.5" y="1015.6904">Return device data</text><line style="stroke:#181818;stroke-width:1.0;" x1="218.5" x2="260.5" y1="1050.8984" y2="1050.8984"/><line style="stroke:#181818;stroke-width:1.0;" x1="260.5" x2="260.5" y1="1050.8984" y2="1063.8984"/><line style="stroke:#181818;stroke-width:1.0;" x1="219.5" x2="260.5" y1="1063.8984" y2="1063.8984"/><polygon fill="#181818" points="229.5,1059.8984,219.5,1063.8984,229.5,1067.8984,225.5,1063.8984" style="stroke:#181818;stroke-width:1.0;"/><text fill="#000000" font-family="sans-serif" font-size="13" font-weight="bold" lengthAdjust="spacing" textLength="14" x="225.5" y="1046.042">23</text><text fill="#000000" font-family="sans-serif" font-size="13" lengthAdjust="spacing" textLength="223" x="243.5" y="1046.042">Update UI based on latest device state</text><!--SRC=[ZLHHRzem47xthpZr2QGXjkuDYKgGU6iq2Ya9Fy1DhingS2BRL4DL__lEZWC9wxJn40p-lhlllhkBbRP2s1dK4DM7Wr0by5zO7Asi5OosFCiXhQjAgZriL7KQCoOAMslFO8tGLXQo4Sh2pHRf1jR2obU4HTFSW33k-mhb8aQrifgYecv1QJ84TKeorA-oG0yAvo7muPGzhc0Ky6RiaV7o2lIOvx3KzKj8rnw769wbNsyXndEwzaZL7csjZeSd8h3vl3LgKNXtvdF6_E_9dQjp1ecILWgBWToL2QFDUkniaw_kqbd2wE5fQJA3T4EMJ4lFCTCtMRvFQzN3apkC7WuVJ9X1eP7kGjsZbfkKdq1uQRridMqi75oKU4bQrndVvbtFHyOAUpJpQCiNEU_HoSju2PF9NI_tvWShiO_ensxDfQ9sorMItSEWhA8rXAcQY5hkVrhsM6VmXQNYLDMYdC5RqGgwrFBEa2R1CVweOPV6f1PQxJ27ZA_p3-LUYEx6ctxx-PRwM61ZiUoNS_RBE-xXhhNtUPx-bUCxvAOZzBstG0jpKWMu2HpxUMdjyGLWAo_6YXP6G_063cYCs6El1M4IG_0UjSs3mIYQrShsSfiZIJM60NqktEl-Q3HDhGp2ADj54S-oCSFAz6ju5hAYUlytpBT5ikBns7MD3UOabE5yMehYnNLrsx7kgUN-7JFqwDp3pgGkpR_dUpWRqUOXNV6SnzDMtiTJyj4Od3VLJG5j2wL7Uc5ed6YgW2HPckCzQdAelzFV-TLATnlij6LynQCyh8QNY6T1dhr5UzGAZar9LsK7bEgvlXhB00m0GekXu9sF0Bi4deIXIDJEYlumTfZyDm00]--></g></svg>