<?xml version="1.0" encoding="us-ascii" standalone="no"?><svg xmlns="http://www.w3.org/2000/svg" xmlns:xlink="http://www.w3.org/1999/xlink" contentStyleType="text/css" height="2393px" preserveAspectRatio="none" style="width:1200px;height:2393px;background:#FFFFFF;" version="1.1" viewBox="0 0 1200 2393" width="1200px" zoomAndPan="magnify"><defs/><g><text fill="#000000" font-family="sans-serif" font-size="14" font-weight="bold" lengthAdjust="spacing" textLength="277" x="460" y="34.5332">Device Internal Loop / Lifecycle (ESP32)</text><ellipse cx="873.25" cy="58.6094" fill="#222222" rx="10" ry="10" style="stroke:#222222;stroke-width:1.0;"/><rect fill="#F1F1F1" height="35.0938" rx="12.5" ry="12.5" style="stroke:#181818;stroke-width:0.5;" width="45" x="850.75" y="88.6094"/><text fill="#000000" font-family="sans-serif" font-size="12" lengthAdjust="spacing" textLength="25" x="860.75" y="111.0664">Boot</text><rect fill="#F1F1F1" height="35.0938" rx="12.5" ry="12.5" style="stroke:#181818;stroke-width:0.5;" width="211" x="767.75" y="143.7031"/><text fill="#000000" font-family="sans-serif" font-size="12" lengthAdjust="spacing" textLength="191" x="777.75" y="166.1602">Initialize hardware (GPIO, sensors)</text><rect fill="#F1F1F1" height="35.0938" rx="12.5" ry="12.5" style="stroke:#181818;stroke-width:0.5;" width="139" x="803.75" y="198.7969"/><text fill="#000000" font-family="sans-serif" font-size="12" lengthAdjust="spacing" textLength="119" x="813.75" y="221.2539">Load WiFi credentials</text><rect fill="none" height="290.3906" style="stroke:#000000;stroke-width:1.5;" width="178" x="796.25" y="243.8906"/><path d="M910.25,243.8906 L910.25,254.5 L900.25,264.5 L796.25,264.5 " fill="none" style="stroke:#000000;stroke-width:1.5;"/><text fill="#000000" font-family="sans-serif" font-size="14" lengthAdjust="spacing" textLength="104" x="799.25" y="259.4238">WiFi Connection</text><rect fill="#F1F1F1" height="35.0938" rx="12.5" ry="12.5" style="stroke:#181818;stroke-width:0.5;" width="134" x="806.25" y="325.5"/><text fill="#000000" font-family="sans-serif" font-size="12" lengthAdjust="spacing" textLength="114" x="816.25" y="347.957">Attempt WiFi connect</text><rect fill="#F1F1F1" height="35.0938" rx="12.5" ry="12.5" style="stroke:#181818;stroke-width:0.5;" width="93" x="826.75" y="388.0938"/><text fill="#000000" font-family="sans-serif" font-size="12" lengthAdjust="spacing" textLength="73" x="836.75" y="410.5508">Delay 500ms</text><polygon fill="#F1F1F1" points="873.25,281.5,885.25,293.5,873.25,305.5,861.25,293.5,873.25,281.5" style="stroke:#181818;stroke-width:0.5;"/><polygon fill="#F1F1F1" points="844.25,443.1875,902.25,443.1875,914.25,455.1875,902.25,467.1875,844.25,467.1875,832.25,455.1875,844.25,443.1875" style="stroke:#181818;stroke-width:0.5;"/><text fill="#000000" font-family="sans-serif" font-size="11" lengthAdjust="spacing" textLength="58" x="844.25" y="459.6885">Connected?</text><text fill="#000000" font-family="sans-serif" font-size="11" lengthAdjust="spacing" textLength="13" x="914.25" y="452.7705">No</text><rect fill="#F1F1F1" height="35.0938" rx="12.5" ry="12.5" style="stroke:#181818;stroke-width:0.5;" width="107" x="819.75" y="487.1875"/><text fill="#000000" font-family="sans-serif" font-size="12" lengthAdjust="spacing" textLength="87" x="829.75" y="509.6445">WiFi Connected</text><rect fill="#F1F1F1" height="35.0938" rx="12.5" ry="12.5" style="stroke:#181818;stroke-width:0.5;" width="104" x="821.25" y="554.2813"/><text fill="#000000" font-family="sans-serif" font-size="12" lengthAdjust="spacing" textLength="84" x="831.25" y="576.7383">Start NTP client</text><rect fill="#F1F1F1" height="35.0938" rx="12.5" ry="12.5" style="stroke:#181818;stroke-width:0.5;" width="116" x="815.25" y="609.375"/><text fill="#000000" font-family="sans-serif" font-size="12" lengthAdjust="spacing" textLength="96" x="825.25" y="631.832">Sync system time</text><rect fill="none" height="290.3906" style="stroke:#000000;stroke-width:1.5;" width="233" x="756.75" y="654.4688"/><path d="M882.75,654.4688 L882.75,665.0781 L872.75,675.0781 L756.75,675.0781 " fill="none" style="stroke:#000000;stroke-width:1.5;"/><text fill="#000000" font-family="sans-serif" font-size="14" lengthAdjust="spacing" textLength="116" x="759.75" y="670.002">MQTT Connection</text><rect fill="#F1F1F1" height="35.0938" rx="12.5" ry="12.5" style="stroke:#181818;stroke-width:0.5;" width="142" x="802.25" y="736.0781"/><text fill="#000000" font-family="sans-serif" font-size="12" lengthAdjust="spacing" textLength="122" x="812.25" y="758.5352">Attempt MQTT connect</text><rect fill="#F1F1F1" height="35.0938" rx="12.5" ry="12.5" style="stroke:#181818;stroke-width:0.5;" width="158" x="794.25" y="798.6719"/><text fill="#000000" font-family="sans-serif" font-size="12" lengthAdjust="spacing" textLength="138" x="804.25" y="821.1289">Exponential backoff delay</text><polygon fill="#F1F1F1" points="873.25,692.0781,885.25,704.0781,873.25,716.0781,861.25,704.0781,873.25,692.0781" style="stroke:#181818;stroke-width:0.5;"/><polygon fill="#F1F1F1" points="829.25,853.7656,917.25,853.7656,929.25,865.7656,917.25,877.7656,829.25,877.7656,817.25,865.7656,829.25,853.7656" style="stroke:#181818;stroke-width:0.5;"/><text fill="#000000" font-family="sans-serif" font-size="11" lengthAdjust="spacing" textLength="88" x="829.25" y="870.2666">MQTT connected?</text><text fill="#000000" font-family="sans-serif" font-size="11" lengthAdjust="spacing" textLength="13" x="929.25" y="863.3486">No</text><rect fill="#F1F1F1" height="35.0938" rx="12.5" ry="12.5" style="stroke:#181818;stroke-width:0.5;" width="213" x="766.75" y="897.7656"/><text fill="#000000" font-family="sans-serif" font-size="12" lengthAdjust="spacing" textLength="193" x="776.75" y="920.2227">Subscribe to control &amp; status topics</text><rect fill="none" height="1330.8877" style="stroke:#000000;stroke-width:1.5;" width="1178" x="11" y="954.8594"/><path d="M87,954.8594 L87,965.4688 L77,975.4688 L11,975.4688 " fill="none" style="stroke:#000000;stroke-width:1.5;"/><text fill="#000000" font-family="sans-serif" font-size="14" lengthAdjust="spacing" textLength="66" x="14" y="970.3926">Main Loop</text><rect fill="none" height="313.9844" style="stroke:#000000;stroke-width:1.5;" width="318" x="702.25" y="1026.4688"/><path d="M826.25,1026.4688 L826.25,1037.0781 L816.25,1047.0781 L702.25,1047.0781 " fill="none" style="stroke:#000000;stroke-width:1.5;"/><text fill="#000000" font-family="sans-serif" font-size="14" lengthAdjust="spacing" textLength="114" x="705.25" y="1042.002">Sensor Publishing</text><polygon fill="#F1F1F1" points="828.75,1064.0781,917.75,1064.0781,929.75,1076.0781,917.75,1088.0781,828.75,1088.0781,816.75,1076.0781,828.75,1064.0781" style="stroke:#181818;stroke-width:0.5;"/><text fill="#000000" font-family="sans-serif" font-size="11" lengthAdjust="spacing" textLength="89" x="828.75" y="1080.5791">isActive == TRUE?</text><text fill="#000000" font-family="sans-serif" font-size="11" lengthAdjust="spacing" textLength="20" x="796.75" y="1073.6611">Yes</text><text fill="#000000" font-family="sans-serif" font-size="11" lengthAdjust="spacing" textLength="13" x="929.75" y="1073.6611">No</text><rect fill="#F1F1F1" height="35.0938" rx="12.5" ry="12.5" style="stroke:#181818;stroke-width:0.5;" width="131" x="733.25" y="1098.0781"/><text fill="#000000" font-family="sans-serif" font-size="12" lengthAdjust="spacing" textLength="111" x="743.25" y="1120.5352">Read sensor values</text><rect fill="#F1F1F1" height="35.0938" rx="12.5" ry="12.5" style="stroke:#181818;stroke-width:0.5;" width="138" x="729.75" y="1153.1719"/><text fill="#000000" font-family="sans-serif" font-size="12" lengthAdjust="spacing" textLength="118" x="739.75" y="1175.6289">Create JSON payload</text><rect fill="#F1F1F1" height="35.0938" rx="12.5" ry="12.5" style="stroke:#181818;stroke-width:0.5;" width="153" x="722.25" y="1208.2656"/><text fill="#000000" font-family="sans-serif" font-size="12" lengthAdjust="spacing" textLength="133" x="732.25" y="1230.7227">Publish to sensors topic</text><rect fill="#F1F1F1" height="35.0938" rx="12.5" ry="12.5" style="stroke:#181818;stroke-width:0.5;" width="105" x="895.25" y="1098.0781"/><text fill="#000000" font-family="sans-serif" font-size="12" lengthAdjust="spacing" textLength="85" x="905.25" y="1120.5352">Skip publishing</text><polygon fill="#F1F1F1" points="873.25,1249.3594,885.25,1261.3594,873.25,1273.3594,861.25,1261.3594,873.25,1249.3594" style="stroke:#181818;stroke-width:0.5;"/><rect fill="#F1F1F1" height="35.0938" rx="12.5" ry="12.5" style="stroke:#181818;stroke-width:0.5;" width="105" x="820.75" y="1293.3594"/><text fill="#000000" font-family="sans-serif" font-size="12" lengthAdjust="spacing" textLength="85" x="830.75" y="1315.8164">Wait 5 seconds</text><rect fill="none" height="503.8096" style="stroke:#000000;stroke-width:1.5;" width="1140" x="21" y="1350.4531"/><path d="M201,1350.4531 L201,1361.0625 L191,1371.0625 L21,1371.0625 " fill="none" style="stroke:#000000;stroke-width:1.5;"/><text fill="#000000" font-family="sans-serif" font-size="14" lengthAdjust="spacing" textLength="170" x="24" y="1365.9863">Incoming Message Handler</text><polygon fill="#F1F1F1" points="810.25,1388.0625,936.25,1388.0625,948.25,1400.0625,936.25,1412.0625,810.25,1412.0625,798.25,1400.0625,810.25,1388.0625" style="stroke:#181818;stroke-width:0.5;"/><text fill="#000000" font-family="sans-serif" font-size="11" lengthAdjust="spacing" textLength="126" x="810.25" y="1404.5635">MQTT message received?</text><text fill="#000000" font-family="sans-serif" font-size="11" lengthAdjust="spacing" textLength="20" x="778.25" y="1397.6455">Yes</text><text fill="#000000" font-family="sans-serif" font-size="11" lengthAdjust="spacing" textLength="13" x="948.25" y="1397.6455">No</text><polygon fill="#F1F1F1" points="641.5,1422.0625,699.5,1422.0625,711.5,1434.0625,699.5,1446.0625,641.5,1446.0625,629.5,1434.0625,641.5,1422.0625" style="stroke:#181818;stroke-width:0.5;"/><text fill="#000000" font-family="sans-serif" font-size="11" lengthAdjust="spacing" textLength="58" x="641.5" y="1438.5635">JSON valid?</text><text fill="#000000" font-family="sans-serif" font-size="11" lengthAdjust="spacing" textLength="20" x="609.5" y="1431.6455">Yes</text><text fill="#000000" font-family="sans-serif" font-size="11" lengthAdjust="spacing" textLength="13" x="711.5" y="1431.6455">No</text><polygon fill="#F1F1F1" points="185,1481.0625,251,1481.0625,263,1493.0625,251,1505.0625,185,1505.0625,173,1493.0625,185,1481.0625" style="stroke:#181818;stroke-width:0.5;"/><text fill="#000000" font-family="sans-serif" font-size="11" lengthAdjust="spacing" textLength="20" x="222" y="1516.4814">Yes</text><text fill="#000000" font-family="sans-serif" font-size="11" lengthAdjust="spacing" textLength="66" x="185" y="1497.5635">Control topic?</text><polygon fill="#F1F1F1" points="179,1537.9814,257,1537.9814,269,1549.9814,257,1561.9814,179,1561.9814,167,1549.9814,179,1537.9814" style="stroke:#181818;stroke-width:0.5;"/><text fill="#000000" font-family="sans-serif" font-size="11" lengthAdjust="spacing" textLength="78" x="179" y="1554.4824">Command valid?</text><text fill="#000000" font-family="sans-serif" font-size="11" lengthAdjust="spacing" textLength="20" x="147" y="1547.5645">Yes</text><text fill="#000000" font-family="sans-serif" font-size="11" lengthAdjust="spacing" textLength="13" x="269" y="1547.5645">No</text><rect fill="#F1F1F1" height="35.0938" rx="12.5" ry="12.5" style="stroke:#181818;stroke-width:0.5;" width="181" x="33" y="1571.9814"/><text fill="#000000" font-family="sans-serif" font-size="12" lengthAdjust="spacing" textLength="161" x="43" y="1594.4385">Execute action (LED ON/OFF)</text><rect fill="#F1F1F1" height="35.0938" rx="12.5" ry="12.5" style="stroke:#181818;stroke-width:0.5;" width="175" x="36" y="1642.0752"/><text fill="#000000" font-family="sans-serif" font-size="12" lengthAdjust="spacing" textLength="155" x="46" y="1664.5322">Create SUCCESS response</text><rect fill="#F1F1F1" height="35.0938" rx="12.5" ry="12.5" style="stroke:#181818;stroke-width:0.5;" width="157" x="234" y="1571.9814"/><text fill="#000000" font-family="sans-serif" font-size="12" lengthAdjust="spacing" textLength="137" x="244" y="1594.4385">Create FAILED response</text><polygon fill="#F1F1F1" points="218,1683.1689,230,1695.1689,218,1707.1689,206,1695.1689,218,1683.1689" style="stroke:#181818;stroke-width:0.5;"/><rect fill="#F1F1F1" height="35.0938" rx="12.5" ry="12.5" style="stroke:#181818;stroke-width:0.5;" width="158" x="139" y="1727.1689"/><text fill="#000000" font-family="sans-serif" font-size="12" lengthAdjust="spacing" textLength="138" x="149" y="1749.626">Publish control/response</text><polygon fill="#F1F1F1" points="508.5,1481.0625,571.5,1481.0625,583.5,1493.0625,571.5,1505.0625,508.5,1505.0625,496.5,1493.0625,508.5,1481.0625" style="stroke:#181818;stroke-width:0.5;"/><text fill="#000000" font-family="sans-serif" font-size="11" lengthAdjust="spacing" textLength="20" x="544" y="1516.4814">Yes</text><text fill="#000000" font-family="sans-serif" font-size="11" lengthAdjust="spacing" textLength="63" x="508.5" y="1497.5635">Status topic?</text><polygon fill="#F1F1F1" points="494,1537.9814,586,1537.9814,598,1549.9814,586,1561.9814,494,1561.9814,482,1549.9814,494,1537.9814" style="stroke:#181818;stroke-width:0.5;"/><text fill="#000000" font-family="sans-serif" font-size="11" lengthAdjust="spacing" textLength="92" x="494" y="1554.4824">Status == ACTIVE?</text><text fill="#000000" font-family="sans-serif" font-size="11" lengthAdjust="spacing" textLength="20" x="462" y="1547.5645">Yes</text><text fill="#000000" font-family="sans-serif" font-size="11" lengthAdjust="spacing" textLength="13" x="598" y="1547.5645">No</text><rect fill="#F1F1F1" height="35.0938" rx="12.5" ry="12.5" style="stroke:#181818;stroke-width:0.5;" width="128" x="401" y="1571.9814"/><text fill="#000000" font-family="sans-serif" font-size="12" lengthAdjust="spacing" textLength="108" x="411" y="1594.4385">Set isActive = TRUE</text><rect fill="#F1F1F1" height="35.0938" rx="12.5" ry="12.5" style="stroke:#181818;stroke-width:0.5;" width="132" x="549" y="1571.9814"/><text fill="#000000" font-family="sans-serif" font-size="12" lengthAdjust="spacing" textLength="112" x="559" y="1594.4385">Set isActive = FALSE</text><polygon fill="#F1F1F1" points="540,1613.0752,552,1625.0752,540,1637.0752,528,1625.0752,540,1613.0752" style="stroke:#181818;stroke-width:0.5;"/><rect fill="#F1F1F1" height="35.0938" rx="12.5" ry="12.5" style="stroke:#181818;stroke-width:0.5;" width="137" x="711" y="1636.1572"/><text fill="#000000" font-family="sans-serif" font-size="12" lengthAdjust="spacing" textLength="117" x="721" y="1658.6143">Ignore unknown topic</text><rect fill="#F1F1F1" height="35.0938" rx="12.5" ry="12.5" style="stroke:#181818;stroke-width:0.5;" width="105" x="868" y="1456.0625"/><text fill="#000000" font-family="sans-serif" font-size="12" lengthAdjust="spacing" textLength="85" x="878" y="1478.5195">Log parse error</text><polygon fill="#F1F1F1" points="670.5,1788.2627,682.5,1800.2627,670.5,1812.2627,658.5,1800.2627,670.5,1788.2627" style="stroke:#181818;stroke-width:0.5;"/><rect fill="#F1F1F1" height="35.0938" rx="12.5" ry="12.5" style="stroke:#181818;stroke-width:0.5;" width="146" x="1003" y="1422.0625"/><text fill="#000000" font-family="sans-serif" font-size="12" lengthAdjust="spacing" textLength="126" x="1013" y="1444.5195">No incoming message</text><polygon fill="#F1F1F1" points="873.25,1818.2627,885.25,1830.2627,873.25,1842.2627,861.25,1830.2627,873.25,1818.2627" style="stroke:#181818;stroke-width:0.5;"/><rect fill="none" height="365.4844" style="stroke:#000000;stroke-width:1.5;" width="333.5" x="705" y="1864.2627"/><path d="M846,1864.2627 L846,1874.8721 L836,1884.8721 L705,1884.8721 " fill="none" style="stroke:#000000;stroke-width:1.5;"/><text fill="#000000" font-family="sans-serif" font-size="14" lengthAdjust="spacing" textLength="131" x="708" y="1879.7959">Reconnection Check</text><polygon fill="#F1F1F1" points="818.25,1901.8721,928.25,1901.8721,940.25,1913.8721,928.25,1925.8721,818.25,1925.8721,806.25,1913.8721,818.25,1901.8721" style="stroke:#181818;stroke-width:0.5;"/><text fill="#000000" font-family="sans-serif" font-size="11" lengthAdjust="spacing" textLength="110" x="818.25" y="1918.373">MQTT connection lost?</text><text fill="#000000" font-family="sans-serif" font-size="11" lengthAdjust="spacing" textLength="20" x="786.25" y="1911.4551">Yes</text><text fill="#000000" font-family="sans-serif" font-size="11" lengthAdjust="spacing" textLength="13" x="940.25" y="1911.4551">No</text><rect fill="#F1F1F1" height="35.0938" rx="12.5" ry="12.5" style="stroke:#181818;stroke-width:0.5;" width="118" x="731.5" y="1990.9658"/><text fill="#000000" font-family="sans-serif" font-size="12" lengthAdjust="spacing" textLength="98" x="741.5" y="2013.4229">Attempt reconnect</text><rect fill="#F1F1F1" height="35.0938" rx="12.5" ry="12.5" style="stroke:#181818;stroke-width:0.5;" width="92" x="744.5" y="2053.5596"/><text fill="#000000" font-family="sans-serif" font-size="12" lengthAdjust="spacing" textLength="72" x="754.5" y="2076.0166">Backoff delay</text><polygon fill="#F1F1F1" points="790.5,1935.8721,802.5,1947.8721,790.5,1959.8721,778.5,1947.8721,790.5,1935.8721" style="stroke:#181818;stroke-width:0.5;"/><polygon fill="#F1F1F1" points="746.5,2108.6533,834.5,2108.6533,846.5,2120.6533,834.5,2132.6533,746.5,2132.6533,734.5,2120.6533,746.5,2108.6533" style="stroke:#181818;stroke-width:0.5;"/><text fill="#000000" font-family="sans-serif" font-size="11" lengthAdjust="spacing" textLength="88" x="746.5" y="2125.1543">MQTT connected?</text><text fill="#000000" font-family="sans-serif" font-size="11" lengthAdjust="spacing" textLength="13" x="846.5" y="2118.2363">No</text><rect fill="#F1F1F1" height="35.0938" rx="12.5" ry="12.5" style="stroke:#181818;stroke-width:0.5;" width="131" x="725" y="2152.6533"/><text fill="#000000" font-family="sans-serif" font-size="12" lengthAdjust="spacing" textLength="111" x="735" y="2175.1104">Re-subscribe topics</text><rect fill="#F1F1F1" height="35.0938" rx="12.5" ry="12.5" style="stroke:#181818;stroke-width:0.5;" width="125" x="893.5" y="1935.8721"/><text fill="#000000" font-family="sans-serif" font-size="12" lengthAdjust="spacing" textLength="105" x="903.5" y="1958.3291">Connection healthy</text><polygon fill="#F1F1F1" points="873.25,2193.7471,885.25,2205.7471,873.25,2217.7471,861.25,2205.7471,873.25,2193.7471" style="stroke:#181818;stroke-width:0.5;"/><polygon fill="#F1F1F1" points="873.25,992.4688,885.25,1004.4688,873.25,1016.4688,861.25,1004.4688,873.25,992.4688" style="stroke:#181818;stroke-width:0.5;"/><polygon fill="#F1F1F1" points="845.25,2249.7471,901.25,2249.7471,913.25,2261.7471,901.25,2273.7471,845.25,2273.7471,833.25,2261.7471,845.25,2249.7471" style="stroke:#181818;stroke-width:0.5;"/><text fill="#000000" font-family="sans-serif" font-size="11" lengthAdjust="spacing" textLength="56" x="845.25" y="2266.248">Power ON?</text><text fill="#000000" font-family="sans-serif" font-size="11" lengthAdjust="spacing" textLength="20" x="913.25" y="2259.3301">Yes</text><rect fill="#F1F1F1" height="35.0938" rx="12.5" ry="12.5" style="stroke:#181818;stroke-width:0.5;" width="71" x="837.75" y="2305.7471"/><text fill="#000000" font-family="sans-serif" font-size="12" lengthAdjust="spacing" textLength="51" x="847.75" y="2328.2041">Power off</text><ellipse cx="873.25" cy="2371.8408" fill="none" rx="11" ry="11" style="stroke:#222222;stroke-width:1.0;"/><ellipse cx="873.25" cy="2371.8408" fill="#222222" rx="6" ry="6" style="stroke:#222222;stroke-width:1.0;"/><line style="stroke:#181818;stroke-width:1.0;" x1="873.25" x2="873.25" y1="68.6094" y2="88.6094"/><polygon fill="#181818" points="869.25,78.6094,873.25,88.6094,877.25,78.6094,873.25,82.6094" style="stroke:#181818;stroke-width:1.0;"/><line style="stroke:#181818;stroke-width:1.0;" x1="873.25" x2="873.25" y1="123.7031" y2="143.7031"/><polygon fill="#181818" points="869.25,133.7031,873.25,143.7031,877.25,133.7031,873.25,137.7031" style="stroke:#181818;stroke-width:1.0;"/><line style="stroke:#181818;stroke-width:1.0;" x1="873.25" x2="873.25" y1="178.7969" y2="198.7969"/><polygon fill="#181818" points="869.25,188.7969,873.25,198.7969,877.25,188.7969,873.25,192.7969" style="stroke:#181818;stroke-width:1.0;"/><line style="stroke:#181818;stroke-width:1.0;" x1="873.25" x2="873.25" y1="360.5938" y2="388.0938"/><polygon fill="#181818" points="869.25,378.0938,873.25,388.0938,877.25,378.0938,873.25,382.0938" style="stroke:#181818;stroke-width:1.0;"/><line style="stroke:#181818;stroke-width:1.0;" x1="873.25" x2="873.25" y1="305.5" y2="325.5"/><polygon fill="#181818" points="869.25,315.5,873.25,325.5,877.25,315.5,873.25,319.5" style="stroke:#181818;stroke-width:1.0;"/><line style="stroke:#181818;stroke-width:1.0;" x1="914.25" x2="952.25" y1="455.1875" y2="455.1875"/><polygon fill="#181818" points="948.25,380.5938,952.25,370.5938,956.25,380.5938,952.25,376.5938" style="stroke:#181818;stroke-width:1.0;"/><line style="stroke:#181818;stroke-width:1.0;" x1="952.25" x2="952.25" y1="293.5" y2="455.1875"/><line style="stroke:#181818;stroke-width:1.0;" x1="952.25" x2="885.25" y1="293.5" y2="293.5"/><polygon fill="#181818" points="895.25,289.5,885.25,293.5,895.25,297.5,891.25,293.5" style="stroke:#181818;stroke-width:1.0;"/><line style="stroke:#181818;stroke-width:1.0;" x1="873.25" x2="873.25" y1="423.1875" y2="443.1875"/><polygon fill="#181818" points="869.25,433.1875,873.25,443.1875,877.25,433.1875,873.25,437.1875" style="stroke:#181818;stroke-width:1.0;"/><line style="stroke:#181818;stroke-width:1.0;" x1="873.25" x2="873.25" y1="467.1875" y2="487.1875"/><polygon fill="#181818" points="869.25,477.1875,873.25,487.1875,877.25,477.1875,873.25,481.1875" style="stroke:#181818;stroke-width:1.0;"/><line style="stroke:#181818;stroke-width:1.0;" x1="873.25" x2="873.25" y1="233.8906" y2="281.5"/><polygon fill="#181818" points="869.25,271.5,873.25,281.5,877.25,271.5,873.25,275.5" style="stroke:#181818;stroke-width:1.0;"/><line style="stroke:#181818;stroke-width:1.0;" x1="873.25" x2="873.25" y1="522.2813" y2="554.2813"/><polygon fill="#181818" points="869.25,544.2813,873.25,554.2813,877.25,544.2813,873.25,548.2813" style="stroke:#181818;stroke-width:1.0;"/><line style="stroke:#181818;stroke-width:1.0;" x1="873.25" x2="873.25" y1="589.375" y2="609.375"/><polygon fill="#181818" points="869.25,599.375,873.25,609.375,877.25,599.375,873.25,603.375" style="stroke:#181818;stroke-width:1.0;"/><line style="stroke:#181818;stroke-width:1.0;" x1="873.25" x2="873.25" y1="771.1719" y2="798.6719"/><polygon fill="#181818" points="869.25,788.6719,873.25,798.6719,877.25,788.6719,873.25,792.6719" style="stroke:#181818;stroke-width:1.0;"/><line style="stroke:#181818;stroke-width:1.0;" x1="873.25" x2="873.25" y1="716.0781" y2="736.0781"/><polygon fill="#181818" points="869.25,726.0781,873.25,736.0781,877.25,726.0781,873.25,730.0781" style="stroke:#181818;stroke-width:1.0;"/><line style="stroke:#181818;stroke-width:1.0;" x1="929.25" x2="964.25" y1="865.7656" y2="865.7656"/><polygon fill="#181818" points="960.25,791.1719,964.25,781.1719,968.25,791.1719,964.25,787.1719" style="stroke:#181818;stroke-width:1.0;"/><line style="stroke:#181818;stroke-width:1.0;" x1="964.25" x2="964.25" y1="704.0781" y2="865.7656"/><line style="stroke:#181818;stroke-width:1.0;" x1="964.25" x2="885.25" y1="704.0781" y2="704.0781"/><polygon fill="#181818" points="895.25,700.0781,885.25,704.0781,895.25,708.0781,891.25,704.0781" style="stroke:#181818;stroke-width:1.0;"/><line style="stroke:#181818;stroke-width:1.0;" x1="873.25" x2="873.25" y1="833.7656" y2="853.7656"/><polygon fill="#181818" points="869.25,843.7656,873.25,853.7656,877.25,843.7656,873.25,847.7656" style="stroke:#181818;stroke-width:1.0;"/><line style="stroke:#181818;stroke-width:1.0;" x1="873.25" x2="873.25" y1="877.7656" y2="897.7656"/><polygon fill="#181818" points="869.25,887.7656,873.25,897.7656,877.25,887.7656,873.25,891.7656" style="stroke:#181818;stroke-width:1.0;"/><line style="stroke:#181818;stroke-width:1.0;" x1="873.25" x2="873.25" y1="644.4688" y2="692.0781"/><polygon fill="#181818" points="869.25,682.0781,873.25,692.0781,877.25,682.0781,873.25,686.0781" style="stroke:#181818;stroke-width:1.0;"/><line style="stroke:#181818;stroke-width:1.0;" x1="798.75" x2="798.75" y1="1133.1719" y2="1153.1719"/><polygon fill="#181818" points="794.75,1143.1719,798.75,1153.1719,802.75,1143.1719,798.75,1147.1719" style="stroke:#181818;stroke-width:1.0;"/><line style="stroke:#181818;stroke-width:1.0;" x1="798.75" x2="798.75" y1="1188.2656" y2="1208.2656"/><polygon fill="#181818" points="794.75,1198.2656,798.75,1208.2656,802.75,1198.2656,798.75,1202.2656" style="stroke:#181818;stroke-width:1.0;"/><line style="stroke:#181818;stroke-width:1.0;" x1="816.75" x2="798.75" y1="1076.0781" y2="1076.0781"/><line style="stroke:#181818;stroke-width:1.0;" x1="798.75" x2="798.75" y1="1076.0781" y2="1098.0781"/><polygon fill="#181818" points="794.75,1088.0781,798.75,1098.0781,802.75,1088.0781,798.75,1092.0781" style="stroke:#181818;stroke-width:1.0;"/><line style="stroke:#181818;stroke-width:1.0;" x1="929.75" x2="947.75" y1="1076.0781" y2="1076.0781"/><line style="stroke:#181818;stroke-width:1.0;" x1="947.75" x2="947.75" y1="1076.0781" y2="1098.0781"/><polygon fill="#181818" points="943.75,1088.0781,947.75,1098.0781,951.75,1088.0781,947.75,1092.0781" style="stroke:#181818;stroke-width:1.0;"/><line style="stroke:#181818;stroke-width:1.0;" x1="798.75" x2="798.75" y1="1243.3594" y2="1261.3594"/><line style="stroke:#181818;stroke-width:1.0;" x1="798.75" x2="861.25" y1="1261.3594" y2="1261.3594"/><polygon fill="#181818" points="851.25,1257.3594,861.25,1261.3594,851.25,1265.3594,855.25,1261.3594" style="stroke:#181818;stroke-width:1.0;"/><line style="stroke:#181818;stroke-width:1.0;" x1="947.75" x2="947.75" y1="1133.1719" y2="1261.3594"/><line style="stroke:#181818;stroke-width:1.0;" x1="947.75" x2="885.25" y1="1261.3594" y2="1261.3594"/><polygon fill="#181818" points="895.25,1257.3594,885.25,1261.3594,895.25,1265.3594,891.25,1261.3594" style="stroke:#181818;stroke-width:1.0;"/><line style="stroke:#181818;stroke-width:1.0;" x1="873.25" x2="873.25" y1="1273.3594" y2="1293.3594"/><polygon fill="#181818" points="869.25,1283.3594,873.25,1293.3594,877.25,1283.3594,873.25,1287.3594" style="stroke:#181818;stroke-width:1.0;"/><line style="stroke:#181818;stroke-width:1.0;" x1="123.5" x2="123.5" y1="1607.0752" y2="1642.0752"/><polygon fill="#181818" points="119.5,1632.0752,123.5,1642.0752,127.5,1632.0752,123.5,1636.0752" style="stroke:#181818;stroke-width:1.0;"/><line style="stroke:#181818;stroke-width:1.0;" x1="167" x2="123.5" y1="1549.9814" y2="1549.9814"/><line style="stroke:#181818;stroke-width:1.0;" x1="123.5" x2="123.5" y1="1549.9814" y2="1571.9814"/><polygon fill="#181818" points="119.5,1561.9814,123.5,1571.9814,127.5,1561.9814,123.5,1565.9814" style="stroke:#181818;stroke-width:1.0;"/><line style="stroke:#181818;stroke-width:1.0;" x1="269" x2="312.5" y1="1549.9814" y2="1549.9814"/><line style="stroke:#181818;stroke-width:1.0;" x1="312.5" x2="312.5" y1="1549.9814" y2="1571.9814"/><polygon fill="#181818" points="308.5,1561.9814,312.5,1571.9814,316.5,1561.9814,312.5,1565.9814" style="stroke:#181818;stroke-width:1.0;"/><line style="stroke:#181818;stroke-width:1.0;" x1="123.5" x2="123.5" y1="1677.1689" y2="1695.1689"/><line style="stroke:#181818;stroke-width:1.0;" x1="123.5" x2="206" y1="1695.1689" y2="1695.1689"/><polygon fill="#181818" points="196,1691.1689,206,1695.1689,196,1699.1689,200,1695.1689" style="stroke:#181818;stroke-width:1.0;"/><line style="stroke:#181818;stroke-width:1.0;" x1="312.5" x2="312.5" y1="1607.0752" y2="1695.1689"/><line style="stroke:#181818;stroke-width:1.0;" x1="312.5" x2="230" y1="1695.1689" y2="1695.1689"/><polygon fill="#181818" points="240,1691.1689,230,1695.1689,240,1699.1689,236,1695.1689" style="stroke:#181818;stroke-width:1.0;"/><line style="stroke:#181818;stroke-width:1.0;" x1="218" x2="218" y1="1707.1689" y2="1727.1689"/><polygon fill="#181818" points="214,1717.1689,218,1727.1689,222,1717.1689,218,1721.1689" style="stroke:#181818;stroke-width:1.0;"/><line style="stroke:#181818;stroke-width:1.0;" x1="482" x2="465" y1="1549.9814" y2="1549.9814"/><line style="stroke:#181818;stroke-width:1.0;" x1="465" x2="465" y1="1549.9814" y2="1571.9814"/><polygon fill="#181818" points="461,1561.9814,465,1571.9814,469,1561.9814,465,1565.9814" style="stroke:#181818;stroke-width:1.0;"/><line style="stroke:#181818;stroke-width:1.0;" x1="598" x2="615" y1="1549.9814" y2="1549.9814"/><line style="stroke:#181818;stroke-width:1.0;" x1="615" x2="615" y1="1549.9814" y2="1571.9814"/><polygon fill="#181818" points="611,1561.9814,615,1571.9814,619,1561.9814,615,1565.9814" style="stroke:#181818;stroke-width:1.0;"/><line style="stroke:#181818;stroke-width:1.0;" x1="465" x2="465" y1="1607.0752" y2="1625.0752"/><line style="stroke:#181818;stroke-width:1.0;" x1="465" x2="528" y1="1625.0752" y2="1625.0752"/><polygon fill="#181818" points="518,1621.0752,528,1625.0752,518,1629.0752,522,1625.0752" style="stroke:#181818;stroke-width:1.0;"/><line style="stroke:#181818;stroke-width:1.0;" x1="615" x2="615" y1="1607.0752" y2="1625.0752"/><line style="stroke:#181818;stroke-width:1.0;" x1="615" x2="552" y1="1625.0752" y2="1625.0752"/><polygon fill="#181818" points="562,1621.0752,552,1625.0752,562,1629.0752,558,1625.0752" style="stroke:#181818;stroke-width:1.0;"/><line style="stroke:#181818;stroke-width:1.0;" x1="218" x2="218" y1="1505.0625" y2="1537.9814"/><polygon fill="#181818" points="214,1527.9814,218,1537.9814,222,1527.9814,218,1531.9814" style="stroke:#181818;stroke-width:1.0;"/><line style="stroke:#181818;stroke-width:1.0;" x1="218" x2="218" y1="1762.2627" y2="1782.2627"/><polygon fill="#181818" points="214,1772.2627,218,1782.2627,222,1772.2627,218,1776.2627" style="stroke:#181818;stroke-width:1.0;"/><line style="stroke:#181818;stroke-width:1.0;" x1="540" x2="540" y1="1505.0625" y2="1537.9814"/><polygon fill="#181818" points="536,1527.9814,540,1537.9814,544,1527.9814,540,1531.9814" style="stroke:#181818;stroke-width:1.0;"/><line style="stroke:#181818;stroke-width:1.0;" x1="540" x2="540" y1="1637.0752" y2="1782.2627"/><polygon fill="#181818" points="536,1772.2627,540,1782.2627,544,1772.2627,540,1776.2627" style="stroke:#181818;stroke-width:1.0;"/><line style="stroke:#181818;stroke-width:1.0;" x1="263" x2="496.5" y1="1493.0625" y2="1493.0625"/><polygon fill="#181818" points="486.5,1489.0625,496.5,1493.0625,486.5,1497.0625,490.5,1493.0625" style="stroke:#181818;stroke-width:1.0;"/><line style="stroke:#181818;stroke-width:1.0;" x1="629.5" x2="218" y1="1434.0625" y2="1434.0625"/><line style="stroke:#181818;stroke-width:1.0;" x1="218" x2="218" y1="1434.0625" y2="1481.0625"/><polygon fill="#181818" points="214,1471.0625,218,1481.0625,222,1471.0625,218,1475.0625" style="stroke:#181818;stroke-width:1.0;"/><line style="stroke:#181818;stroke-width:1.0;" x1="583.5" x2="779.5" y1="1493.0625" y2="1493.0625"/><line style="stroke:#181818;stroke-width:1.0;" x1="779.5" x2="779.5" y1="1493.0625" y2="1636.1572"/><polygon fill="#181818" points="775.5,1626.1572,779.5,1636.1572,783.5,1626.1572,779.5,1630.1572" style="stroke:#181818;stroke-width:1.0;"/><line style="stroke:#181818;stroke-width:1.0;" x1="779.5" x2="779.5" y1="1671.251" y2="1782.2627"/><polygon fill="#181818" points="775.5,1772.2627,779.5,1782.2627,783.5,1772.2627,779.5,1776.2627" style="stroke:#181818;stroke-width:1.0;"/><line style="stroke:#181818;stroke-width:1.0;" x1="218" x2="779.5" y1="1782.2627" y2="1782.2627"/><line style="stroke:#181818;stroke-width:1.0;" x1="711.5" x2="920.5" y1="1434.0625" y2="1434.0625"/><line style="stroke:#181818;stroke-width:1.0;" x1="920.5" x2="920.5" y1="1434.0625" y2="1456.0625"/><polygon fill="#181818" points="916.5,1446.0625,920.5,1456.0625,924.5,1446.0625,920.5,1450.0625" style="stroke:#181818;stroke-width:1.0;"/><line style="stroke:#181818;stroke-width:1.0;" x1="420.5" x2="420.5" y1="1782.2627" y2="1800.2627"/><line style="stroke:#181818;stroke-width:1.0;" x1="420.5" x2="658.5" y1="1800.2627" y2="1800.2627"/><polygon fill="#181818" points="648.5,1796.2627,658.5,1800.2627,648.5,1804.2627,652.5,1800.2627" style="stroke:#181818;stroke-width:1.0;"/><line style="stroke:#181818;stroke-width:1.0;" x1="920.5" x2="920.5" y1="1491.1563" y2="1800.2627"/><line style="stroke:#181818;stroke-width:1.0;" x1="920.5" x2="682.5" y1="1800.2627" y2="1800.2627"/><polygon fill="#181818" points="692.5,1796.2627,682.5,1800.2627,692.5,1804.2627,688.5,1800.2627" style="stroke:#181818;stroke-width:1.0;"/><line style="stroke:#181818;stroke-width:1.0;" x1="798.25" x2="670.5" y1="1400.0625" y2="1400.0625"/><line style="stroke:#181818;stroke-width:1.0;" x1="670.5" x2="670.5" y1="1400.0625" y2="1422.0625"/><polygon fill="#181818" points="666.5,1412.0625,670.5,1422.0625,674.5,1412.0625,670.5,1416.0625" style="stroke:#181818;stroke-width:1.0;"/><line style="stroke:#181818;stroke-width:1.0;" x1="948.25" x2="1076" y1="1400.0625" y2="1400.0625"/><line style="stroke:#181818;stroke-width:1.0;" x1="1076" x2="1076" y1="1400.0625" y2="1422.0625"/><polygon fill="#181818" points="1072,1412.0625,1076,1422.0625,1080,1412.0625,1076,1416.0625" style="stroke:#181818;stroke-width:1.0;"/><line style="stroke:#181818;stroke-width:1.0;" x1="670.5" x2="670.5" y1="1812.2627" y2="1830.2627"/><line style="stroke:#181818;stroke-width:1.0;" x1="670.5" x2="861.25" y1="1830.2627" y2="1830.2627"/><polygon fill="#181818" points="851.25,1826.2627,861.25,1830.2627,851.25,1834.2627,855.25,1830.2627" style="stroke:#181818;stroke-width:1.0;"/><line style="stroke:#181818;stroke-width:1.0;" x1="1076" x2="1076" y1="1457.1563" y2="1830.2627"/><line style="stroke:#181818;stroke-width:1.0;" x1="1076" x2="885.25" y1="1830.2627" y2="1830.2627"/><polygon fill="#181818" points="895.25,1826.2627,885.25,1830.2627,895.25,1834.2627,891.25,1830.2627" style="stroke:#181818;stroke-width:1.0;"/><line style="stroke:#181818;stroke-width:1.0;" x1="873.25" x2="873.25" y1="1328.4531" y2="1388.0625"/><polygon fill="#181818" points="869.25,1378.0625,873.25,1388.0625,877.25,1378.0625,873.25,1382.0625" style="stroke:#181818;stroke-width:1.0;"/><line style="stroke:#181818;stroke-width:1.0;" x1="790.5" x2="790.5" y1="2026.0596" y2="2053.5596"/><polygon fill="#181818" points="786.5,2043.5596,790.5,2053.5596,794.5,2043.5596,790.5,2047.5596" style="stroke:#181818;stroke-width:1.0;"/><line style="stroke:#181818;stroke-width:1.0;" x1="790.5" x2="790.5" y1="1959.8721" y2="1990.9658"/><polygon fill="#181818" points="786.5,1980.9658,790.5,1990.9658,794.5,1980.9658,790.5,1984.9658" style="stroke:#181818;stroke-width:1.0;"/><line style="stroke:#181818;stroke-width:1.0;" x1="846.5" x2="861.5" y1="2120.6533" y2="2120.6533"/><polygon fill="#181818" points="857.5,2046.0596,861.5,2036.0596,865.5,2046.0596,861.5,2042.0596" style="stroke:#181818;stroke-width:1.0;"/><line style="stroke:#181818;stroke-width:1.0;" x1="861.5" x2="861.5" y1="1947.8721" y2="2120.6533"/><line style="stroke:#181818;stroke-width:1.0;" x1="861.5" x2="802.5" y1="1947.8721" y2="1947.8721"/><polygon fill="#181818" points="812.5,1943.8721,802.5,1947.8721,812.5,1951.8721,808.5,1947.8721" style="stroke:#181818;stroke-width:1.0;"/><line style="stroke:#181818;stroke-width:1.0;" x1="790.5" x2="790.5" y1="2088.6533" y2="2108.6533"/><polygon fill="#181818" points="786.5,2098.6533,790.5,2108.6533,794.5,2098.6533,790.5,2102.6533" style="stroke:#181818;stroke-width:1.0;"/><line style="stroke:#181818;stroke-width:1.0;" x1="790.5" x2="790.5" y1="2132.6533" y2="2152.6533"/><polygon fill="#181818" points="786.5,2142.6533,790.5,2152.6533,794.5,2142.6533,790.5,2146.6533" style="stroke:#181818;stroke-width:1.0;"/><line style="stroke:#181818;stroke-width:1.0;" x1="806.25" x2="790.5" y1="1913.8721" y2="1913.8721"/><line style="stroke:#181818;stroke-width:1.0;" x1="790.5" x2="790.5" y1="1913.8721" y2="1935.8721"/><polygon fill="#181818" points="786.5,1925.8721,790.5,1935.8721,794.5,1925.8721,790.5,1929.8721" style="stroke:#181818;stroke-width:1.0;"/><line style="stroke:#181818;stroke-width:1.0;" x1="940.25" x2="956" y1="1913.8721" y2="1913.8721"/><line style="stroke:#181818;stroke-width:1.0;" x1="956" x2="956" y1="1913.8721" y2="1935.8721"/><polygon fill="#181818" points="952,1925.8721,956,1935.8721,960,1925.8721,956,1929.8721" style="stroke:#181818;stroke-width:1.0;"/><line style="stroke:#181818;stroke-width:1.0;" x1="790.5" x2="790.5" y1="2187.7471" y2="2205.7471"/><line style="stroke:#181818;stroke-width:1.0;" x1="790.5" x2="861.25" y1="2205.7471" y2="2205.7471"/><polygon fill="#181818" points="851.25,2201.7471,861.25,2205.7471,851.25,2209.7471,855.25,2205.7471" style="stroke:#181818;stroke-width:1.0;"/><line style="stroke:#181818;stroke-width:1.0;" x1="956" x2="956" y1="1970.9658" y2="2205.7471"/><line style="stroke:#181818;stroke-width:1.0;" x1="956" x2="885.25" y1="2205.7471" y2="2205.7471"/><polygon fill="#181818" points="895.25,2201.7471,885.25,2205.7471,895.25,2209.7471,891.25,2205.7471" style="stroke:#181818;stroke-width:1.0;"/><line style="stroke:#181818;stroke-width:1.0;" x1="873.25" x2="873.25" y1="1842.2627" y2="1901.8721"/><polygon fill="#181818" points="869.25,1891.8721,873.25,1901.8721,877.25,1891.8721,873.25,1895.8721" style="stroke:#181818;stroke-width:1.0;"/><line style="stroke:#181818;stroke-width:1.0;" x1="873.25" x2="873.25" y1="1016.4688" y2="1064.0781"/><polygon fill="#181818" points="869.25,1054.0781,873.25,1064.0781,877.25,1054.0781,873.25,1058.0781" style="stroke:#181818;stroke-width:1.0;"/><line style="stroke:#181818;stroke-width:1.0;" x1="913.25" x2="1173" y1="2261.7471" y2="2261.7471"/><polygon fill="#181818" points="1169,1687.8525,1173,1677.8525,1177,1687.8525,1173,1683.8525" style="stroke:#181818;stroke-width:1.0;"/><line style="stroke:#181818;stroke-width:1.0;" x1="1173" x2="1173" y1="1004.4688" y2="2261.7471"/><line style="stroke:#181818;stroke-width:1.0;" x1="1173" x2="885.25" y1="1004.4688" y2="1004.4688"/><polygon fill="#181818" points="895.25,1000.4688,885.25,1004.4688,895.25,1008.4688,891.25,1004.4688" style="stroke:#181818;stroke-width:1.0;"/><line style="stroke:#181818;stroke-width:1.0;" x1="873.25" x2="873.25" y1="2217.7471" y2="2249.7471"/><polygon fill="#181818" points="869.25,2239.7471,873.25,2249.7471,877.25,2239.7471,873.25,2243.7471" style="stroke:#181818;stroke-width:1.0;"/><line style="stroke:#181818;stroke-width:1.0;" x1="873.25" x2="873.25" y1="932.8594" y2="992.4688"/><polygon fill="#181818" points="869.25,982.4688,873.25,992.4688,877.25,982.4688,873.25,986.4688" style="stroke:#181818;stroke-width:1.0;"/><line style="stroke:#181818;stroke-width:1.0;" x1="873.25" x2="873.25" y1="2273.7471" y2="2305.7471"/><polygon fill="#181818" points="869.25,2295.7471,873.25,2305.7471,877.25,2295.7471,873.25,2299.7471" style="stroke:#181818;stroke-width:1.0;"/><line style="stroke:#181818;stroke-width:1.0;" x1="873.25" x2="873.25" y1="2340.8408" y2="2360.8408"/><polygon fill="#181818" points="869.25,2350.8408,873.25,2360.8408,877.25,2350.8408,873.25,2354.8408" style="stroke:#181818;stroke-width:1.0;"/><!--SRC=[fLR1Rjf04BtxAqOvL22rIjGg5woe8WwqL0HeJ1hrkAm7M65shTqbb5RvzyxQ1cni26bzGlZDx7jlPdPiXOqHxl1PS8IUjAWbYw6lL0ANq1TJv1jEW4Od77twsFGyOvcsNkjMAUjxhPuKLh1O_4QOCnsjcIRebr5l-1uCIgEqQHAghrW4Jw8hW6kCKBeGutjUGgaeNacuIDy6IahaxeyB-EC1FHeJP3RzwPvMsrfS9ZPFbi7z_UixZDa6hg-kbiOlnCDwBfo6F3z6dviW33G6YWIbWSNZCVAz5yzhXKuf3COZuB4WqYGat4WEPcE815YnnBA6- -_ZyHiqfF2gXiwlHCdC8vWmlb3JAKHELvsYOeuQMU5gOhWM4mIh7Cng5SCxe1hQbQ7_4i5DAhQeWWcPrj_nBmhOKIo0mxJ8C5fDOc7cGivsGTj7JA4XJ9iSUKQukO7nmsE7UDevIcZyHDCieLFM3qZjahKFFBDuXSQlWW9Dd12-XSC14Th4r68rg9oOav_tOwQw3CNOO6PR9K6u40aaEta7SJ8IqxBSrXCJ5gxfDB8xAX1_gVMl9xbQKbwuHsFO3E4har6CkjR6jDZB7AYH8raQbRsi271ngKTaf7WDl0q8yav9hJeZPX-tN1B_khFWn4CjZtn5nMJft42Ztxc3uU1osEqs_TEHUHU4Zq7G2KConT3m63mUTRpKTNcxxPxZSaRQQYVKzc4-WvVxZDunbixGi32eRwX37aRJrWx6lH-TDvGYH0lxSKsdzR_DFCZPRVV3pZzPwSuxxd5l9XMjdvLSIBMMTNF-oX6dvT0McxdH9GnghNGrTKtQ4pVBG87OJdy-r7Mto-dxum7vRjz0C4U-E7vp592nClQLVZhOMYNgsmsciRA-IhZRwlgg7d7UAZjO41zCORDbM-nSt_SB6kR8OZlVd65xcUf8hL7J3PMJp0nqdmpP2vBiqtUIIho_]--></g></svg>