<?xml version="1.0" encoding="us-ascii" standalone="no"?><svg xmlns="http://www.w3.org/2000/svg" xmlns:xlink="http://www.w3.org/1999/xlink" contentStyleType="text/css" height="849px" preserveAspectRatio="none" style="width:1019px;height:849px;background:#FFFFFF;" version="1.1" viewBox="0 0 1019 849" width="1019px" zoomAndPan="magnify"><defs/><g><text fill="#000000" font-family="sans-serif" font-size="14" font-weight="bold" lengthAdjust="spacing" textLength="311" x="352.5" y="34.5332">Backend MQTT Inbound Processing Pipeline</text><ellipse cx="511" cy="58.6094" fill="#222222" rx="10" ry="10" style="stroke:#222222;stroke-width:1.0;"/><rect fill="#F1F1F1" height="35.0938" rx="12.5" ry="12.5" style="stroke:#181818;stroke-width:0.5;" width="155" x="433.5" y="88.6094"/><text fill="#000000" font-family="sans-serif" font-size="12" lengthAdjust="spacing" textLength="135" x="443.5" y="111.0664">Receive MQTT message</text><rect fill="#F1F1F1" height="35.0938" rx="12.5" ry="12.5" style="stroke:#181818;stroke-width:0.5;" width="142" x="440" y="143.7031"/><text fill="#000000" font-family="sans-serif" font-size="12" lengthAdjust="spacing" textLength="122" x="450" y="166.1602">Extract topic &amp; payload</text><polygon fill="#F1F1F1" points="482,198.7969,540,198.7969,552,210.7969,540,222.7969,482,222.7969,470,210.7969,482,198.7969" style="stroke:#181818;stroke-width:0.5;"/><text fill="#000000" font-family="sans-serif" font-size="11" lengthAdjust="spacing" textLength="58" x="482" y="215.2979">JSON valid?</text><text fill="#000000" font-family="sans-serif" font-size="11" lengthAdjust="spacing" textLength="20" x="450" y="208.3799">Yes</text><text fill="#000000" font-family="sans-serif" font-size="11" lengthAdjust="spacing" textLength="13" x="552" y="208.3799">No</text><rect fill="#F1F1F1" height="35.0938" rx="12.5" ry="12.5" style="stroke:#181818;stroke-width:0.5;" width="161" x="345.5" y="232.7969"/><text fill="#000000" font-family="sans-serif" font-size="12" lengthAdjust="spacing" textLength="141" x="355.5" y="255.2539">Extract deviceId from topic</text><rect fill="#F1F1F1" height="35.0938" rx="12.5" ry="12.5" style="stroke:#181818;stroke-width:0.5;" width="139" x="526.5" y="232.7969"/><text fill="#000000" font-family="sans-serif" font-size="12" lengthAdjust="spacing" textLength="119" x="536.5" y="255.2539">Log malformed JSON</text><ellipse cx="596" cy="298.8906" fill="none" rx="11" ry="11" style="stroke:#222222;stroke-width:1.0;"/><ellipse cx="596" cy="298.8906" fill="#222222" rx="6" ry="6" style="stroke:#222222;stroke-width:1.0;"/><polygon fill="#F1F1F1" points="32,329.8906,153,329.8906,165,341.8906,153,353.8906,32,353.8906,20,341.8906,32,329.8906" style="stroke:#181818;stroke-width:0.5;"/><text fill="#000000" font-family="sans-serif" font-size="11" lengthAdjust="spacing" textLength="20" x="96.5" y="365.3096">Yes</text><text fill="#000000" font-family="sans-serif" font-size="11" lengthAdjust="spacing" textLength="121" x="32" y="346.3916">Topic = SENSOR_DATA?</text><rect fill="#F1F1F1" height="35.0938" rx="12.5" ry="12.5" style="stroke:#181818;stroke-width:0.5;" width="141" x="22" y="386.8096"/><text fill="#000000" font-family="sans-serif" font-size="12" lengthAdjust="spacing" textLength="121" x="32" y="409.2666">Parse sensor payload</text><rect fill="#F1F1F1" height="35.0938" rx="12.5" ry="12.5" style="stroke:#181818;stroke-width:0.5;" width="157" x="14" y="441.9033"/><text fill="#000000" font-family="sans-serif" font-size="12" lengthAdjust="spacing" textLength="137" x="24" y="464.3604">Create SensorData entity</text><rect fill="#F1F1F1" height="35.0938" rx="12.5" ry="12.5" style="stroke:#181818;stroke-width:0.5;" width="117" x="34" y="496.9971"/><text fill="#000000" font-family="sans-serif" font-size="12" lengthAdjust="spacing" textLength="97" x="44" y="519.4541">Save to MongoDB</text><polygon fill="#F1F1F1" points="310,329.8906,395,329.8906,407,341.8906,395,353.8906,310,353.8906,298,341.8906,310,329.8906" style="stroke:#181818;stroke-width:0.5;"/><text fill="#000000" font-family="sans-serif" font-size="11" lengthAdjust="spacing" textLength="20" x="356.5" y="365.3096">Yes</text><text fill="#000000" font-family="sans-serif" font-size="11" lengthAdjust="spacing" textLength="85" x="310" y="346.3916">Topic = STATUS?</text><rect fill="#F1F1F1" height="35.0938" rx="12.5" ry="12.5" style="stroke:#181818;stroke-width:0.5;" width="136" x="284.5" y="386.8096"/><text fill="#000000" font-family="sans-serif" font-size="12" lengthAdjust="spacing" textLength="116" x="294.5" y="409.2666">Parse status payload</text><rect fill="#F1F1F1" height="35.0938" rx="12.5" ry="12.5" style="stroke:#181818;stroke-width:0.5;" width="136" x="284.5" y="441.9033"/><text fill="#000000" font-family="sans-serif" font-size="12" lengthAdjust="spacing" textLength="116" x="294.5" y="464.3604">Find device in MySQL</text><polygon fill="#F1F1F1" points="317,496.9971,388,496.9971,400,508.9971,388,520.9971,317,520.9971,305,508.9971,317,496.9971" style="stroke:#181818;stroke-width:0.5;"/><text fill="#000000" font-family="sans-serif" font-size="11" lengthAdjust="spacing" textLength="71" x="317" y="513.498">Device exists?</text><text fill="#000000" font-family="sans-serif" font-size="11" lengthAdjust="spacing" textLength="20" x="285" y="506.5801">Yes</text><text fill="#000000" font-family="sans-serif" font-size="11" lengthAdjust="spacing" textLength="13" x="400" y="506.5801">No</text><rect fill="#F1F1F1" height="35.0938" rx="12.5" ry="12.5" style="stroke:#181818;stroke-width:0.5;" width="135" x="199" y="530.9971"/><text fill="#000000" font-family="sans-serif" font-size="12" lengthAdjust="spacing" textLength="115" x="209" y="553.4541">Update device.status</text><rect fill="#F1F1F1" height="35.0938" rx="12.5" ry="12.5" style="stroke:#181818;stroke-width:0.5;" width="171" x="181" y="586.0908"/><text fill="#000000" font-family="sans-serif" font-size="12" lengthAdjust="spacing" textLength="151" x="191" y="608.5479">Update lastCommunication</text><rect fill="#F1F1F1" height="35.0938" rx="12.5" ry="12.5" style="stroke:#181818;stroke-width:0.5;" width="101" x="216" y="656.1846"/><text fill="#000000" font-family="sans-serif" font-size="12" lengthAdjust="spacing" textLength="81" x="226" y="678.6416">Save to MySQL</text><rect fill="#F1F1F1" height="35.0938" rx="12.5" ry="12.5" style="stroke:#181818;stroke-width:0.5;" width="133" x="372" y="530.9971"/><text fill="#000000" font-family="sans-serif" font-size="12" lengthAdjust="spacing" textLength="113" x="382" y="553.4541">Log device not found</text><polygon fill="#F1F1F1" points="352.5,697.2783,364.5,709.2783,352.5,721.2783,340.5,709.2783,352.5,697.2783" style="stroke:#181818;stroke-width:0.5;"/><polygon fill="#F1F1F1" points="634,329.8906,787,329.8906,799,341.8906,787,353.8906,634,353.8906,622,341.8906,634,329.8906" style="stroke:#181818;stroke-width:0.5;"/><text fill="#000000" font-family="sans-serif" font-size="11" lengthAdjust="spacing" textLength="20" x="714.5" y="365.3096">Yes</text><text fill="#000000" font-family="sans-serif" font-size="11" lengthAdjust="spacing" textLength="153" x="634" y="346.3916">Topic = CONTROL_RESPONSE?</text><rect fill="#F1F1F1" height="35.0938" rx="12.5" ry="12.5" style="stroke:#181818;stroke-width:0.5;" width="149" x="636" y="386.8096"/><text fill="#000000" font-family="sans-serif" font-size="12" lengthAdjust="spacing" textLength="129" x="646" y="409.2666">Parse control response</text><rect fill="#F1F1F1" height="35.0938" rx="12.5" ry="12.5" style="stroke:#181818;stroke-width:0.5;" width="157" x="632" y="441.9033"/><text fill="#000000" font-family="sans-serif" font-size="12" lengthAdjust="spacing" textLength="137" x="642" y="464.3604">Find command in MySQL</text><polygon fill="#F1F1F1" points="668,496.9971,753,496.9971,765,508.9971,753,520.9971,668,520.9971,656,508.9971,668,496.9971" style="stroke:#181818;stroke-width:0.5;"/><text fill="#000000" font-family="sans-serif" font-size="11" lengthAdjust="spacing" textLength="85" x="668" y="513.498">Command exists?</text><text fill="#000000" font-family="sans-serif" font-size="11" lengthAdjust="spacing" textLength="20" x="636" y="506.5801">Yes</text><text fill="#000000" font-family="sans-serif" font-size="11" lengthAdjust="spacing" textLength="13" x="765" y="506.5801">No</text><rect fill="#F1F1F1" height="35.0938" rx="12.5" ry="12.5" style="stroke:#181818;stroke-width:0.5;" width="156" x="545" y="530.9971"/><text fill="#000000" font-family="sans-serif" font-size="12" lengthAdjust="spacing" textLength="136" x="555" y="553.4541">Update command status</text><rect fill="#F1F1F1" height="35.0938" rx="12.5" ry="12.5" style="stroke:#181818;stroke-width:0.5;" width="101" x="572.5" y="586.0908"/><text fill="#000000" font-family="sans-serif" font-size="12" lengthAdjust="spacing" textLength="81" x="582.5" y="608.5479">Save to MySQL</text><rect fill="#F1F1F1" height="35.0938" rx="12.5" ry="12.5" style="stroke:#181818;stroke-width:0.5;" width="154" x="721" y="530.9971"/><text fill="#000000" font-family="sans-serif" font-size="12" lengthAdjust="spacing" textLength="134" x="731" y="553.4541">Log command not found</text><polygon fill="#F1F1F1" points="710.5,627.1846,722.5,639.1846,710.5,651.1846,698.5,639.1846,710.5,627.1846" style="stroke:#181818;stroke-width:0.5;"/><rect fill="#F1F1F1" height="35.0938" rx="12.5" ry="12.5" style="stroke:#181818;stroke-width:0.5;" width="123" x="885" y="525.0791"/><text fill="#000000" font-family="sans-serif" font-size="12" lengthAdjust="spacing" textLength="103" x="895" y="547.5361">Log unknown topic</text><rect fill="#F1F1F1" height="35.0938" rx="12.5" ry="12.5" style="stroke:#181818;stroke-width:0.5;" width="137" x="442.5" y="761.2783"/><text fill="#000000" font-family="sans-serif" font-size="12" lengthAdjust="spacing" textLength="117" x="452.5" y="783.7354">Processing complete</text><ellipse cx="511" cy="827.3721" fill="none" rx="11" ry="11" style="stroke:#222222;stroke-width:1.0;"/><ellipse cx="511" cy="827.3721" fill="#222222" rx="6" ry="6" style="stroke:#222222;stroke-width:1.0;"/><line style="stroke:#181818;stroke-width:1.0;" x1="511" x2="511" y1="68.6094" y2="88.6094"/><polygon fill="#181818" points="507,78.6094,511,88.6094,515,78.6094,511,82.6094" style="stroke:#181818;stroke-width:1.0;"/><line style="stroke:#181818;stroke-width:1.0;" x1="511" x2="511" y1="123.7031" y2="143.7031"/><polygon fill="#181818" points="507,133.7031,511,143.7031,515,133.7031,511,137.7031" style="stroke:#181818;stroke-width:1.0;"/><line style="stroke:#181818;stroke-width:1.0;" x1="596" x2="596" y1="267.8906" y2="287.8906"/><polygon fill="#181818" points="592,277.8906,596,287.8906,600,277.8906,596,281.8906" style="stroke:#181818;stroke-width:1.0;"/><line style="stroke:#181818;stroke-width:1.0;" x1="470" x2="426" y1="210.7969" y2="210.7969"/><line style="stroke:#181818;stroke-width:1.0;" x1="426" x2="426" y1="210.7969" y2="232.7969"/><polygon fill="#181818" points="422,222.7969,426,232.7969,430,222.7969,426,226.7969" style="stroke:#181818;stroke-width:1.0;"/><line style="stroke:#181818;stroke-width:1.0;" x1="552" x2="596" y1="210.7969" y2="210.7969"/><line style="stroke:#181818;stroke-width:1.0;" x1="596" x2="596" y1="210.7969" y2="232.7969"/><polygon fill="#181818" points="592,222.7969,596,232.7969,600,222.7969,596,226.7969" style="stroke:#181818;stroke-width:1.0;"/><line style="stroke:#181818;stroke-width:1.0;" x1="426" x2="426" y1="267.8906" y2="314.8906"/><line style="stroke:#181818;stroke-width:1.0;" x1="426" x2="511" y1="314.8906" y2="314.8906"/><line style="stroke:#181818;stroke-width:1.0;" x1="511" x2="511" y1="314.8906" y2="314.8906"/><line style="stroke:#181818;stroke-width:1.0;" x1="511" x2="511" y1="178.7969" y2="198.7969"/><polygon fill="#181818" points="507,188.7969,511,198.7969,515,188.7969,511,192.7969" style="stroke:#181818;stroke-width:1.0;"/><line style="stroke:#181818;stroke-width:1.0;" x1="92.5" x2="92.5" y1="421.9033" y2="441.9033"/><polygon fill="#181818" points="88.5,431.9033,92.5,441.9033,96.5,431.9033,92.5,435.9033" style="stroke:#181818;stroke-width:1.0;"/><line style="stroke:#181818;stroke-width:1.0;" x1="92.5" x2="92.5" y1="476.9971" y2="496.9971"/><polygon fill="#181818" points="88.5,486.9971,92.5,496.9971,96.5,486.9971,92.5,490.9971" style="stroke:#181818;stroke-width:1.0;"/><line style="stroke:#181818;stroke-width:1.0;" x1="352.5" x2="352.5" y1="421.9033" y2="441.9033"/><polygon fill="#181818" points="348.5,431.9033,352.5,441.9033,356.5,431.9033,352.5,435.9033" style="stroke:#181818;stroke-width:1.0;"/><line style="stroke:#181818;stroke-width:1.0;" x1="266.5" x2="266.5" y1="566.0908" y2="586.0908"/><polygon fill="#181818" points="262.5,576.0908,266.5,586.0908,270.5,576.0908,266.5,580.0908" style="stroke:#181818;stroke-width:1.0;"/><line style="stroke:#181818;stroke-width:1.0;" x1="266.5" x2="266.5" y1="621.1846" y2="656.1846"/><polygon fill="#181818" points="262.5,646.1846,266.5,656.1846,270.5,646.1846,266.5,650.1846" style="stroke:#181818;stroke-width:1.0;"/><line style="stroke:#181818;stroke-width:1.0;" x1="305" x2="266.5" y1="508.9971" y2="508.9971"/><line style="stroke:#181818;stroke-width:1.0;" x1="266.5" x2="266.5" y1="508.9971" y2="530.9971"/><polygon fill="#181818" points="262.5,520.9971,266.5,530.9971,270.5,520.9971,266.5,524.9971" style="stroke:#181818;stroke-width:1.0;"/><line style="stroke:#181818;stroke-width:1.0;" x1="400" x2="438.5" y1="508.9971" y2="508.9971"/><line style="stroke:#181818;stroke-width:1.0;" x1="438.5" x2="438.5" y1="508.9971" y2="530.9971"/><polygon fill="#181818" points="434.5,520.9971,438.5,530.9971,442.5,520.9971,438.5,524.9971" style="stroke:#181818;stroke-width:1.0;"/><line style="stroke:#181818;stroke-width:1.0;" x1="266.5" x2="266.5" y1="691.2783" y2="709.2783"/><line style="stroke:#181818;stroke-width:1.0;" x1="266.5" x2="340.5" y1="709.2783" y2="709.2783"/><polygon fill="#181818" points="330.5,705.2783,340.5,709.2783,330.5,713.2783,334.5,709.2783" style="stroke:#181818;stroke-width:1.0;"/><line style="stroke:#181818;stroke-width:1.0;" x1="438.5" x2="438.5" y1="566.0908" y2="709.2783"/><line style="stroke:#181818;stroke-width:1.0;" x1="438.5" x2="364.5" y1="709.2783" y2="709.2783"/><polygon fill="#181818" points="374.5,705.2783,364.5,709.2783,374.5,713.2783,370.5,709.2783" style="stroke:#181818;stroke-width:1.0;"/><line style="stroke:#181818;stroke-width:1.0;" x1="352.5" x2="352.5" y1="476.9971" y2="496.9971"/><polygon fill="#181818" points="348.5,486.9971,352.5,496.9971,356.5,486.9971,352.5,490.9971" style="stroke:#181818;stroke-width:1.0;"/><line style="stroke:#181818;stroke-width:1.0;" x1="710.5" x2="710.5" y1="421.9033" y2="441.9033"/><polygon fill="#181818" points="706.5,431.9033,710.5,441.9033,714.5,431.9033,710.5,435.9033" style="stroke:#181818;stroke-width:1.0;"/><line style="stroke:#181818;stroke-width:1.0;" x1="623" x2="623" y1="566.0908" y2="586.0908"/><polygon fill="#181818" points="619,576.0908,623,586.0908,627,576.0908,623,580.0908" style="stroke:#181818;stroke-width:1.0;"/><line style="stroke:#181818;stroke-width:1.0;" x1="656" x2="623" y1="508.9971" y2="508.9971"/><line style="stroke:#181818;stroke-width:1.0;" x1="623" x2="623" y1="508.9971" y2="530.9971"/><polygon fill="#181818" points="619,520.9971,623,530.9971,627,520.9971,623,524.9971" style="stroke:#181818;stroke-width:1.0;"/><line style="stroke:#181818;stroke-width:1.0;" x1="765" x2="798" y1="508.9971" y2="508.9971"/><line style="stroke:#181818;stroke-width:1.0;" x1="798" x2="798" y1="508.9971" y2="530.9971"/><polygon fill="#181818" points="794,520.9971,798,530.9971,802,520.9971,798,524.9971" style="stroke:#181818;stroke-width:1.0;"/><line style="stroke:#181818;stroke-width:1.0;" x1="623" x2="623" y1="621.1846" y2="639.1846"/><line style="stroke:#181818;stroke-width:1.0;" x1="623" x2="698.5" y1="639.1846" y2="639.1846"/><polygon fill="#181818" points="688.5,635.1846,698.5,639.1846,688.5,643.1846,692.5,639.1846" style="stroke:#181818;stroke-width:1.0;"/><line style="stroke:#181818;stroke-width:1.0;" x1="798" x2="798" y1="566.0908" y2="639.1846"/><line style="stroke:#181818;stroke-width:1.0;" x1="798" x2="722.5" y1="639.1846" y2="639.1846"/><polygon fill="#181818" points="732.5,635.1846,722.5,639.1846,732.5,643.1846,728.5,639.1846" style="stroke:#181818;stroke-width:1.0;"/><line style="stroke:#181818;stroke-width:1.0;" x1="710.5" x2="710.5" y1="476.9971" y2="496.9971"/><polygon fill="#181818" points="706.5,486.9971,710.5,496.9971,714.5,486.9971,710.5,490.9971" style="stroke:#181818;stroke-width:1.0;"/><line style="stroke:#181818;stroke-width:1.0;" x1="92.5" x2="92.5" y1="353.8906" y2="386.8096"/><polygon fill="#181818" points="88.5,376.8096,92.5,386.8096,96.5,376.8096,92.5,380.8096" style="stroke:#181818;stroke-width:1.0;"/><line style="stroke:#181818;stroke-width:1.0;" x1="92.5" x2="92.5" y1="532.0908" y2="741.2783"/><polygon fill="#181818" points="88.5,731.2783,92.5,741.2783,96.5,731.2783,92.5,735.2783" style="stroke:#181818;stroke-width:1.0;"/><line style="stroke:#181818;stroke-width:1.0;" x1="352.5" x2="352.5" y1="353.8906" y2="386.8096"/><polygon fill="#181818" points="348.5,376.8096,352.5,386.8096,356.5,376.8096,352.5,380.8096" style="stroke:#181818;stroke-width:1.0;"/><line style="stroke:#181818;stroke-width:1.0;" x1="352.5" x2="352.5" y1="721.2783" y2="741.2783"/><polygon fill="#181818" points="348.5,731.2783,352.5,741.2783,356.5,731.2783,352.5,735.2783" style="stroke:#181818;stroke-width:1.0;"/><line style="stroke:#181818;stroke-width:1.0;" x1="710.5" x2="710.5" y1="353.8906" y2="386.8096"/><polygon fill="#181818" points="706.5,376.8096,710.5,386.8096,714.5,376.8096,710.5,380.8096" style="stroke:#181818;stroke-width:1.0;"/><line style="stroke:#181818;stroke-width:1.0;" x1="710.5" x2="710.5" y1="651.1846" y2="741.2783"/><polygon fill="#181818" points="706.5,731.2783,710.5,741.2783,714.5,731.2783,710.5,735.2783" style="stroke:#181818;stroke-width:1.0;"/><line style="stroke:#181818;stroke-width:1.0;" x1="165" x2="298" y1="341.8906" y2="341.8906"/><polygon fill="#181818" points="288,337.8906,298,341.8906,288,345.8906,292,341.8906" style="stroke:#181818;stroke-width:1.0;"/><line style="stroke:#181818;stroke-width:1.0;" x1="407" x2="622" y1="341.8906" y2="341.8906"/><polygon fill="#181818" points="612,337.8906,622,341.8906,612,345.8906,616,341.8906" style="stroke:#181818;stroke-width:1.0;"/><line style="stroke:#181818;stroke-width:1.0;" x1="511" x2="92.5" y1="314.8906" y2="314.8906"/><line style="stroke:#181818;stroke-width:1.0;" x1="92.5" x2="92.5" y1="314.8906" y2="329.8906"/><polygon fill="#181818" points="88.5,319.8906,92.5,329.8906,96.5,319.8906,92.5,323.8906" style="stroke:#181818;stroke-width:1.0;"/><line style="stroke:#181818;stroke-width:1.0;" x1="799" x2="946.5" y1="341.8906" y2="341.8906"/><line style="stroke:#181818;stroke-width:1.0;" x1="946.5" x2="946.5" y1="341.8906" y2="525.0791"/><polygon fill="#181818" points="942.5,515.0791,946.5,525.0791,950.5,515.0791,946.5,519.0791" style="stroke:#181818;stroke-width:1.0;"/><line style="stroke:#181818;stroke-width:1.0;" x1="946.5" x2="946.5" y1="560.1729" y2="741.2783"/><polygon fill="#181818" points="942.5,731.2783,946.5,741.2783,950.5,731.2783,946.5,735.2783" style="stroke:#181818;stroke-width:1.0;"/><line style="stroke:#181818;stroke-width:1.0;" x1="92.5" x2="946.5" y1="741.2783" y2="741.2783"/><line style="stroke:#181818;stroke-width:1.0;" x1="511" x2="511" y1="741.2783" y2="761.2783"/><polygon fill="#181818" points="507,751.2783,511,761.2783,515,751.2783,511,755.2783" style="stroke:#181818;stroke-width:1.0;"/><line style="stroke:#181818;stroke-width:1.0;" x1="511" x2="511" y1="796.3721" y2="816.3721"/><polygon fill="#181818" points="507,806.3721,511,816.3721,515,806.3721,511,810.3721" style="stroke:#181818;stroke-width:1.0;"/><!--SRC=[ZLF1Rk8m4BtxA-QqWij-056rei1AhI2XE3tigNAT2RLmF94ziENlrubJ2cLRDPSeVkFtvhsPi66BSAlq3bq5guUoX3ltJFluiVQaCGJZjh0sBLhZK8Z0ohCGamrgD0TCDvfOfhQOYSdYbRtI34ojqV03MdMqfAfC25F3w5uMEHoKDTMlCV0BEXZzmJ0M49_JrGeFHkDT1RMd9X5b0cr06EKqr2vf2usoDVa6A-Xeinu8iLn48wOMIR7i-xW1kSXbiNcQJylffNJYMoiV-GEwGFwzvnwQULIC87jihbW1EZPy762fOWXCi2AtfVbjDDgrUY5TJij7-OKgAzw73wg_JHn0IWACWzLHFYopTAtZdYS4NqtWS9rbJ_7OLbtZYUHdKickOAi2pwXfzivenORSMSd9MrBlpYxdS9h5qAaZXhhRdQ4u3U9Z8BCYBpV5yccpaEiYbulFez7as9C5Zw4b5_0y71sRLl7zdtHc0_ITUDvehlBvllatYi_Tlo_jtkqS_NMdjKuraxDVBRAr5ZbwxPVv7m00]--></g></svg>